<?xml version="1.0" encoding="utf-8"?>
<svg width="21px" height="21px" viewBox="0 0 21 21" version="1.1" xmlns:xlink="http://www.w3.org/1999/xlink" xmlns="http://www.w3.org/2000/svg">
  <desc>Created with Lunacy</desc>
  <g id="Group-2" transform="translate(0.5 0.5)">
    <path d="M10 20C15.5228 20 20 15.5228 20 10C20 4.47715 15.5228 0 10 0C4.47715 0 0 4.47715 0 10C0 15.5228 4.47715 20 10 20Z" id="Oval" fill="#FA5959" stroke="none" />
    <g id="Group" transform="translate(9 5)">
      <path d="M0.999 0L1.001 0Q1.09939 0 1.1959 0.0191955Q1.2924 0.038391 1.3833 0.0760443Q1.4742 0.113698 1.55601 0.168362Q1.63783 0.223026 1.7074 0.2926Q1.77697 0.362175 1.83164 0.443985Q1.8863 0.525796 1.92396 0.616699Q1.96161 0.707602 1.9808 0.804105Q2 0.900607 2 0.999L2 6.001Q2 6.09939 1.9808 6.19589Q1.96161 6.2924 1.92396 6.3833Q1.8863 6.4742 1.83164 6.55601Q1.77697 6.63782 1.7074 6.7074Q1.63783 6.77697 1.55601 6.83164Q1.4742 6.8863 1.3833 6.92395Q1.2924 6.96161 1.1959 6.9808Q1.09939 7 1.001 7L0.999 7Q0.900607 7 0.804105 6.9808Q0.707602 6.96161 0.616699 6.92395Q0.525796 6.8863 0.443985 6.83164Q0.362175 6.77697 0.2926 6.7074Q0.223026 6.63782 0.168362 6.55601Q0.113698 6.4742 0.0760443 6.3833Q0.038391 6.2924 0.0191955 6.19589Q0 6.09939 0 6.001L0 0.999Q0 0.900607 0.0191955 0.804105Q0.038391 0.707602 0.0760443 0.616699Q0.113698 0.525796 0.168362 0.443985Q0.223026 0.362175 0.2926 0.2926Q0.362175 0.223026 0.443985 0.168362Q0.525796 0.113698 0.616699 0.0760443Q0.707602 0.038391 0.804105 0.0191955Q0.900607 0 0.999 0Z" id="Rectangle" fill="#FFFFFF" stroke="none" />
      <path d="M0.999 0L1.001 0Q1.09939 0 1.1959 0.0191955Q1.2924 0.038391 1.3833 0.0760443Q1.4742 0.113698 1.55601 0.168362Q1.63783 0.223026 1.7074 0.2926Q1.77697 0.362175 1.83164 0.443985Q1.8863 0.525796 1.92396 0.616699Q1.96161 0.707602 1.9808 0.804105Q2 0.900607 2 0.999L2 1.001Q2 1.09939 1.9808 1.1959Q1.96161 1.2924 1.92396 1.3833Q1.8863 1.4742 1.83164 1.55601Q1.77697 1.63783 1.7074 1.7074Q1.63783 1.77697 1.55601 1.83164Q1.4742 1.8863 1.3833 1.92396Q1.2924 1.96161 1.1959 1.9808Q1.09939 2 1.001 2L0.999 2Q0.900607 2 0.804105 1.9808Q0.707602 1.96161 0.616699 1.92396Q0.525796 1.8863 0.443985 1.83164Q0.362175 1.77697 0.2926 1.7074Q0.223026 1.63783 0.168362 1.55601Q0.113698 1.4742 0.0760443 1.3833Q0.038391 1.2924 0.0191955 1.1959Q0 1.09939 0 1.001L0 0.999Q0 0.900607 0.0191955 0.804105Q0.038391 0.707602 0.0760443 0.616699Q0.113698 0.525796 0.168362 0.443985Q0.223026 0.362175 0.2926 0.2926Q0.362175 0.223026 0.443985 0.168362Q0.525796 0.113698 0.616699 0.0760443Q0.707602 0.038391 0.804105 0.0191955Q0.900607 0 0.999 0Z" transform="translate(0 8)" id="Rectangle-Copy" fill="#FFFFFF" stroke="none" />
    </g>
  </g>
</svg>