<?xml version="1.0" encoding="utf-8"?>
<svg width="314px" height="210px" viewBox="0 0 314 210" version="1.1" xmlns:xlink="http://www.w3.org/1999/xlink" xmlns="http://www.w3.org/2000/svg">
  <desc>Created with Lunacy</desc>
  <defs>
    <linearGradient x1="0.990132749" y1="0.990132749" x2="0.0254419055" y2="0.0254419055" id="gradient_1">
      <stop offset="0" stop-color="#151515" />
      <stop offset="1" stop-color="#3D3D3D" />
    </linearGradient>
    <filter filterUnits="userSpaceOnUse" color-interpolation-filters="sRGB" id="filter_1">
      <feFlood flood-opacity="0" result="BackgroundImageFix" />
      <feColorMatrix in="SourceAlpha" type="matrix" values="0 0 0 0 0 0 0 0 0 0 0 0 0 0 0 0 0 0 127 0" />
      <feOffset dx="0" dy="30" />
      <feGaussianBlur stdDeviation="20" />
      <feColorMatrix type="matrix" values="0 0 0 0 0.1843137 0 0 0 0 0.2313726 0 0 0 0 0.5058824 0 0 0 0.2 0" />
      <feBlend mode="normal" in2="BackgroundImageFix" result="effect0_dropShadow" />
      <feBlend mode="normal" in="SourceGraphic" in2="effect0_dropShadow" result="shape" />
    </filter>
    <path d="M7.999 0L280.188 0Q280.384 0 280.581 0.00963514Q280.777 0.0192703 280.972 0.0385174Q281.167 0.0577644 281.362 0.0865771Q281.556 0.11539 281.749 0.153699Q281.941 0.192007 282.132 0.23972Q282.322 0.287433 282.51 0.344434Q282.698 0.401436 282.883 0.467589Q283.068 0.533742 283.249 0.608888Q283.43 0.684033 283.608 0.76799Q283.785 0.851946 283.959 0.944512Q284.132 1.03708 284.3 1.13803Q284.469 1.23898 284.632 1.34807Q284.795 1.45717 284.953 1.57414Q285.111 1.69112 285.263 1.81569Q285.414 1.94026 285.56 2.07213Q285.705 2.204 285.844 2.34285Q285.983 2.4817 286.115 2.6272Q286.247 2.7727 286.371 2.92449Q286.496 3.07628 286.613 3.234Q286.73 3.39172 286.839 3.55499Q286.948 3.71826 287.049 3.88669Q287.15 4.05512 287.242 4.2283Q287.335 4.40148 287.419 4.57899Q287.503 4.7565 287.578 4.93791Q287.653 5.11933 287.719 5.30422Q287.785 5.4891 287.843 5.67701Q287.9 5.86492 287.947 6.0554Q287.995 6.24588 288.033 6.43847Q288.072 6.63106 288.1 6.8253Q288.129 7.01954 288.148 7.21496Q288.168 7.41038 288.177 7.60651Q288.187 7.80264 288.187 7.999L288.187 177.572Q288.187 177.768 288.177 177.964Q288.168 178.161 288.148 178.356Q288.129 178.551 288.1 178.746Q288.072 178.94 288.033 179.132Q287.995 179.325 287.947 179.516Q287.9 179.706 287.843 179.894Q287.786 180.082 287.719 180.267Q287.653 180.452 287.578 180.633Q287.503 180.814 287.419 180.992Q287.335 181.169 287.242 181.343Q287.15 181.516 287.049 181.684Q286.948 181.853 286.839 182.016Q286.73 182.179 286.613 182.337Q286.496 182.495 286.371 182.646Q286.247 182.798 286.115 182.944Q285.983 183.089 285.844 183.228Q285.705 183.367 285.56 183.499Q285.414 183.631 285.263 183.755Q285.111 183.88 284.953 183.997Q284.795 184.114 284.632 184.223Q284.469 184.332 284.3 184.433Q284.132 184.534 283.959 184.626Q283.785 184.719 283.608 184.803Q283.43 184.887 283.249 184.962Q283.068 185.037 282.883 185.103Q282.698 185.169 282.51 185.226Q282.322 185.283 282.132 185.331Q281.941 185.379 281.749 185.417Q281.556 185.456 281.362 185.484Q281.167 185.513 280.972 185.532Q280.777 185.552 280.581 185.561Q280.384 185.571 280.188 185.571L7.999 185.571Q7.80264 185.571 7.60651 185.561Q7.41038 185.552 7.21496 185.532Q7.01954 185.513 6.8253 185.484Q6.63106 185.456 6.43847 185.417Q6.24588 185.379 6.0554 185.331Q5.86492 185.283 5.67701 185.227Q5.4891 185.169 5.30422 185.103Q5.11933 185.037 4.93791 184.962Q4.7565 184.887 4.57899 184.803Q4.40148 184.719 4.2283 184.626Q4.05512 184.534 3.88669 184.433Q3.71826 184.332 3.55499 184.223Q3.39172 184.114 3.234 183.997Q3.07628 183.88 2.92449 183.755Q2.7727 183.631 2.6272 183.499Q2.4817 183.367 2.34285 183.228Q2.204 183.089 2.07213 182.944Q1.94026 182.798 1.81569 182.646Q1.69112 182.495 1.57414 182.337Q1.45717 182.179 1.34807 182.016Q1.23898 181.853 1.13803 181.684Q1.03708 181.516 0.944512 181.343Q0.851946 181.169 0.76799 180.992Q0.684033 180.814 0.608888 180.633Q0.533742 180.452 0.467589 180.267Q0.401436 180.082 0.344434 179.894Q0.287433 179.706 0.23972 179.516Q0.192007 179.325 0.153699 179.132Q0.11539 178.94 0.0865771 178.746Q0.0577644 178.551 0.0385174 178.356Q0.0192703 178.161 0.00963514 177.964Q0 177.768 0 177.572L0 7.999Q0 7.80264 0.00963514 7.60651Q0.0192703 7.41038 0.0385174 7.21496Q0.0577644 7.01954 0.0865771 6.8253Q0.11539 6.63106 0.153699 6.43847Q0.192007 6.24588 0.23972 6.0554Q0.287433 5.86492 0.344434 5.67701Q0.401436 5.4891 0.467589 5.30422Q0.533742 5.11933 0.608888 4.93791Q0.684033 4.7565 0.76799 4.57899Q0.851946 4.40148 0.944512 4.2283Q1.03708 4.05512 1.13803 3.88669Q1.23898 3.71826 1.34807 3.55499Q1.45717 3.39172 1.57414 3.234Q1.69112 3.07628 1.81569 2.92449Q1.94026 2.7727 2.07213 2.6272Q2.204 2.4817 2.34285 2.34285Q2.4817 2.204 2.6272 2.07213Q2.7727 1.94026 2.92449 1.81569Q3.07628 1.69112 3.234 1.57414Q3.39172 1.45717 3.55499 1.34807Q3.71826 1.23898 3.88669 1.13803Q4.05512 1.03708 4.2283 0.944512Q4.40148 0.851946 4.57899 0.76799Q4.7565 0.684033 4.93791 0.608888Q5.11933 0.533742 5.30422 0.467589Q5.4891 0.401436 5.67701 0.344434Q5.86492 0.287433 6.0554 0.23972Q6.24588 0.192007 6.43847 0.153699Q6.63106 0.11539 6.8253 0.0865771Q7.01954 0.0577644 7.21496 0.0385174Q7.41038 0.0192703 7.60651 0.00963514Q7.80264 0 7.999 0L7.999 0Z" transform="translate(0 1.608997)" id="path_1" />
    <clipPath id="mask_1">
      <use xlink:href="#path_1" />
    </clipPath>
  </defs>
  <g id="Group-2" transform="translate(0.5 0.5)">
    <g id="Group-40" transform="matrix(-4.371139E-08 1 -1 -4.371139E-08 312.5 0.4999886)">
      <g id="Group-52" transform="matrix(-4.371139E-08 -1 1 -4.371139E-08 0.2560425 311.3844)">
        <g filter="url(#filter_1)">
          <path d="M13.999 0L296.77 0Q297.113 0 297.457 0.0168624Q297.8 0.0337248 298.142 0.067409Q298.484 0.101093 298.824 0.151518Q299.164 0.201943 299.501 0.268987Q299.838 0.336031 300.171 0.419532Q300.505 0.503034 300.833 0.602792Q301.162 0.70255 301.486 0.818324Q301.81 0.934099 302.127 1.06561Q302.444 1.19712 302.755 1.34405Q303.066 1.49099 303.369 1.65298Q303.672 1.81498 303.967 1.99166Q304.261 2.16833 304.547 2.35926Q304.833 2.55018 305.109 2.7549Q305.385 2.95961 305.651 3.17763Q305.916 3.39564 306.171 3.62642Q306.426 3.85721 306.669 4.10021Q306.912 4.34321 307.142 4.59785Q307.373 4.85248 307.591 5.11813Q307.809 5.38378 308.014 5.6598Q308.219 5.93583 308.41 6.22157Q308.6 6.50731 308.777 6.80207Q308.954 7.09684 309.116 7.39992Q309.278 7.70299 309.425 8.01366Q309.572 8.32432 309.703 8.64181Q309.835 8.95931 309.951 9.28288Q310.066 9.60644 310.166 9.9353Q310.266 10.2642 310.349 10.5975Q310.433 10.9309 310.5 11.2679Q310.567 11.605 310.617 11.9449Q310.668 12.2849 310.701 12.6269Q310.735 12.9689 310.752 13.3121Q310.769 13.6553 310.769 13.999L310.769 192.489Q310.769 192.833 310.752 193.176Q310.735 193.519 310.701 193.861Q310.668 194.203 310.617 194.543Q310.567 194.883 310.5 195.22Q310.433 195.557 310.349 195.89Q310.266 196.224 310.166 196.553Q310.066 196.881 309.95 197.205Q309.835 197.529 309.703 197.846Q309.572 198.164 309.425 198.474Q309.278 198.785 309.116 199.088Q308.954 199.391 308.777 199.686Q308.6 199.981 308.41 200.266Q308.219 200.552 308.014 200.828Q307.809 201.104 307.591 201.37Q307.373 201.635 307.142 201.89Q306.912 202.145 306.669 202.388Q306.426 202.631 306.171 202.861Q305.916 203.092 305.651 203.31Q305.385 203.528 305.109 203.733Q304.833 203.938 304.547 204.129Q304.261 204.32 303.967 204.496Q303.672 204.673 303.369 204.835Q303.066 204.997 302.755 205.144Q302.444 205.291 302.127 205.422Q301.81 205.554 301.486 205.67Q301.162 205.785 300.833 205.885Q300.505 205.985 300.171 206.068Q299.838 206.152 299.501 206.219Q299.164 206.286 298.824 206.336Q298.484 206.387 298.142 206.42Q297.8 206.454 297.457 206.471Q297.113 206.488 296.77 206.488L13.999 206.488Q13.6553 206.488 13.3121 206.471Q12.9689 206.454 12.6269 206.42Q12.2849 206.387 11.9449 206.336Q11.605 206.286 11.2679 206.219Q10.9309 206.152 10.5975 206.068Q10.2642 205.985 9.9353 205.885Q9.60644 205.785 9.28288 205.67Q8.95931 205.554 8.64181 205.422Q8.32432 205.291 8.01366 205.144Q7.70299 204.997 7.39992 204.835Q7.09684 204.673 6.80207 204.496Q6.50731 204.32 6.22157 204.129Q5.93583 203.938 5.6598 203.733Q5.38378 203.528 5.11813 203.31Q4.85248 203.092 4.59785 202.861Q4.34321 202.631 4.10021 202.388Q3.85721 202.145 3.62642 201.89Q3.39564 201.635 3.17763 201.37Q2.95961 201.104 2.7549 200.828Q2.55018 200.552 2.35926 200.266Q2.16833 199.981 1.99166 199.686Q1.81498 199.391 1.65298 199.088Q1.49099 198.785 1.34405 198.474Q1.19712 198.164 1.06561 197.846Q0.934099 197.529 0.818324 197.205Q0.70255 196.881 0.602792 196.553Q0.503034 196.224 0.419532 195.89Q0.336031 195.557 0.268987 195.22Q0.201943 194.883 0.151518 194.543Q0.101093 194.203 0.067409 193.861Q0.0337248 193.519 0.0168624 193.176Q0 192.833 0 192.489L0 13.999Q0 13.6553 0.0168624 13.3121Q0.0337248 12.9689 0.067409 12.6269Q0.101093 12.2849 0.151518 11.9449Q0.201943 11.605 0.268987 11.2679Q0.336031 10.9309 0.419532 10.5975Q0.503034 10.2642 0.602792 9.9353Q0.70255 9.60644 0.818324 9.28288Q0.934099 8.95931 1.06561 8.64181Q1.19712 8.32432 1.34405 8.01366Q1.49099 7.70299 1.65298 7.39992Q1.81498 7.09684 1.99166 6.80207Q2.16833 6.50731 2.35926 6.22157Q2.55018 5.93583 2.7549 5.6598Q2.95961 5.38378 3.17763 5.11813Q3.39564 4.85248 3.62642 4.59785Q3.85721 4.34321 4.10021 4.10021Q4.34321 3.85721 4.59785 3.62642Q4.85248 3.39564 5.11813 3.17763Q5.38378 2.95961 5.6598 2.7549Q5.93583 2.55018 6.22157 2.35926Q6.50731 2.16833 6.80207 1.99166Q7.09684 1.81498 7.39992 1.65298Q7.70299 1.49099 8.01366 1.34405Q8.32432 1.19712 8.64181 1.06561Q8.95931 0.934099 9.28288 0.818324Q9.60644 0.70255 9.9353 0.602792Q10.2642 0.503034 10.5975 0.419532Q10.9309 0.336031 11.2679 0.268987Q11.605 0.201943 11.9449 0.151518Q12.2849 0.101093 12.6269 0.067409Q12.9689 0.0337248 13.3121 0.0168624Q13.6553 0 13.999 0Z" id="Rectangle-Copy-3" fill="#777777" stroke="none" />
        </g>
        <path d="M12.999 0L295.743 0Q296.062 0 296.381 0.0156579Q296.7 0.0313157 297.017 0.0625937Q297.335 0.0938717 297.65 0.140695Q297.966 0.187517 298.279 0.249772Q298.592 0.312027 298.902 0.389564Q299.211 0.4671 299.516 0.559732Q299.822 0.652364 300.122 0.759869Q300.423 0.867373 300.717 0.98949Q301.012 1.11161 301.301 1.24804Q301.589 1.38448 301.871 1.53491Q302.152 1.68533 302.426 1.84939Q302.7 2.01344 302.965 2.19073Q303.23 2.36801 303.486 2.55811Q303.743 2.7482 303.99 2.95064Q304.236 3.15308 304.473 3.36738Q304.709 3.58168 304.935 3.80732Q305.16 4.03296 305.375 4.2694Q305.589 4.50585 305.791 4.75252Q305.994 4.99919 306.184 5.2555Q306.374 5.51181 306.551 5.77714Q306.729 6.04247 306.893 6.31618Q307.057 6.58989 307.207 6.87131Q307.358 7.15274 307.494 7.44121Q307.63 7.72968 307.753 8.0245Q307.875 8.31931 307.982 8.61977Q308.09 8.92022 308.182 9.22559Q308.275 9.53096 308.352 9.8405Q308.43 10.15 308.492 10.463Q308.555 10.776 308.601 11.0917Q308.648 11.4073 308.679 11.7249Q308.711 12.0424 308.726 12.3612Q308.742 12.6799 308.742 12.999L308.742 191.807Q308.742 192.127 308.726 192.445Q308.711 192.764 308.679 193.082Q308.648 193.399 308.601 193.715Q308.555 194.03 308.492 194.343Q308.43 194.656 308.352 194.966Q308.275 195.275 308.182 195.581Q308.09 195.886 307.982 196.187Q307.875 196.487 307.753 196.782Q307.63 197.077 307.494 197.365Q307.358 197.654 307.207 197.935Q307.057 198.216 306.893 198.49Q306.729 198.764 306.551 199.029Q306.374 199.295 306.184 199.551Q305.994 199.807 305.791 200.054Q305.589 200.301 305.375 200.537Q305.16 200.773 304.935 200.999Q304.709 201.225 304.473 201.439Q304.236 201.653 303.99 201.856Q303.743 202.058 303.487 202.248Q303.23 202.438 302.965 202.616Q302.7 202.793 302.426 202.957Q302.152 203.121 301.871 203.271Q301.589 203.422 301.301 203.558Q301.012 203.695 300.717 203.817Q300.423 203.939 300.122 204.047Q299.822 204.154 299.516 204.247Q299.211 204.339 298.902 204.417Q298.592 204.494 298.279 204.557Q297.966 204.619 297.65 204.666Q297.335 204.713 297.017 204.744Q296.7 204.775 296.381 204.791Q296.062 204.806 295.743 204.806L12.999 204.806Q12.6799 204.806 12.3612 204.791Q12.0424 204.775 11.7249 204.744Q11.4073 204.713 11.0917 204.666Q10.776 204.619 10.463 204.557Q10.15 204.494 9.8405 204.417Q9.53096 204.339 9.22559 204.247Q8.92022 204.154 8.61977 204.047Q8.31931 203.939 8.0245 203.817Q7.72968 203.695 7.44121 203.558Q7.15274 203.422 6.87131 203.271Q6.58989 203.121 6.31618 202.957Q6.04247 202.793 5.77714 202.616Q5.51181 202.438 5.2555 202.248Q4.99919 202.058 4.75252 201.856Q4.50585 201.653 4.2694 201.439Q4.03296 201.225 3.80732 200.999Q3.58168 200.773 3.36738 200.537Q3.15308 200.301 2.95064 200.054Q2.7482 199.807 2.55811 199.551Q2.36801 199.295 2.19073 199.029Q2.01344 198.764 1.84939 198.49Q1.68533 198.216 1.53491 197.935Q1.38448 197.654 1.24804 197.365Q1.11161 197.077 0.98949 196.782Q0.867373 196.487 0.759869 196.187Q0.652364 195.886 0.559732 195.581Q0.4671 195.275 0.389564 194.966Q0.312027 194.656 0.249772 194.343Q0.187517 194.03 0.140694 193.715Q0.0938717 193.399 0.0625937 193.082Q0.0313157 192.764 0.0156579 192.445Q0 192.127 0 191.807L0 12.999Q0 12.6799 0.0156579 12.3612Q0.0313157 12.0424 0.0625937 11.7249Q0.0938717 11.4073 0.140695 11.0917Q0.187517 10.776 0.249772 10.463Q0.312027 10.15 0.389564 9.8405Q0.467101 9.53096 0.559733 9.22559Q0.652365 8.92022 0.759869 8.61977Q0.867373 8.31931 0.98949 8.0245Q1.11161 7.72968 1.24804 7.44121Q1.38448 7.15274 1.53491 6.87131Q1.68533 6.58989 1.84939 6.31618Q2.01344 6.04247 2.19073 5.77714Q2.36801 5.51181 2.55811 5.2555Q2.7482 4.99919 2.95064 4.75252Q3.15308 4.50585 3.36738 4.2694Q3.58168 4.03296 3.80732 3.80732Q4.03296 3.58168 4.2694 3.36738Q4.50585 3.15308 4.75252 2.95064Q4.9992 2.7482 5.2555 2.55811Q5.51181 2.36801 5.77714 2.19073Q6.04247 2.01344 6.31618 1.84939Q6.58989 1.68533 6.87131 1.53491Q7.15274 1.38448 7.44121 1.24804Q7.72968 1.11161 8.0245 0.98949Q8.31931 0.867373 8.61977 0.759869Q8.92022 0.652364 9.22559 0.559732Q9.53096 0.4671 9.8405 0.389564Q10.15 0.312027 10.463 0.249772Q10.776 0.187517 11.0917 0.140694Q11.4073 0.0938717 11.7249 0.0625937Q12.0424 0.0313157 12.3612 0.0156579Q12.6799 0 12.999 0L12.999 0Z" transform="translate(1.075325 1.072664)" id="Rectangle-Copy-5" fill="url(#gradient_1)" stroke="none" />
        <g id="GoViral---Wordpress-Theme" transform="translate(11.30727 8.743787)">
          <path d="M4.999 0L248.489 0Q248.612 0 248.734 0.00602151Q248.857 0.012043 248.979 0.0240716Q249.101 0.0361001 249.222 0.0541066Q249.344 0.0721132 249.464 0.0960544Q249.584 0.119996 249.704 0.149814Q249.823 0.179632 249.94 0.215255Q250.057 0.250879 250.173 0.292221Q250.288 0.333564 250.402 0.380526Q250.515 0.427489 250.626 0.479958Q250.737 0.532426 250.845 0.590276Q250.954 0.648125 251.059 0.711215Q251.164 0.774305 251.266 0.842483Q251.368 0.910662 251.467 0.983766Q251.565 1.05687 251.66 1.13472Q251.755 1.21257 251.846 1.29499Q251.937 1.3774 252.024 1.46417Q252.11 1.55095 252.193 1.64188Q252.275 1.73281 252.353 1.82767Q252.431 1.92253 252.504 2.0211Q252.577 2.11967 252.645 2.2217Q252.714 2.32374 252.777 2.429Q252.84 2.53426 252.898 2.64249Q252.955 2.75072 253.008 2.86165Q253.06 2.97259 253.107 3.08597Q253.154 3.19934 253.196 3.31489Q253.237 3.43043 253.273 3.54787Q253.308 3.6653 253.338 3.78434Q253.368 3.90338 253.392 4.02374Q253.416 4.1441 253.434 4.26549Q253.452 4.38689 253.464 4.50901Q253.476 4.63114 253.482 4.75371Q253.488 4.87628 253.488 4.999L253.488 184.732Q253.488 184.854 253.482 184.977Q253.476 185.099 253.464 185.222Q253.452 185.344 253.434 185.465Q253.416 185.586 253.392 185.707Q253.368 185.827 253.338 185.946Q253.308 186.065 253.273 186.183Q253.237 186.3 253.196 186.416Q253.154 186.531 253.107 186.645Q253.06 186.758 253.008 186.869Q252.955 186.98 252.898 187.088Q252.84 187.196 252.777 187.302Q252.714 187.407 252.645 187.509Q252.577 187.611 252.504 187.709Q252.431 187.808 252.353 187.903Q252.275 187.998 252.193 188.089Q252.11 188.18 252.024 188.266Q251.937 188.353 251.846 188.436Q251.755 188.518 251.66 188.596Q251.565 188.674 251.467 188.747Q251.368 188.82 251.266 188.888Q251.164 188.956 251.059 189.019Q250.954 189.082 250.845 189.14Q250.737 189.198 250.626 189.251Q250.515 189.303 250.402 189.35Q250.288 189.397 250.173 189.438Q250.057 189.48 249.94 189.515Q249.823 189.551 249.704 189.581Q249.584 189.611 249.464 189.635Q249.344 189.658 249.222 189.676Q249.101 189.694 248.979 189.706Q248.857 189.719 248.734 189.725Q248.612 189.731 248.489 189.731L4.999 189.731Q4.87628 189.731 4.75371 189.725Q4.63114 189.719 4.50901 189.706Q4.38689 189.694 4.26549 189.676Q4.1441 189.658 4.02374 189.634Q3.90338 189.611 3.78434 189.581Q3.6653 189.551 3.54787 189.515Q3.43043 189.48 3.31489 189.438Q3.19934 189.397 3.08597 189.35Q2.97259 189.303 2.86165 189.251Q2.75072 189.198 2.64249 189.14Q2.53426 189.082 2.429 189.019Q2.32374 188.956 2.2217 188.888Q2.11967 188.82 2.0211 188.747Q1.92253 188.674 1.82767 188.596Q1.73281 188.518 1.64188 188.436Q1.55095 188.353 1.46417 188.266Q1.3774 188.18 1.29499 188.089Q1.21257 187.998 1.13472 187.903Q1.05687 187.808 0.983766 187.709Q0.910662 187.611 0.842483 187.509Q0.774305 187.407 0.711215 187.302Q0.648125 187.196 0.590276 187.088Q0.532426 186.98 0.479958 186.869Q0.427489 186.758 0.380526 186.645Q0.333564 186.531 0.292221 186.416Q0.250879 186.3 0.215255 186.183Q0.179632 186.065 0.149814 185.946Q0.119996 185.827 0.0960544 185.707Q0.0721132 185.586 0.0541066 185.465Q0.0361001 185.344 0.0240716 185.222Q0.012043 185.099 0.00602151 184.977Q0 184.854 0 184.732L0 4.999Q0 4.87628 0.00602151 4.75371Q0.012043 4.63114 0.0240715 4.50901Q0.0361001 4.38688 0.0541066 4.26549Q0.0721132 4.1441 0.0960544 4.02374Q0.119996 3.90338 0.149814 3.78434Q0.179632 3.6653 0.215255 3.54787Q0.250879 3.43043 0.292221 3.31489Q0.333564 3.19934 0.380526 3.08597Q0.427489 2.97259 0.479957 2.86165Q0.532426 2.75072 0.590276 2.64249Q0.648125 2.53426 0.711215 2.429Q0.774305 2.32374 0.842483 2.2217Q0.910662 2.11967 0.983765 2.0211Q1.05687 1.92253 1.13472 1.82767Q1.21257 1.73281 1.29499 1.64188Q1.3774 1.55095 1.46417 1.46417Q1.55095 1.3774 1.64188 1.29499Q1.73281 1.21257 1.82767 1.13472Q1.92253 1.05687 2.0211 0.983765Q2.11967 0.910662 2.2217 0.842483Q2.32374 0.774305 2.429 0.711215Q2.53426 0.648125 2.64249 0.590276Q2.75072 0.532426 2.86165 0.479957Q2.97259 0.427489 3.08597 0.380526Q3.19934 0.333564 3.31489 0.292221Q3.43043 0.250879 3.54787 0.215255Q3.6653 0.179632 3.78434 0.149814Q3.90338 0.119996 4.02374 0.0960544Q4.1441 0.0721132 4.26549 0.0541066Q4.38688 0.0361001 4.50901 0.0240715Q4.63114 0.012043 4.75371 0.00602151Q4.87628 0 4.999 0Z" transform="translate(17.74286 0)" id="Mask-Copy" fill="#2A2A2A" fill-opacity="0.1" stroke="none" />
          <path d="M7.999 0L280.188 0Q280.384 0 280.581 0.00963514Q280.777 0.0192703 280.972 0.0385174Q281.167 0.0577644 281.362 0.0865771Q281.556 0.11539 281.749 0.153699Q281.941 0.192007 282.132 0.23972Q282.322 0.287433 282.51 0.344434Q282.698 0.401436 282.883 0.467589Q283.068 0.533742 283.249 0.608888Q283.43 0.684033 283.608 0.76799Q283.785 0.851946 283.959 0.944512Q284.132 1.03708 284.3 1.13803Q284.469 1.23898 284.632 1.34807Q284.795 1.45717 284.953 1.57414Q285.111 1.69112 285.263 1.81569Q285.414 1.94026 285.56 2.07213Q285.705 2.204 285.844 2.34285Q285.983 2.4817 286.115 2.6272Q286.247 2.7727 286.371 2.92449Q286.496 3.07628 286.613 3.234Q286.73 3.39172 286.839 3.55499Q286.948 3.71826 287.049 3.88669Q287.15 4.05512 287.242 4.2283Q287.335 4.40148 287.419 4.57899Q287.503 4.7565 287.578 4.93791Q287.653 5.11933 287.719 5.30422Q287.785 5.4891 287.843 5.67701Q287.9 5.86492 287.947 6.0554Q287.995 6.24588 288.033 6.43847Q288.072 6.63106 288.1 6.8253Q288.129 7.01954 288.148 7.21496Q288.168 7.41038 288.177 7.60651Q288.187 7.80264 288.187 7.999L288.187 177.572Q288.187 177.768 288.177 177.964Q288.168 178.161 288.148 178.356Q288.129 178.551 288.1 178.746Q288.072 178.94 288.033 179.132Q287.995 179.325 287.947 179.516Q287.9 179.706 287.843 179.894Q287.786 180.082 287.719 180.267Q287.653 180.452 287.578 180.633Q287.503 180.814 287.419 180.992Q287.335 181.169 287.242 181.343Q287.15 181.516 287.049 181.684Q286.948 181.853 286.839 182.016Q286.73 182.179 286.613 182.337Q286.496 182.495 286.371 182.646Q286.247 182.798 286.115 182.944Q285.983 183.089 285.844 183.228Q285.705 183.367 285.56 183.499Q285.414 183.631 285.263 183.755Q285.111 183.88 284.953 183.997Q284.795 184.114 284.632 184.223Q284.469 184.332 284.3 184.433Q284.132 184.534 283.959 184.626Q283.785 184.719 283.608 184.803Q283.43 184.887 283.249 184.962Q283.068 185.037 282.883 185.103Q282.698 185.169 282.51 185.226Q282.322 185.283 282.132 185.331Q281.941 185.379 281.749 185.417Q281.556 185.456 281.362 185.484Q281.167 185.513 280.972 185.532Q280.777 185.552 280.581 185.561Q280.384 185.571 280.188 185.571L7.999 185.571Q7.80264 185.571 7.60651 185.561Q7.41038 185.552 7.21496 185.532Q7.01954 185.513 6.8253 185.484Q6.63106 185.456 6.43847 185.417Q6.24588 185.379 6.0554 185.331Q5.86492 185.283 5.67701 185.227Q5.4891 185.169 5.30422 185.103Q5.11933 185.037 4.93791 184.962Q4.7565 184.887 4.57899 184.803Q4.40148 184.719 4.2283 184.626Q4.05512 184.534 3.88669 184.433Q3.71826 184.332 3.55499 184.223Q3.39172 184.114 3.234 183.997Q3.07628 183.88 2.92449 183.755Q2.7727 183.631 2.6272 183.499Q2.4817 183.367 2.34285 183.228Q2.204 183.089 2.07213 182.944Q1.94026 182.798 1.81569 182.646Q1.69112 182.495 1.57414 182.337Q1.45717 182.179 1.34807 182.016Q1.23898 181.853 1.13803 181.684Q1.03708 181.516 0.944512 181.343Q0.851946 181.169 0.76799 180.992Q0.684033 180.814 0.608888 180.633Q0.533742 180.452 0.467589 180.267Q0.401436 180.082 0.344434 179.894Q0.287433 179.706 0.23972 179.516Q0.192007 179.325 0.153699 179.132Q0.11539 178.94 0.0865771 178.746Q0.0577644 178.551 0.0385174 178.356Q0.0192703 178.161 0.00963514 177.964Q0 177.768 0 177.572L0 7.999Q0 7.80264 0.00963514 7.60651Q0.0192703 7.41038 0.0385174 7.21496Q0.0577644 7.01954 0.0865771 6.8253Q0.11539 6.63106 0.153699 6.43847Q0.192007 6.24588 0.23972 6.0554Q0.287433 5.86492 0.344434 5.67701Q0.401436 5.4891 0.467589 5.30422Q0.533742 5.11933 0.608888 4.93791Q0.684033 4.7565 0.76799 4.57899Q0.851946 4.40148 0.944512 4.2283Q1.03708 4.05512 1.13803 3.88669Q1.23898 3.71826 1.34807 3.55499Q1.45717 3.39172 1.57414 3.234Q1.69112 3.07628 1.81569 2.92449Q1.94026 2.7727 2.07213 2.6272Q2.204 2.4817 2.34285 2.34285Q2.4817 2.204 2.6272 2.07213Q2.7727 1.94026 2.92449 1.81569Q3.07628 1.69112 3.234 1.57414Q3.39172 1.45717 3.55499 1.34807Q3.71826 1.23898 3.88669 1.13803Q4.05512 1.03708 4.2283 0.944512Q4.40148 0.851946 4.57899 0.76799Q4.7565 0.684033 4.93791 0.608888Q5.11933 0.533742 5.30422 0.467589Q5.4891 0.401436 5.67701 0.344434Q5.86492 0.287433 6.0554 0.23972Q6.24588 0.192007 6.43847 0.153699Q6.63106 0.11539 6.8253 0.0865771Q7.01954 0.0577644 7.21496 0.0385174Q7.41038 0.0192703 7.60651 0.00963514Q7.80264 0 7.999 0L7.999 0Z" transform="translate(0 1.608997)" id="Mask" fill="#E8EAF6" stroke="none" />
          <g clip-path="url(#mask_1)">
            <g id="Group-28" transform="translate(-1.898182 1.714691)">
              <path d="M0 0L294.101 0L294.101 31.6436L0 31.6436L0 0Z" id="Rectangle" fill="#5267DF" stroke="none" />
              <g id="Group-7" transform="translate(13.97922 7.50865)">
                <path d="M8.6026 17.1626C13.3537 17.1626 17.2052 13.3206 17.2052 8.58132C17.2052 3.84199 13.3537 0 8.6026 0C3.85151 0 0 3.84199 0 8.58132C0 13.3206 3.85151 17.1626 8.6026 17.1626Z" id="Oval" fill="#FFFFFF" fill-opacity="0.244768411" stroke="none" />
                <path d="M8.6026 17.1626C13.3537 17.1626 17.2052 13.3206 17.2052 8.58132C17.2052 3.84199 13.3537 0 8.6026 0C3.85152 0 0 3.84199 0 8.58132C0 13.3206 3.85152 17.1626 8.6026 17.1626Z" transform="translate(247.8623 0)" id="Oval-Copy" fill="#FFFFFF" fill-opacity="0.104399182" stroke="none" />
                <g id="Group-6" transform="translate(25.27013 3.217993)">
                  <path d="M1.608 0L62.9115 0Q62.9905 0 63.0691 0.00774294Q63.1477 0.0154859 63.2252 0.0308972Q63.3027 0.0463085 63.3783 0.0692398Q63.4538 0.0921711 63.5268 0.122401Q63.5998 0.152632 63.6695 0.18987Q63.7392 0.227109 63.8048 0.270996Q63.8705 0.314884 63.9316 0.364998Q63.9926 0.415113 64.0485 0.470971Q64.1044 0.52683 64.1545 0.587894Q64.2046 0.648959 64.2485 0.714641Q64.2924 0.780324 64.3296 0.849992Q64.3668 0.91966 64.3971 0.992643Q64.4273 1.06563 64.4502 1.14122Q64.4732 1.21681 64.4886 1.29429Q64.504 1.37177 64.5117 1.45039Q64.5195 1.529 64.5195 1.608L64.5195 1.61Q64.5195 1.68899 64.5117 1.76761Q64.504 1.84622 64.4886 1.9237Q64.4732 2.00118 64.4502 2.07677Q64.4273 2.15237 64.3971 2.22535Q64.3668 2.29833 64.3296 2.368Q64.2924 2.43767 64.2485 2.50335Q64.2046 2.56903 64.1545 2.6301Q64.1044 2.69116 64.0485 2.74702Q63.9926 2.80288 63.9316 2.85299Q63.8705 2.90311 63.8048 2.947Q63.7392 2.99088 63.6695 3.02812Q63.5998 3.06536 63.5268 3.09559Q63.4538 3.12582 63.3783 3.14875Q63.3027 3.17168 63.2252 3.1871Q63.1477 3.20251 63.0691 3.21025Q62.9905 3.21799 62.9115 3.21799L1.608 3.21799Q1.529 3.21799 1.45039 3.21025Q1.37177 3.20251 1.29429 3.1871Q1.21681 3.17168 1.14122 3.14875Q1.06563 3.12582 0.992643 3.09559Q0.91966 3.06536 0.849992 3.02812Q0.780324 2.99088 0.714641 2.947Q0.648959 2.90311 0.587894 2.85299Q0.52683 2.80288 0.470971 2.74702Q0.415113 2.69116 0.364998 2.6301Q0.314884 2.56903 0.270996 2.50335Q0.227109 2.43767 0.18987 2.368Q0.152632 2.29833 0.122401 2.22535Q0.0921711 2.15237 0.0692398 2.07677Q0.0463085 2.00118 0.0308972 1.9237Q0.0154859 1.84622 0.00774294 1.76761Q0 1.68899 0 1.61L0 1.608Q0 1.529 0.00774294 1.45039Q0.0154859 1.37177 0.0308972 1.29429Q0.0463085 1.21681 0.0692398 1.14122Q0.0921711 1.06563 0.122401 0.992643Q0.152632 0.91966 0.18987 0.849992Q0.227109 0.780324 0.270996 0.714641Q0.314884 0.648959 0.364998 0.587894Q0.415113 0.52683 0.470971 0.470971Q0.52683 0.415113 0.587894 0.364998Q0.648959 0.314884 0.714642 0.270996Q0.780324 0.227109 0.849992 0.18987Q0.91966 0.152632 0.992643 0.122401Q1.06563 0.0921711 1.14122 0.0692398Q1.21681 0.0463085 1.29429 0.0308972Q1.37177 0.0154859 1.45039 0.00774294Q1.529 0 1.608 0L1.608 0Z" id="Rectangle" fill="#FFFFFF" fill-opacity="0.75" stroke="none" />
                  <path d="M1.608 0L32.8024 0Q32.8814 0 32.96 0.00774294Q33.0386 0.0154859 33.1161 0.0308972Q33.1936 0.0463085 33.2692 0.0692398Q33.3448 0.0921711 33.4177 0.122401Q33.4907 0.152632 33.5604 0.18987Q33.6301 0.227109 33.6957 0.270996Q33.7614 0.314884 33.8225 0.364998Q33.8836 0.415113 33.9394 0.470971Q33.9953 0.52683 34.0454 0.587894Q34.0955 0.648959 34.1394 0.714642Q34.1833 0.780324 34.2205 0.849992Q34.2578 0.91966 34.288 0.992643Q34.3182 1.06563 34.3411 1.14122Q34.3641 1.21681 34.3795 1.29429Q34.3949 1.37177 34.4026 1.45039Q34.4104 1.529 34.4104 1.608L34.4104 1.61Q34.4104 1.68899 34.4026 1.76761Q34.3949 1.84622 34.3795 1.9237Q34.3641 2.00118 34.3411 2.07677Q34.3182 2.15237 34.288 2.22535Q34.2578 2.29833 34.2205 2.368Q34.1833 2.43767 34.1394 2.50335Q34.0955 2.56903 34.0454 2.6301Q33.9953 2.69116 33.9394 2.74702Q33.8836 2.80288 33.8225 2.85299Q33.7614 2.90311 33.6957 2.947Q33.6301 2.99088 33.5604 3.02812Q33.4907 3.06536 33.4177 3.09559Q33.3448 3.12582 33.2692 3.14875Q33.1936 3.17168 33.1161 3.1871Q33.0386 3.20251 32.96 3.21025Q32.8814 3.21799 32.8024 3.21799L1.608 3.21799Q1.529 3.21799 1.45039 3.21025Q1.37177 3.20251 1.29429 3.1871Q1.21681 3.17168 1.14122 3.14875Q1.06563 3.12582 0.992643 3.09559Q0.91966 3.06536 0.849992 3.02812Q0.780324 2.99088 0.714642 2.947Q0.648959 2.90311 0.587894 2.85299Q0.52683 2.80288 0.470971 2.74702Q0.415113 2.69116 0.364998 2.6301Q0.314884 2.56903 0.270996 2.50335Q0.227109 2.43767 0.18987 2.368Q0.152632 2.29833 0.122401 2.22535Q0.0921711 2.15237 0.0692398 2.07677Q0.0463085 2.00118 0.0308972 1.9237Q0.0154859 1.84622 0.00774294 1.76761Q0 1.68899 0 1.61L0 1.608Q0 1.529 0.00774294 1.45039Q0.0154859 1.37177 0.0308972 1.29429Q0.0463085 1.21681 0.0692398 1.14122Q0.0921711 1.06563 0.122401 0.992643Q0.152632 0.91966 0.18987 0.849992Q0.227109 0.780324 0.270996 0.714642Q0.314884 0.648959 0.364998 0.587894Q0.415113 0.52683 0.470971 0.470971Q0.52683 0.415113 0.587894 0.364998Q0.648959 0.314884 0.714642 0.270996Q0.780324 0.227109 0.849992 0.18987Q0.91966 0.152632 0.992643 0.122401Q1.06563 0.0921711 1.14122 0.0692398Q1.21681 0.0463085 1.29429 0.0308972Q1.37177 0.0154859 1.45039 0.00774294Q1.529 0 1.608 0Z" transform="translate(0 7.50865)" id="Rectangle-Copy-6" fill="#FFFFFF" fill-opacity="0.25" stroke="none" />
                </g>
              </g>
            </g>
            <g id="Group-26" transform="translate(30.64675 51.48789)">
              <path d="M7.999 0L132.331 0Q132.527 0 132.723 0.00963514Q132.919 0.0192703 133.115 0.0385174Q133.31 0.0577644 133.505 0.0865771Q133.699 0.11539 133.891 0.153699Q134.084 0.192007 134.274 0.23972Q134.465 0.287433 134.653 0.344434Q134.841 0.401436 135.026 0.467589Q135.211 0.533742 135.392 0.608888Q135.573 0.684033 135.751 0.76799Q135.928 0.851946 136.102 0.944512Q136.275 1.03708 136.443 1.13803Q136.612 1.23898 136.775 1.34807Q136.938 1.45717 137.096 1.57414Q137.254 1.69112 137.405 1.81569Q137.557 1.94026 137.703 2.07213Q137.848 2.204 137.987 2.34285Q138.126 2.4817 138.258 2.6272Q138.39 2.7727 138.514 2.92449Q138.639 3.07628 138.756 3.234Q138.873 3.39172 138.982 3.55499Q139.091 3.71826 139.192 3.88669Q139.293 4.05512 139.385 4.2283Q139.478 4.40148 139.562 4.57899Q139.646 4.7565 139.721 4.93791Q139.796 5.11933 139.862 5.30422Q139.928 5.4891 139.985 5.67701Q140.042 5.86492 140.09 6.0554Q140.138 6.24588 140.176 6.43847Q140.214 6.63106 140.243 6.8253Q140.272 7.01954 140.291 7.21496Q140.311 7.41038 140.32 7.60651Q140.33 7.80264 140.33 7.999L140.33 161.482Q140.33 161.678 140.32 161.874Q140.311 162.071 140.291 162.266Q140.272 162.461 140.243 162.656Q140.214 162.85 140.176 163.042Q140.138 163.235 140.09 163.426Q140.042 163.616 139.985 163.804Q139.928 163.992 139.862 164.177Q139.796 164.362 139.721 164.543Q139.646 164.724 139.562 164.902Q139.478 165.079 139.385 165.253Q139.293 165.426 139.192 165.594Q139.091 165.763 138.982 165.926Q138.873 166.089 138.756 166.247Q138.639 166.405 138.514 166.556Q138.39 166.708 138.258 166.854Q138.126 166.999 137.987 167.138Q137.848 167.277 137.703 167.409Q137.557 167.541 137.405 167.665Q137.254 167.79 137.096 167.907Q136.938 168.024 136.775 168.133Q136.612 168.242 136.443 168.343Q136.275 168.444 136.102 168.536Q135.928 168.629 135.751 168.713Q135.573 168.797 135.392 168.872Q135.211 168.947 135.026 169.013Q134.841 169.08 134.653 169.137Q134.465 169.194 134.274 169.241Q134.084 169.289 133.891 169.327Q133.699 169.366 133.505 169.394Q133.31 169.423 133.115 169.442Q132.919 169.462 132.723 169.471Q132.527 169.481 132.331 169.481L7.999 169.481Q7.80264 169.481 7.60651 169.471Q7.41038 169.462 7.21496 169.442Q7.01954 169.423 6.8253 169.394Q6.63106 169.366 6.43847 169.327Q6.24588 169.289 6.0554 169.241Q5.86492 169.194 5.67701 169.137Q5.4891 169.08 5.30422 169.013Q5.11933 168.947 4.93791 168.872Q4.7565 168.797 4.57899 168.713Q4.40148 168.629 4.2283 168.536Q4.05512 168.444 3.88669 168.343Q3.71826 168.242 3.55499 168.133Q3.39172 168.024 3.234 167.907Q3.07628 167.79 2.92449 167.665Q2.7727 167.541 2.6272 167.409Q2.4817 167.277 2.34285 167.138Q2.204 166.999 2.07213 166.854Q1.94026 166.708 1.81569 166.556Q1.69112 166.405 1.57414 166.247Q1.45717 166.089 1.34807 165.926Q1.23898 165.763 1.13803 165.594Q1.03708 165.426 0.944512 165.253Q0.851946 165.079 0.76799 164.902Q0.684033 164.724 0.608888 164.543Q0.533742 164.362 0.467589 164.177Q0.401436 163.992 0.344434 163.804Q0.287433 163.616 0.23972 163.426Q0.192007 163.235 0.153699 163.042Q0.11539 162.85 0.0865771 162.656Q0.0577644 162.461 0.0385174 162.266Q0.0192703 162.071 0.00963514 161.874Q0 161.678 0 161.482L0 7.999Q0 7.80264 0.00963514 7.60651Q0.0192703 7.41038 0.0385174 7.21496Q0.0577644 7.01954 0.0865771 6.8253Q0.11539 6.63106 0.153699 6.43847Q0.192007 6.24588 0.23972 6.0554Q0.287433 5.86492 0.344434 5.67701Q0.401436 5.4891 0.467589 5.30422Q0.533742 5.11933 0.608888 4.93791Q0.684033 4.7565 0.76799 4.57899Q0.851946 4.40148 0.944512 4.2283Q1.03708 4.05512 1.13803 3.88669Q1.23898 3.71826 1.34807 3.55499Q1.45717 3.39172 1.57414 3.234Q1.69112 3.07628 1.81569 2.92449Q1.94026 2.7727 2.07213 2.6272Q2.204 2.4817 2.34285 2.34285Q2.4817 2.204 2.6272 2.07213Q2.7727 1.94026 2.92449 1.81569Q3.07628 1.69112 3.234 1.57414Q3.39172 1.45717 3.55499 1.34807Q3.71826 1.23898 3.88669 1.13803Q4.05512 1.03708 4.2283 0.944512Q4.40148 0.851946 4.57899 0.76799Q4.7565 0.684033 4.93791 0.608888Q5.11933 0.533742 5.30422 0.467589Q5.4891 0.401436 5.67701 0.344434Q5.86492 0.287433 6.0554 0.23972Q6.24588 0.192007 6.43847 0.153699Q6.63106 0.11539 6.8253 0.0865771Q7.01954 0.0577644 7.21496 0.0385174Q7.41038 0.0192703 7.60651 0.00963514Q7.80264 0 7.999 0L7.999 0Z" id="Rectangle" fill="#FFFFFF" stroke="none" />
              <path d="M7.999 0L60.8218 0Q61.0181 0 61.2143 0.00963514Q61.4104 0.0192703 61.6058 0.0385174Q61.8012 0.0577644 61.9955 0.0865771Q62.1897 0.11539 62.3823 0.153699Q62.5749 0.192007 62.7654 0.23972Q62.9558 0.287433 63.1437 0.344434Q63.3317 0.401436 63.5165 0.467589Q63.7014 0.533742 63.8828 0.608888Q64.0643 0.684033 64.2418 0.76799Q64.4193 0.851946 64.5925 0.944512Q64.7656 1.03708 64.9341 1.13803Q65.1025 1.23898 65.2658 1.34807Q65.429 1.45717 65.5868 1.57414Q65.7445 1.69112 65.8963 1.81569Q66.0481 1.94026 66.1936 2.07213Q66.3391 2.204 66.4779 2.34285Q66.6168 2.4817 66.7486 2.6272Q66.8805 2.7727 67.0051 2.92449Q67.1296 3.07628 67.2466 3.234Q67.3636 3.39172 67.4727 3.55499Q67.5818 3.71826 67.6827 3.88669Q67.7837 4.05512 67.8763 4.2283Q67.9688 4.40148 68.0528 4.57899Q68.1367 4.7565 68.2119 4.93791Q68.287 5.11933 68.3532 5.30422Q68.4193 5.4891 68.4763 5.67701Q68.5333 5.86492 68.5811 6.0554Q68.6288 6.24588 68.6671 6.43847Q68.7054 6.63106 68.7342 6.8253Q68.763 7.01954 68.7823 7.21496Q68.8015 7.41038 68.8111 7.60651Q68.8208 7.80264 68.8208 7.999L68.8208 161.482Q68.8208 161.678 68.8111 161.874Q68.8015 162.071 68.7823 162.266Q68.763 162.461 68.7342 162.656Q68.7054 162.85 68.6671 163.042Q68.6288 163.235 68.5811 163.426Q68.5333 163.616 68.4763 163.804Q68.4193 163.992 68.3532 164.177Q68.287 164.362 68.2119 164.543Q68.1367 164.724 68.0528 164.902Q67.9688 165.079 67.8763 165.253Q67.7837 165.426 67.6827 165.594Q67.5818 165.763 67.4727 165.926Q67.3636 166.089 67.2466 166.247Q67.1296 166.405 67.0051 166.556Q66.8805 166.708 66.7486 166.854Q66.6168 166.999 66.4779 167.138Q66.3391 167.277 66.1936 167.409Q66.0481 167.541 65.8963 167.665Q65.7445 167.79 65.5868 167.907Q65.429 168.024 65.2658 168.133Q65.1025 168.242 64.9341 168.343Q64.7656 168.444 64.5925 168.536Q64.4193 168.629 64.2418 168.713Q64.0643 168.797 63.8828 168.872Q63.7014 168.947 63.5165 169.013Q63.3317 169.08 63.1438 169.137Q62.9558 169.194 62.7654 169.241Q62.5749 169.289 62.3823 169.327Q62.1897 169.366 61.9955 169.394Q61.8012 169.423 61.6058 169.442Q61.4104 169.462 61.2143 169.471Q61.0181 169.481 60.8218 169.481L7.999 169.481Q7.80264 169.481 7.60651 169.471Q7.41038 169.462 7.21496 169.442Q7.01954 169.423 6.8253 169.394Q6.63106 169.366 6.43847 169.327Q6.24588 169.289 6.0554 169.241Q5.86492 169.194 5.67701 169.137Q5.4891 169.08 5.30422 169.013Q5.11933 168.947 4.93791 168.872Q4.7565 168.797 4.57899 168.713Q4.40148 168.629 4.2283 168.536Q4.05512 168.444 3.88669 168.343Q3.71826 168.242 3.55499 168.133Q3.39172 168.024 3.234 167.907Q3.07628 167.79 2.92449 167.665Q2.7727 167.541 2.6272 167.409Q2.4817 167.277 2.34285 167.138Q2.204 166.999 2.07213 166.854Q1.94026 166.708 1.81569 166.556Q1.69112 166.405 1.57414 166.247Q1.45717 166.089 1.34807 165.926Q1.23898 165.763 1.13803 165.594Q1.03708 165.426 0.944512 165.253Q0.851946 165.079 0.76799 164.902Q0.684033 164.724 0.608888 164.543Q0.533742 164.362 0.467589 164.177Q0.401436 163.992 0.344434 163.804Q0.287433 163.616 0.23972 163.426Q0.192007 163.235 0.153699 163.042Q0.11539 162.85 0.0865771 162.656Q0.0577644 162.461 0.0385174 162.266Q0.0192703 162.071 0.00963514 161.874Q0 161.678 0 161.482L0 7.999Q0 7.80264 0.00963514 7.60651Q0.0192703 7.41038 0.0385174 7.21496Q0.0577644 7.01954 0.0865771 6.8253Q0.11539 6.63106 0.153699 6.43847Q0.192007 6.24588 0.23972 6.0554Q0.287433 5.86492 0.344434 5.67701Q0.401436 5.4891 0.467589 5.30422Q0.533742 5.11933 0.608888 4.93791Q0.684033 4.7565 0.76799 4.57899Q0.851946 4.40148 0.944512 4.2283Q1.03708 4.05512 1.13803 3.88669Q1.23898 3.71826 1.34807 3.55499Q1.45717 3.39172 1.57414 3.234Q1.69112 3.07628 1.81569 2.92449Q1.94026 2.7727 2.07213 2.6272Q2.204 2.4817 2.34285 2.34285Q2.4817 2.204 2.6272 2.07213Q2.7727 1.94026 2.92449 1.81569Q3.07628 1.69112 3.234 1.57414Q3.39172 1.45717 3.55499 1.34807Q3.71826 1.23898 3.88669 1.13803Q4.05512 1.03708 4.2283 0.944512Q4.40148 0.851946 4.57899 0.76799Q4.7565 0.684033 4.93791 0.608888Q5.11933 0.533742 5.30422 0.467589Q5.4891 0.401436 5.67701 0.344434Q5.86492 0.287433 6.0554 0.23972Q6.24588 0.192007 6.43847 0.153699Q6.63106 0.11539 6.8253 0.0865771Q7.01954 0.0577644 7.21496 0.0385174Q7.41038 0.0192703 7.60651 0.00963514Q7.80264 0 7.999 0L7.999 0Z" transform="translate(158.6104 0)" id="Rectangle-Copy-7" fill="#FFFFFF" stroke="none" />
              <path d="M1.608 0L62.9115 0Q62.9905 0 63.0691 0.00774294Q63.1477 0.0154859 63.2252 0.0308972Q63.3027 0.0463085 63.3783 0.0692398Q63.4539 0.092171 63.5268 0.122401Q63.5998 0.152632 63.6695 0.18987Q63.7392 0.227109 63.8048 0.270996Q63.8705 0.314884 63.9316 0.364998Q63.9927 0.415113 64.0485 0.470971Q64.1044 0.52683 64.1545 0.587894Q64.2046 0.648959 64.2485 0.714641Q64.2924 0.780324 64.3296 0.849992Q64.3668 0.91966 64.3971 0.992643Q64.4273 1.06563 64.4502 1.14122Q64.4732 1.21681 64.4886 1.29429Q64.504 1.37177 64.5117 1.45039Q64.5195 1.529 64.5195 1.608L64.5195 1.61Q64.5195 1.68899 64.5117 1.76761Q64.504 1.84622 64.4886 1.9237Q64.4732 2.00118 64.4502 2.07677Q64.4273 2.15237 64.3971 2.22535Q64.3668 2.29833 64.3296 2.368Q64.2924 2.43767 64.2485 2.50335Q64.2046 2.56903 64.1545 2.6301Q64.1044 2.69116 64.0485 2.74702Q63.9927 2.80288 63.9316 2.85299Q63.8705 2.90311 63.8048 2.947Q63.7392 2.99088 63.6695 3.02812Q63.5998 3.06536 63.5268 3.09559Q63.4538 3.12582 63.3783 3.14875Q63.3027 3.17168 63.2252 3.1871Q63.1477 3.20251 63.0691 3.21025Q62.9905 3.21799 62.9115 3.21799L1.608 3.21799Q1.529 3.21799 1.45039 3.21025Q1.37177 3.20251 1.29429 3.1871Q1.21681 3.17168 1.14122 3.14875Q1.06563 3.12582 0.992643 3.09559Q0.91966 3.06536 0.849992 3.02812Q0.780324 2.99088 0.714641 2.947Q0.648959 2.90311 0.587894 2.85299Q0.52683 2.80288 0.470971 2.74702Q0.415113 2.69116 0.364998 2.6301Q0.314884 2.56903 0.270996 2.50335Q0.227109 2.43767 0.18987 2.368Q0.152632 2.29833 0.122401 2.22535Q0.092171 2.15237 0.0692398 2.07677Q0.0463085 2.00118 0.0308972 1.9237Q0.0154859 1.84622 0.00774294 1.76761Q0 1.68899 0 1.61L0 1.608Q0 1.529 0.00774294 1.45039Q0.0154859 1.37177 0.0308972 1.29429Q0.0463085 1.21681 0.0692398 1.14122Q0.092171 1.06563 0.122401 0.992643Q0.152632 0.91966 0.18987 0.849992Q0.227109 0.780324 0.270996 0.714641Q0.314884 0.648959 0.364998 0.587894Q0.415113 0.52683 0.470971 0.470971Q0.52683 0.415113 0.587894 0.364998Q0.648959 0.314884 0.714641 0.270996Q0.780324 0.227109 0.849992 0.18987Q0.91966 0.152632 0.992643 0.122401Q1.06563 0.092171 1.14122 0.0692398Q1.21681 0.0463085 1.29429 0.0308972Q1.37177 0.0154859 1.45039 0.00774294Q1.529 0 1.608 0L1.608 0Z" transform="translate(42.19013 20.48632)" id="Rectangle" fill="#242A45" fill-opacity="0.5" stroke="none" />
            </g>
          </g>
        </g>
      </g>
    </g>
    <g id="Group-29" transform="translate(60 72)">
      <path d="M8.60215 17.1429C13.353 17.1429 17.2043 13.3053 17.2043 8.57143C17.2043 3.83756 13.353 0 8.60215 0C3.85131 0 0 3.83756 0 8.57143C0 13.3053 3.85131 17.1429 8.60215 17.1429Z" transform="translate(0 5.357143)" id="Oval" fill="#F98E5D" stroke="none" />
      <path d="M1.60614 0L45.7057 0Q45.7846 0 45.8631 0.00773402Q45.9416 0.015468 46.019 0.0308616Q46.0964 0.0462551 46.1719 0.06916Q46.2474 0.0920648 46.3203 0.12226Q46.3932 0.152456 46.4628 0.189651Q46.5324 0.226847 46.598 0.270684Q46.6636 0.314521 46.7246 0.364578Q46.7856 0.414634 46.8414 0.470428Q46.8972 0.526222 46.9472 0.587216Q46.9973 0.648211 47.0411 0.713818Q47.085 0.779424 47.1222 0.849012Q47.1594 0.9186 47.1896 0.991498Q47.2198 1.0644 47.2427 1.1399Q47.2656 1.21541 47.281 1.2928Q47.2964 1.37019 47.3041 1.44871Q47.3118 1.52724 47.3118 1.60614L47.3118 1.60814Q47.3118 1.68705 47.3041 1.76557Q47.2964 1.8441 47.281 1.92149Q47.2656 1.99887 47.2427 2.07438Q47.2198 2.14989 47.1896 2.22279Q47.1594 2.29569 47.1222 2.36527Q47.085 2.43486 47.0411 2.50047Q46.9973 2.56607 46.9472 2.62707Q46.8972 2.68806 46.8414 2.74386Q46.7856 2.79965 46.7246 2.84971Q46.6636 2.89976 46.598 2.9436Q46.5324 2.98744 46.4628 3.02463Q46.3932 3.06183 46.3203 3.09203Q46.2474 3.12222 46.1719 3.14513Q46.0964 3.16803 46.019 3.18342Q45.9416 3.19882 45.8631 3.20655Q45.7846 3.21429 45.7057 3.21429L1.60614 3.21429Q1.52724 3.21429 1.44871 3.20655Q1.37019 3.19882 1.2928 3.18342Q1.21541 3.16803 1.1399 3.14513Q1.0644 3.12222 0.991498 3.09203Q0.9186 3.06183 0.849012 3.02463Q0.779424 2.98744 0.713818 2.9436Q0.648211 2.89976 0.587216 2.84971Q0.526222 2.79965 0.470428 2.74386Q0.414634 2.68806 0.364578 2.62707Q0.314521 2.56607 0.270684 2.50047Q0.226847 2.43486 0.189651 2.36527Q0.152456 2.29569 0.12226 2.22279Q0.0920648 2.14989 0.06916 2.07438Q0.0462551 1.99887 0.0308616 1.92149Q0.015468 1.8441 0.00773402 1.76557Q0 1.68705 0 1.60814L0 1.60614Q0 1.52724 0.00773402 1.44871Q0.015468 1.37019 0.0308616 1.2928Q0.0462551 1.21541 0.06916 1.1399Q0.0920648 1.0644 0.12226 0.991498Q0.152456 0.9186 0.189651 0.849012Q0.226847 0.779424 0.270684 0.713818Q0.314521 0.648211 0.364578 0.587216Q0.414634 0.526222 0.470428 0.470428Q0.526222 0.414634 0.587216 0.364578Q0.648211 0.314521 0.713818 0.270684Q0.779424 0.226847 0.849012 0.189651Q0.9186 0.152456 0.991498 0.12226Q1.0644 0.0920648 1.1399 0.06916Q1.21541 0.0462551 1.2928 0.0308616Q1.37019 0.015468 1.44871 0.00773402Q1.52724 0 1.60614 0L1.60614 0Z" transform="translate(152.6882 0)" id="Rectangle" fill="#242A45" fill-opacity="0.25" stroke="none" />
      <path d="M1.60614 0L45.7057 0Q45.7846 0 45.8631 0.00773402Q45.9416 0.015468 46.019 0.0308616Q46.0964 0.0462551 46.1719 0.06916Q46.2474 0.0920648 46.3203 0.12226Q46.3932 0.152456 46.4628 0.189651Q46.5324 0.226847 46.598 0.270684Q46.6636 0.314521 46.7246 0.364578Q46.7856 0.414634 46.8414 0.470428Q46.8972 0.526222 46.9472 0.587217Q46.9973 0.648211 47.0411 0.713818Q47.085 0.779425 47.1222 0.849012Q47.1594 0.9186 47.1896 0.991499Q47.2198 1.0644 47.2427 1.1399Q47.2656 1.21541 47.281 1.2928Q47.2964 1.37019 47.3041 1.44871Q47.3118 1.52724 47.3118 1.60614L47.3118 1.60814Q47.3118 1.68705 47.3041 1.76557Q47.2964 1.8441 47.281 1.92149Q47.2656 1.99887 47.2427 2.07438Q47.2198 2.14989 47.1896 2.22279Q47.1594 2.29569 47.1222 2.36527Q47.085 2.43486 47.0411 2.50047Q46.9973 2.56607 46.9472 2.62707Q46.8972 2.68806 46.8414 2.74386Q46.7856 2.79965 46.7246 2.84971Q46.6636 2.89977 46.598 2.9436Q46.5324 2.98744 46.4628 3.02463Q46.3932 3.06183 46.3203 3.09203Q46.2474 3.12222 46.1719 3.14513Q46.0964 3.16803 46.019 3.18342Q45.9416 3.19882 45.8631 3.20655Q45.7846 3.21429 45.7057 3.21429L1.60614 3.21429Q1.52724 3.21429 1.44871 3.20655Q1.37019 3.19882 1.2928 3.18342Q1.21541 3.16803 1.1399 3.14513Q1.0644 3.12222 0.991498 3.09203Q0.9186 3.06183 0.849012 3.02463Q0.779424 2.98744 0.713818 2.9436Q0.648211 2.89977 0.587216 2.84971Q0.526222 2.79965 0.470428 2.74386Q0.414634 2.68806 0.364578 2.62707Q0.314521 2.56607 0.270684 2.50047Q0.226847 2.43486 0.189651 2.36527Q0.152456 2.29569 0.12226 2.22279Q0.0920648 2.14989 0.06916 2.07438Q0.0462551 1.99887 0.0308616 1.92149Q0.015468 1.8441 0.00773402 1.76557Q0 1.68705 0 1.60814L0 1.60614Q0 1.52724 0.00773402 1.44871Q0.015468 1.37019 0.0308616 1.2928Q0.0462551 1.21541 0.06916 1.1399Q0.0920648 1.0644 0.12226 0.991498Q0.152456 0.9186 0.189651 0.849012Q0.226847 0.779424 0.270684 0.713818Q0.314521 0.648211 0.364578 0.587216Q0.414634 0.526222 0.470428 0.470428Q0.526222 0.414634 0.587217 0.364578Q0.648211 0.314521 0.713818 0.270684Q0.779425 0.226847 0.849012 0.189651Q0.9186 0.152456 0.991499 0.12226Q1.0644 0.0920648 1.1399 0.06916Q1.21541 0.0462551 1.2928 0.0308616Q1.37019 0.015468 1.44871 0.00773402Q1.52724 0 1.60614 0L1.60614 0Z" transform="translate(152.6882 10.71429)" id="Rectangle-Copy-8" fill="#242A45" fill-opacity="0.25" stroke="none" />
      <path d="M1.60614 0L45.7057 0Q45.7846 0 45.8631 0.00773401Q45.9416 0.015468 46.019 0.0308616Q46.0964 0.0462551 46.1719 0.0691599Q46.2474 0.0920648 46.3203 0.12226Q46.3932 0.152456 46.4628 0.189651Q46.5324 0.226847 46.598 0.270684Q46.6636 0.314521 46.7246 0.364578Q46.7856 0.414634 46.8414 0.470428Q46.8972 0.526222 46.9472 0.587216Q46.9973 0.648211 47.0411 0.713817Q47.085 0.779424 47.1222 0.849012Q47.1594 0.9186 47.1896 0.991498Q47.2198 1.0644 47.2427 1.1399Q47.2656 1.21541 47.281 1.2928Q47.2964 1.37019 47.3041 1.44871Q47.3118 1.52724 47.3118 1.60614L47.3118 1.60814Q47.3118 1.68705 47.3041 1.76557Q47.2964 1.8441 47.281 1.92149Q47.2656 1.99887 47.2427 2.07438Q47.2198 2.14989 47.1896 2.22279Q47.1594 2.29568 47.1222 2.36527Q47.085 2.43486 47.0411 2.50047Q46.9973 2.56607 46.9472 2.62707Q46.8972 2.68806 46.8414 2.74386Q46.7856 2.79965 46.7246 2.84971Q46.6636 2.89976 46.598 2.9436Q46.5324 2.98744 46.4628 3.02463Q46.3932 3.06183 46.3203 3.09202Q46.2474 3.12222 46.1719 3.14512Q46.0964 3.16803 46.019 3.18342Q45.9416 3.19882 45.8631 3.20655Q45.7846 3.21428 45.7057 3.21428L1.60614 3.21428Q1.52724 3.21428 1.44871 3.20655Q1.37019 3.19882 1.2928 3.18342Q1.21541 3.16803 1.1399 3.14512Q1.0644 3.12222 0.991498 3.09202Q0.9186 3.06183 0.849012 3.02463Q0.779424 2.98744 0.713817 2.9436Q0.648211 2.89976 0.587216 2.84971Q0.526222 2.79965 0.470428 2.74386Q0.414634 2.68806 0.364578 2.62707Q0.314521 2.56607 0.270684 2.50047Q0.226847 2.43486 0.189651 2.36527Q0.152456 2.29568 0.12226 2.22279Q0.0920648 2.14989 0.0691599 2.07438Q0.0462551 1.99887 0.0308616 1.92149Q0.015468 1.8441 0.00773401 1.76557Q0 1.68705 0 1.60814L0 1.60614Q0 1.52724 0.00773401 1.44871Q0.015468 1.37019 0.0308616 1.2928Q0.0462551 1.21541 0.0691599 1.1399Q0.0920648 1.0644 0.12226 0.991498Q0.152456 0.9186 0.189651 0.849012Q0.226847 0.779424 0.270684 0.713817Q0.314521 0.648211 0.364578 0.587216Q0.414634 0.526222 0.470428 0.470428Q0.526222 0.414634 0.587216 0.364578Q0.648211 0.314521 0.713817 0.270684Q0.779424 0.226847 0.849012 0.189651Q0.9186 0.152456 0.991498 0.12226Q1.0644 0.0920648 1.1399 0.0691599Q1.21541 0.0462551 1.2928 0.0308616Q1.37019 0.015468 1.44871 0.00773401Q1.52724 0 1.60614 0L1.60614 0Z" transform="translate(152.6882 21.42857)" id="Rectangle-Copy-9" fill="#242A45" fill-opacity="0.25" stroke="none" />
      <path d="M1.60614 0L45.7057 0Q45.7846 0 45.8631 0.00773402Q45.9416 0.015468 46.019 0.0308616Q46.0964 0.0462551 46.1719 0.06916Q46.2474 0.0920648 46.3203 0.12226Q46.3932 0.152456 46.4628 0.189651Q46.5324 0.226847 46.598 0.270684Q46.6636 0.314521 46.7246 0.364578Q46.7856 0.414634 46.8414 0.470428Q46.8972 0.526223 46.9472 0.587217Q46.9973 0.648211 47.0411 0.713818Q47.085 0.779425 47.1222 0.849012Q47.1594 0.9186 47.1896 0.991499Q47.2198 1.0644 47.2427 1.1399Q47.2656 1.21541 47.281 1.2928Q47.2964 1.37019 47.3041 1.44871Q47.3118 1.52724 47.3118 1.60614L47.3118 1.60814Q47.3118 1.68705 47.3041 1.76557Q47.2964 1.8441 47.281 1.92149Q47.2656 1.99888 47.2427 2.07438Q47.2198 2.14989 47.1896 2.22279Q47.1594 2.29569 47.1222 2.36527Q47.085 2.43486 47.0411 2.50047Q46.9973 2.56608 46.9472 2.62707Q46.8972 2.68806 46.8414 2.74386Q46.7856 2.79965 46.7246 2.84971Q46.6636 2.89977 46.598 2.9436Q46.5324 2.98744 46.4628 3.02464Q46.3932 3.06183 46.3203 3.09203Q46.2474 3.12222 46.1719 3.14513Q46.0964 3.16803 46.019 3.18342Q45.9416 3.19882 45.8631 3.20655Q45.7846 3.21429 45.7057 3.21429L1.60614 3.21429Q1.52724 3.21429 1.44871 3.20655Q1.37019 3.19882 1.2928 3.18342Q1.21541 3.16803 1.1399 3.14513Q1.0644 3.12222 0.991499 3.09203Q0.9186 3.06183 0.849013 3.02464Q0.779425 2.98744 0.713818 2.9436Q0.648211 2.89977 0.587217 2.84971Q0.526223 2.79965 0.470428 2.74386Q0.414634 2.68806 0.364578 2.62707Q0.314521 2.56608 0.270684 2.50047Q0.226847 2.43486 0.189651 2.36527Q0.152456 2.29569 0.12226 2.22279Q0.0920648 2.14989 0.06916 2.07438Q0.0462551 1.99888 0.0308616 1.92149Q0.015468 1.8441 0.00773402 1.76557Q0 1.68705 0 1.60814L0 1.60614Q0 1.52724 0.00773402 1.44871Q0.015468 1.37019 0.0308616 1.2928Q0.0462551 1.21541 0.06916 1.1399Q0.0920648 1.0644 0.12226 0.991499Q0.152456 0.9186 0.189651 0.849013Q0.226847 0.779425 0.270684 0.713818Q0.314521 0.648211 0.364578 0.587217Q0.414634 0.526223 0.470428 0.470428Q0.526223 0.414634 0.587217 0.364578Q0.648211 0.314521 0.713818 0.270684Q0.779425 0.226847 0.849013 0.189651Q0.9186 0.152456 0.991499 0.12226Q1.0644 0.0920648 1.1399 0.06916Q1.21541 0.0462551 1.2928 0.0308616Q1.37019 0.015468 1.44871 0.00773402Q1.52724 0 1.60614 0L1.60614 0Z" transform="translate(152.6882 32.14286)" id="Rectangle-Copy-10" fill="#242A45" fill-opacity="0.25" stroke="none" />
      <path d="M1.60614 0L45.7057 0Q45.7846 0 45.8631 0.00773402Q45.9416 0.015468 46.019 0.0308616Q46.0964 0.0462551 46.1719 0.06916Q46.2474 0.0920648 46.3203 0.12226Q46.3932 0.152456 46.4628 0.189651Q46.5324 0.226847 46.598 0.270684Q46.6636 0.314521 46.7246 0.364578Q46.7856 0.414634 46.8414 0.470428Q46.8972 0.526223 46.9472 0.587217Q46.9973 0.648211 47.0411 0.713818Q47.085 0.779425 47.1222 0.849012Q47.1594 0.9186 47.1896 0.991499Q47.2198 1.0644 47.2427 1.1399Q47.2656 1.21541 47.281 1.2928Q47.2964 1.37019 47.3041 1.44871Q47.3118 1.52724 47.3118 1.60614L47.3118 1.60814Q47.3118 1.68705 47.3041 1.76557Q47.2964 1.8441 47.281 1.92149Q47.2656 1.99888 47.2427 2.07438Q47.2198 2.14989 47.1896 2.22279Q47.1594 2.29569 47.1222 2.36527Q47.085 2.43486 47.0411 2.50047Q46.9973 2.56608 46.9472 2.62707Q46.8972 2.68806 46.8414 2.74386Q46.7856 2.79965 46.7246 2.84971Q46.6636 2.89977 46.598 2.9436Q46.5324 2.98744 46.4628 3.02464Q46.3932 3.06183 46.3203 3.09203Q46.2474 3.12222 46.1719 3.14513Q46.0964 3.16803 46.019 3.18342Q45.9416 3.19882 45.8631 3.20655Q45.7846 3.21429 45.7057 3.21429L1.60614 3.21429Q1.52724 3.21429 1.44871 3.20655Q1.37019 3.19882 1.2928 3.18342Q1.21541 3.16803 1.1399 3.14513Q1.0644 3.12222 0.991499 3.09203Q0.9186 3.06183 0.849013 3.02464Q0.779425 2.98744 0.713818 2.9436Q0.648211 2.89977 0.587217 2.84971Q0.526223 2.79965 0.470428 2.74386Q0.414634 2.68806 0.364578 2.62707Q0.314521 2.56608 0.270684 2.50047Q0.226847 2.43486 0.189651 2.36527Q0.152456 2.29569 0.12226 2.22279Q0.0920648 2.14989 0.06916 2.07438Q0.0462551 1.99888 0.0308616 1.92149Q0.015468 1.8441 0.00773402 1.76557Q0 1.68705 0 1.60814L0 1.60614Q0 1.52724 0.00773402 1.44871Q0.015468 1.37019 0.0308616 1.2928Q0.0462551 1.21541 0.06916 1.1399Q0.0920648 1.0644 0.12226 0.991499Q0.152456 0.9186 0.189651 0.849013Q0.226847 0.779425 0.270684 0.713818Q0.314521 0.648211 0.364578 0.587217Q0.414634 0.526223 0.470428 0.470428Q0.526223 0.414634 0.587217 0.364578Q0.648211 0.314521 0.713818 0.270684Q0.779425 0.226847 0.849013 0.189651Q0.9186 0.152456 0.991499 0.12226Q1.0644 0.0920648 1.1399 0.06916Q1.21541 0.0462551 1.2928 0.0308616Q1.37019 0.015468 1.44871 0.00773402Q1.52724 0 1.60614 0L1.60614 0Z" transform="translate(152.6882 50.35714)" id="Rectangle-Copy-11" fill="#242A45" fill-opacity="0.25" stroke="none" />
      <path d="M1.60614 0L45.7057 0Q45.7846 0 45.8631 0.00773401Q45.9416 0.015468 46.019 0.0308616Q46.0964 0.0462551 46.1719 0.0691599Q46.2474 0.0920647 46.3203 0.12226Q46.3932 0.152456 46.4628 0.189651Q46.5324 0.226847 46.598 0.270684Q46.6636 0.314521 46.7246 0.364577Q46.7856 0.414634 46.8414 0.470428Q46.8972 0.526222 46.9472 0.587216Q46.9973 0.64821 47.0411 0.713817Q47.085 0.779424 47.1222 0.849011Q47.1594 0.918599 47.1896 0.991498Q47.2198 1.0644 47.2427 1.1399Q47.2656 1.21541 47.281 1.2928Q47.2964 1.37019 47.3041 1.44871Q47.3118 1.52724 47.3118 1.60614L47.3118 1.60814Q47.3118 1.68705 47.3041 1.76557Q47.2964 1.8441 47.281 1.92148Q47.2656 1.99887 47.2427 2.07438Q47.2198 2.14989 47.1896 2.22278Q47.1594 2.29568 47.1222 2.36527Q47.085 2.43486 47.0411 2.50047Q46.9973 2.56607 46.9472 2.62707Q46.8972 2.68806 46.8414 2.74385Q46.7856 2.79965 46.7246 2.84971Q46.6636 2.89976 46.598 2.9436Q46.5324 2.98744 46.4628 3.02463Q46.3932 3.06183 46.3203 3.09202Q46.2474 3.12222 46.1719 3.14512Q46.0964 3.16803 46.019 3.18342Q45.9416 3.19881 45.8631 3.20655Q45.7846 3.21428 45.7057 3.21428L1.60614 3.21428Q1.52724 3.21428 1.44871 3.20655Q1.37019 3.19881 1.2928 3.18342Q1.21541 3.16803 1.1399 3.14512Q1.0644 3.12222 0.991498 3.09202Q0.918599 3.06183 0.849012 3.02463Q0.779424 2.98744 0.713817 2.9436Q0.64821 2.89976 0.587216 2.84971Q0.526222 2.79965 0.470428 2.74385Q0.414634 2.68806 0.364577 2.62707Q0.314521 2.56607 0.270684 2.50047Q0.226847 2.43486 0.189651 2.36527Q0.152456 2.29568 0.12226 2.22278Q0.0920647 2.14989 0.0691599 2.07438Q0.0462551 1.99887 0.0308616 1.92148Q0.015468 1.8441 0.00773401 1.76557Q0 1.68705 0 1.60814L0 1.60614Q0 1.52724 0.00773401 1.44871Q0.015468 1.37019 0.0308616 1.2928Q0.0462551 1.21541 0.0691599 1.1399Q0.0920647 1.0644 0.12226 0.991498Q0.152456 0.918599 0.189651 0.849012Q0.226847 0.779424 0.270684 0.713817Q0.314521 0.64821 0.364577 0.587216Q0.414634 0.526222 0.470428 0.470428Q0.526222 0.414634 0.587216 0.364577Q0.64821 0.314521 0.713817 0.270684Q0.779424 0.226847 0.849011 0.189651Q0.918599 0.152456 0.991498 0.12226Q1.0644 0.0920647 1.1399 0.0691599Q1.21541 0.0462551 1.2928 0.0308616Q1.37019 0.015468 1.44871 0.00773401Q1.52724 0 1.60614 0L1.60614 0Z" transform="translate(152.6882 61.07143)" id="Rectangle-Copy-12" fill="#242A45" fill-opacity="0.25" stroke="none" />
      <path d="M1.60614 0L45.7057 0Q45.7846 0 45.8631 0.00773402Q45.9416 0.015468 46.019 0.0308616Q46.0964 0.0462551 46.1719 0.06916Q46.2474 0.0920648 46.3203 0.12226Q46.3932 0.152456 46.4628 0.189651Q46.5324 0.226847 46.598 0.270684Q46.6636 0.314521 46.7246 0.364578Q46.7856 0.414634 46.8414 0.470428Q46.8972 0.526223 46.9472 0.587217Q46.9973 0.648211 47.0411 0.713818Q47.085 0.779425 47.1222 0.849012Q47.1594 0.9186 47.1896 0.991499Q47.2198 1.0644 47.2427 1.1399Q47.2656 1.21541 47.281 1.2928Q47.2964 1.37019 47.3041 1.44871Q47.3118 1.52724 47.3118 1.60614L47.3118 1.60814Q47.3118 1.68705 47.3041 1.76557Q47.2964 1.8441 47.281 1.92149Q47.2656 1.99888 47.2427 2.07438Q47.2198 2.14989 47.1896 2.22279Q47.1594 2.29569 47.1222 2.36527Q47.085 2.43486 47.0411 2.50047Q46.9973 2.56608 46.9472 2.62707Q46.8972 2.68806 46.8414 2.74386Q46.7856 2.79965 46.7246 2.84971Q46.6636 2.89977 46.598 2.9436Q46.5324 2.98744 46.4628 3.02464Q46.3932 3.06183 46.3203 3.09203Q46.2474 3.12222 46.1719 3.14513Q46.0964 3.16803 46.019 3.18342Q45.9416 3.19882 45.8631 3.20655Q45.7846 3.21429 45.7057 3.21429L1.60614 3.21429Q1.52724 3.21429 1.44871 3.20655Q1.37019 3.19882 1.2928 3.18342Q1.21541 3.16803 1.1399 3.14513Q1.0644 3.12222 0.991499 3.09203Q0.9186 3.06183 0.849013 3.02464Q0.779425 2.98744 0.713818 2.9436Q0.648211 2.89977 0.587217 2.84971Q0.526223 2.79965 0.470428 2.74386Q0.414634 2.68806 0.364578 2.62707Q0.314521 2.56608 0.270684 2.50047Q0.226847 2.43486 0.189651 2.36527Q0.152456 2.29569 0.12226 2.22279Q0.0920648 2.14989 0.06916 2.07438Q0.0462551 1.99888 0.0308616 1.92149Q0.015468 1.8441 0.00773402 1.76557Q0 1.68705 0 1.60814L0 1.60614Q0 1.52724 0.00773402 1.44871Q0.015468 1.37019 0.0308616 1.2928Q0.0462551 1.21541 0.06916 1.1399Q0.0920648 1.0644 0.12226 0.991499Q0.152456 0.9186 0.189651 0.849013Q0.226847 0.779425 0.270684 0.713818Q0.314521 0.648211 0.364578 0.587217Q0.414634 0.526223 0.470428 0.470428Q0.526223 0.414634 0.587217 0.364578Q0.648211 0.314521 0.713818 0.270684Q0.779425 0.226847 0.849013 0.189651Q0.9186 0.152456 0.991499 0.12226Q1.0644 0.0920648 1.1399 0.06916Q1.21541 0.0462551 1.2928 0.0308616Q1.37019 0.015468 1.44871 0.00773402Q1.52724 0 1.60614 0L1.60614 0Z" transform="translate(152.6882 71.78571)" id="Rectangle-Copy-13" fill="#242A45" fill-opacity="0.25" stroke="none" />
      <path d="M1.60614 0L32.8025 0Q32.8814 0 32.9599 0.00773401Q33.0384 0.015468 33.1158 0.0308616Q33.1932 0.0462551 33.2687 0.0691599Q33.3442 0.0920648 33.4171 0.12226Q33.49 0.152456 33.5596 0.189651Q33.6292 0.226847 33.6948 0.270684Q33.7604 0.314521 33.8214 0.364578Q33.8824 0.414634 33.9382 0.470428Q33.994 0.526222 34.044 0.587216Q34.0941 0.648211 34.1379 0.713817Q34.1818 0.779424 34.2189 0.849012Q34.2561 0.9186 34.2863 0.991498Q34.3165 1.0644 34.3394 1.1399Q34.3623 1.21541 34.3777 1.2928Q34.3931 1.37019 34.4009 1.44871Q34.4086 1.52724 34.4086 1.60614L34.4086 1.60814Q34.4086 1.68705 34.4009 1.76557Q34.3931 1.8441 34.3777 1.92149Q34.3623 1.99887 34.3394 2.07438Q34.3165 2.14989 34.2863 2.22279Q34.2561 2.29568 34.2189 2.36527Q34.1818 2.43486 34.1379 2.50047Q34.0941 2.56607 34.044 2.62707Q33.994 2.68806 33.9382 2.74386Q33.8824 2.79965 33.8214 2.84971Q33.7604 2.89976 33.6948 2.9436Q33.6292 2.98744 33.5596 3.02463Q33.49 3.06183 33.4171 3.09202Q33.3442 3.12222 33.2687 3.14512Q33.1932 3.16803 33.1158 3.18342Q33.0384 3.19882 32.9599 3.20655Q32.8814 3.21428 32.8025 3.21428L1.60614 3.21428Q1.52724 3.21428 1.44871 3.20655Q1.37019 3.19882 1.2928 3.18342Q1.21541 3.16803 1.1399 3.14512Q1.0644 3.12222 0.991498 3.09202Q0.9186 3.06183 0.849012 3.02463Q0.779424 2.98744 0.713817 2.9436Q0.648211 2.89976 0.587216 2.84971Q0.526222 2.79965 0.470428 2.74386Q0.414634 2.68806 0.364578 2.62707Q0.314521 2.56607 0.270684 2.50047Q0.226847 2.43486 0.189651 2.36527Q0.152456 2.29568 0.12226 2.22279Q0.0920648 2.14989 0.0691599 2.07438Q0.0462551 1.99887 0.0308616 1.92149Q0.015468 1.8441 0.00773401 1.76557Q0 1.68705 0 1.60814L0 1.60614Q0 1.52724 0.00773401 1.44871Q0.015468 1.37019 0.0308616 1.2928Q0.0462551 1.21541 0.0691599 1.1399Q0.0920648 1.0644 0.12226 0.991498Q0.152456 0.9186 0.189651 0.849012Q0.226847 0.779424 0.270684 0.713817Q0.314521 0.648211 0.364578 0.587216Q0.414634 0.526222 0.470428 0.470428Q0.526222 0.414634 0.587216 0.364578Q0.648211 0.314521 0.713817 0.270684Q0.779424 0.226847 0.849012 0.189651Q0.9186 0.152456 0.991498 0.12226Q1.0644 0.0920648 1.1399 0.0691599Q1.21541 0.0462551 1.2928 0.0308616Q1.37019 0.015468 1.44871 0.00773401Q1.52724 0 1.60614 0L1.60614 0Z" transform="translate(25.26882 16.07143)" id="Rectangle-Copy-6" fill="#242A45" fill-opacity="0.25" stroke="none" />
    </g>
    <g id="Group-29-Copy" transform="translate(60 108)">
      <path d="M8.62275 17C13.385 17 17.2455 13.1944 17.2455 8.5C17.2455 3.80558 13.385 0 8.62275 0C3.86054 0 0 3.80558 0 8.5C0 13.1944 3.86054 17 8.62275 17Z" id="Oval" fill="#6AC6D6" stroke="none" />
      <path d="M1.59275 0L63.0779 0Q63.1562 0 63.234 0.00766953Q63.3119 0.0153391 63.3886 0.0306042Q63.4654 0.0458694 63.5402 0.0685833Q63.6151 0.0912971 63.6874 0.121241Q63.7597 0.151185 63.8287 0.18807Q63.8977 0.224955 63.9628 0.268427Q64.0278 0.311898 64.0883 0.361538Q64.1488 0.411177 64.2041 0.466506Q64.2595 0.521834 64.3091 0.58232Q64.3587 0.642806 64.4022 0.707865Q64.4457 0.772925 64.4826 0.841933Q64.5195 0.91094 64.5494 0.983231Q64.5793 1.05552 64.6021 1.1304Q64.6248 1.20528 64.64 1.28202Q64.6553 1.35876 64.663 1.43663Q64.6707 1.5145 64.6707 1.59275L64.6707 1.59475Q64.6707 1.673 64.663 1.75087Q64.6553 1.82874 64.64 1.90548Q64.6248 1.98222 64.6021 2.0571Q64.5793 2.13198 64.5494 2.20427Q64.5195 2.27656 64.4826 2.34557Q64.4457 2.41457 64.4022 2.47963Q64.3587 2.54469 64.3091 2.60518Q64.2595 2.66567 64.2041 2.72099Q64.1488 2.77632 64.0883 2.82596Q64.0278 2.8756 63.9628 2.91907Q63.8977 2.96254 63.8287 2.99943Q63.7597 3.03632 63.6874 3.06626Q63.6151 3.0962 63.5402 3.11892Q63.4654 3.14163 63.3886 3.1569Q63.3119 3.17216 63.234 3.17983Q63.1562 3.1875 63.0779 3.1875L1.59275 3.1875Q1.5145 3.1875 1.43663 3.17983Q1.35876 3.17216 1.28202 3.1569Q1.20528 3.14163 1.1304 3.11892Q1.05552 3.0962 0.983231 3.06626Q0.91094 3.03632 0.841933 2.99943Q0.772925 2.96254 0.707865 2.91907Q0.642806 2.8756 0.58232 2.82596Q0.521834 2.77632 0.466506 2.72099Q0.411177 2.66567 0.361538 2.60518Q0.311898 2.54469 0.268427 2.47963Q0.224955 2.41457 0.18807 2.34557Q0.151185 2.27656 0.121241 2.20427Q0.0912971 2.13198 0.0685833 2.0571Q0.0458694 1.98222 0.0306042 1.90548Q0.0153391 1.82874 0.00766953 1.75087Q0 1.673 0 1.59475L0 1.59275Q0 1.5145 0.00766953 1.43663Q0.0153391 1.35876 0.0306042 1.28202Q0.0458694 1.20528 0.0685833 1.1304Q0.0912971 1.05552 0.121241 0.983231Q0.151185 0.91094 0.18807 0.841933Q0.224955 0.772925 0.268427 0.707865Q0.311898 0.642806 0.361538 0.58232Q0.411177 0.521834 0.466506 0.466506Q0.521834 0.411177 0.58232 0.361538Q0.642806 0.311898 0.707865 0.268427Q0.772925 0.224955 0.841933 0.18807Q0.91094 0.151185 0.983231 0.121241Q1.05552 0.0912971 1.1304 0.0685833Q1.20528 0.0458694 1.28202 0.0306042Q1.35876 0.0153391 1.43663 0.00766953Q1.5145 0 1.59275 0L1.59275 0Z" transform="translate(25.32934 3.1875)" id="Rectangle" fill="#242A45" fill-opacity="0.5" stroke="none" />
      <path d="M1.59275 0L32.8983 0Q32.9765 0 33.0544 0.00766953Q33.1323 0.0153391 33.209 0.0306042Q33.2857 0.0458694 33.3606 0.0685833Q33.4355 0.0912971 33.5078 0.121241Q33.5801 0.151185 33.6491 0.18807Q33.7181 0.224955 33.7831 0.268427Q33.8482 0.311898 33.9087 0.361538Q33.9692 0.411177 34.0245 0.466506Q34.0798 0.521834 34.1295 0.58232Q34.1791 0.642806 34.2226 0.707865Q34.2661 0.772925 34.3029 0.841933Q34.3398 0.91094 34.3698 0.983231Q34.3997 1.05552 34.4224 1.1304Q34.4451 1.20528 34.4604 1.28202Q34.4757 1.35876 34.4833 1.43663Q34.491 1.5145 34.491 1.59275L34.491 1.59475Q34.491 1.673 34.4833 1.75087Q34.4757 1.82874 34.4604 1.90548Q34.4451 1.98222 34.4224 2.0571Q34.3997 2.13198 34.3698 2.20427Q34.3398 2.27656 34.3029 2.34557Q34.2661 2.41457 34.2226 2.47963Q34.1791 2.54469 34.1295 2.60518Q34.0798 2.66567 34.0245 2.72099Q33.9692 2.77632 33.9087 2.82596Q33.8482 2.8756 33.7831 2.91907Q33.7181 2.96254 33.6491 2.99943Q33.5801 3.03632 33.5078 3.06626Q33.4355 3.0962 33.3606 3.11892Q33.2857 3.14163 33.209 3.1569Q33.1323 3.17216 33.0544 3.17983Q32.9765 3.1875 32.8983 3.1875L1.59275 3.1875Q1.5145 3.1875 1.43663 3.17983Q1.35876 3.17216 1.28202 3.1569Q1.20528 3.14163 1.1304 3.11892Q1.05552 3.0962 0.983231 3.06626Q0.91094 3.03632 0.841933 2.99943Q0.772925 2.96254 0.707865 2.91907Q0.642806 2.8756 0.58232 2.82596Q0.521834 2.77632 0.466506 2.72099Q0.411177 2.66567 0.361538 2.60518Q0.311898 2.54469 0.268427 2.47963Q0.224955 2.41457 0.18807 2.34557Q0.151185 2.27656 0.121241 2.20427Q0.0912971 2.13198 0.0685833 2.0571Q0.0458694 1.98222 0.0306042 1.90548Q0.0153391 1.82874 0.00766953 1.75087Q0 1.673 0 1.59475L0 1.59275Q0 1.5145 0.00766953 1.43663Q0.0153391 1.35876 0.0306042 1.28202Q0.0458694 1.20528 0.0685833 1.1304Q0.0912971 1.05552 0.121241 0.983231Q0.151185 0.91094 0.18807 0.841933Q0.224955 0.772925 0.268427 0.707865Q0.311898 0.642806 0.361538 0.58232Q0.411177 0.521834 0.466506 0.466506Q0.521834 0.411177 0.58232 0.361538Q0.642806 0.311898 0.707865 0.268427Q0.772925 0.224955 0.841933 0.18807Q0.91094 0.151185 0.983231 0.121241Q1.05552 0.0912971 1.1304 0.0685833Q1.20528 0.0458694 1.28202 0.0306042Q1.35876 0.0153391 1.43663 0.00766953Q1.5145 0 1.59275 0L1.59275 0Z" transform="translate(25.32934 10.625)" id="Rectangle-Copy-6" fill="#242A45" fill-opacity="0.25" stroke="none" />
    </g>
    <g id="Group-29-Copy-2" transform="translate(60 138)">
      <path d="M8.62275 17C13.385 17 17.2455 13.1944 17.2455 8.5C17.2455 3.80558 13.385 0 8.62275 0C3.86054 0 0 3.80558 0 8.5C0 13.1944 3.86054 17 8.62275 17Z" id="Oval" fill="#A47ED4" stroke="none" />
      <path d="M1.59275 0L63.0779 0Q63.1562 0 63.234 0.00766953Q63.3119 0.0153391 63.3886 0.0306042Q63.4654 0.0458694 63.5402 0.0685833Q63.6151 0.0912971 63.6874 0.121241Q63.7597 0.151185 63.8287 0.18807Q63.8977 0.224955 63.9628 0.268427Q64.0278 0.311898 64.0883 0.361538Q64.1488 0.411177 64.2041 0.466506Q64.2595 0.521834 64.3091 0.58232Q64.3587 0.642806 64.4022 0.707865Q64.4457 0.772925 64.4826 0.841933Q64.5195 0.91094 64.5494 0.983231Q64.5793 1.05552 64.6021 1.1304Q64.6248 1.20528 64.64 1.28202Q64.6553 1.35876 64.663 1.43663Q64.6707 1.5145 64.6707 1.59275L64.6707 1.59475Q64.6707 1.673 64.663 1.75087Q64.6553 1.82874 64.64 1.90548Q64.6248 1.98222 64.6021 2.0571Q64.5793 2.13198 64.5494 2.20427Q64.5195 2.27656 64.4826 2.34557Q64.4457 2.41457 64.4022 2.47963Q64.3587 2.54469 64.3091 2.60518Q64.2595 2.66567 64.2041 2.72099Q64.1488 2.77632 64.0883 2.82596Q64.0278 2.8756 63.9628 2.91907Q63.8977 2.96254 63.8287 2.99943Q63.7597 3.03632 63.6874 3.06626Q63.6151 3.0962 63.5402 3.11892Q63.4654 3.14163 63.3886 3.1569Q63.3119 3.17216 63.234 3.17983Q63.1562 3.1875 63.0779 3.1875L1.59275 3.1875Q1.5145 3.1875 1.43663 3.17983Q1.35876 3.17216 1.28202 3.1569Q1.20528 3.14163 1.1304 3.11892Q1.05552 3.0962 0.983231 3.06626Q0.91094 3.03632 0.841933 2.99943Q0.772925 2.96254 0.707865 2.91907Q0.642806 2.8756 0.58232 2.82596Q0.521834 2.77632 0.466506 2.72099Q0.411177 2.66567 0.361538 2.60518Q0.311898 2.54469 0.268427 2.47963Q0.224955 2.41457 0.18807 2.34557Q0.151185 2.27656 0.121241 2.20427Q0.0912971 2.13198 0.0685833 2.0571Q0.0458694 1.98222 0.0306042 1.90548Q0.0153391 1.82874 0.00766953 1.75087Q0 1.673 0 1.59475L0 1.59275Q0 1.5145 0.00766953 1.43663Q0.0153391 1.35876 0.0306042 1.28202Q0.0458694 1.20528 0.0685833 1.1304Q0.0912971 1.05552 0.121241 0.983231Q0.151185 0.91094 0.18807 0.841933Q0.224955 0.772925 0.268427 0.707865Q0.311898 0.642806 0.361538 0.58232Q0.411177 0.521834 0.466506 0.466506Q0.521834 0.411177 0.58232 0.361538Q0.642806 0.311898 0.707865 0.268427Q0.772925 0.224955 0.841933 0.18807Q0.91094 0.151185 0.983231 0.121241Q1.05552 0.0912971 1.1304 0.0685833Q1.20528 0.0458694 1.28202 0.0306042Q1.35876 0.0153391 1.43663 0.00766953Q1.5145 0 1.59275 0L1.59275 0Z" transform="translate(25.32934 3.1875)" id="Rectangle" fill="#242A45" fill-opacity="0.5" stroke="none" />
      <path d="M1.59275 0L32.8983 0Q32.9765 0 33.0544 0.00766953Q33.1323 0.0153391 33.209 0.0306042Q33.2857 0.0458694 33.3606 0.0685833Q33.4355 0.0912971 33.5078 0.121241Q33.5801 0.151185 33.6491 0.18807Q33.7181 0.224955 33.7831 0.268427Q33.8482 0.311898 33.9087 0.361538Q33.9692 0.411177 34.0245 0.466506Q34.0798 0.521834 34.1295 0.58232Q34.1791 0.642806 34.2226 0.707865Q34.2661 0.772925 34.3029 0.841933Q34.3398 0.91094 34.3698 0.983231Q34.3997 1.05552 34.4224 1.1304Q34.4451 1.20528 34.4604 1.28202Q34.4757 1.35876 34.4833 1.43663Q34.491 1.5145 34.491 1.59275L34.491 1.59475Q34.491 1.673 34.4833 1.75087Q34.4757 1.82874 34.4604 1.90548Q34.4451 1.98222 34.4224 2.0571Q34.3997 2.13198 34.3698 2.20427Q34.3398 2.27656 34.3029 2.34557Q34.2661 2.41457 34.2226 2.47963Q34.1791 2.54469 34.1295 2.60518Q34.0798 2.66567 34.0245 2.72099Q33.9692 2.77632 33.9087 2.82596Q33.8482 2.8756 33.7831 2.91907Q33.7181 2.96254 33.6491 2.99943Q33.5801 3.03632 33.5078 3.06626Q33.4355 3.0962 33.3606 3.11892Q33.2857 3.14163 33.209 3.1569Q33.1323 3.17216 33.0544 3.17983Q32.9765 3.1875 32.8983 3.1875L1.59275 3.1875Q1.5145 3.1875 1.43663 3.17983Q1.35876 3.17216 1.28202 3.1569Q1.20528 3.14163 1.1304 3.11892Q1.05552 3.0962 0.983231 3.06626Q0.91094 3.03632 0.841933 2.99943Q0.772925 2.96254 0.707865 2.91907Q0.642806 2.8756 0.58232 2.82596Q0.521834 2.77632 0.466506 2.72099Q0.411177 2.66567 0.361538 2.60518Q0.311898 2.54469 0.268427 2.47963Q0.224955 2.41457 0.18807 2.34557Q0.151185 2.27656 0.121241 2.20427Q0.0912971 2.13198 0.0685833 2.0571Q0.0458694 1.98222 0.0306042 1.90548Q0.0153391 1.82874 0.00766953 1.75087Q0 1.673 0 1.59475L0 1.59275Q0 1.5145 0.00766953 1.43663Q0.0153391 1.35876 0.0306042 1.28202Q0.0458694 1.20528 0.0685833 1.1304Q0.0912971 1.05552 0.121241 0.983231Q0.151185 0.91094 0.18807 0.841933Q0.224955 0.772925 0.268427 0.707865Q0.311898 0.642806 0.361538 0.58232Q0.411177 0.521834 0.466506 0.466506Q0.521834 0.411177 0.58232 0.361538Q0.642806 0.311898 0.707865 0.268427Q0.772925 0.224955 0.841933 0.18807Q0.91094 0.151185 0.983231 0.121241Q1.05552 0.0912971 1.1304 0.0685833Q1.20528 0.0458694 1.28202 0.0306042Q1.35876 0.0153391 1.43663 0.00766953Q1.5145 0 1.59275 0L1.59275 0Z" transform="translate(25.32934 10.625)" id="Rectangle-Copy-6" fill="#242A45" fill-opacity="0.25" stroke="none" />
    </g>
    <g id="Group-29-Copy-3" transform="translate(60 168)">
      <path d="M8.62275 17C13.385 17 17.2455 13.1944 17.2455 8.5C17.2455 3.80558 13.385 0 8.62275 0C3.86054 0 0 3.80558 0 8.5C0 13.1944 3.86054 17 8.62275 17Z" id="Oval" fill="#EC7878" stroke="none" />
      <path d="M1.59275 0L63.0779 0Q63.1562 0 63.234 0.00766953Q63.3119 0.0153391 63.3886 0.0306042Q63.4654 0.0458694 63.5402 0.0685833Q63.6151 0.0912971 63.6874 0.121241Q63.7597 0.151185 63.8287 0.18807Q63.8977 0.224955 63.9628 0.268427Q64.0278 0.311898 64.0883 0.361538Q64.1488 0.411177 64.2041 0.466506Q64.2595 0.521834 64.3091 0.58232Q64.3587 0.642806 64.4022 0.707865Q64.4457 0.772925 64.4826 0.841933Q64.5195 0.91094 64.5494 0.983231Q64.5793 1.05552 64.6021 1.1304Q64.6248 1.20528 64.64 1.28202Q64.6553 1.35876 64.663 1.43663Q64.6707 1.5145 64.6707 1.59275L64.6707 1.59475Q64.6707 1.673 64.663 1.75087Q64.6553 1.82874 64.64 1.90548Q64.6248 1.98222 64.6021 2.0571Q64.5793 2.13198 64.5494 2.20427Q64.5195 2.27656 64.4826 2.34557Q64.4457 2.41457 64.4022 2.47963Q64.3587 2.54469 64.3091 2.60518Q64.2595 2.66567 64.2041 2.72099Q64.1488 2.77632 64.0883 2.82596Q64.0278 2.8756 63.9628 2.91907Q63.8977 2.96254 63.8287 2.99943Q63.7597 3.03632 63.6874 3.06626Q63.6151 3.0962 63.5402 3.11892Q63.4654 3.14163 63.3886 3.1569Q63.3119 3.17216 63.234 3.17983Q63.1562 3.1875 63.0779 3.1875L1.59275 3.1875Q1.5145 3.1875 1.43663 3.17983Q1.35876 3.17216 1.28202 3.1569Q1.20528 3.14163 1.1304 3.11892Q1.05552 3.0962 0.983231 3.06626Q0.91094 3.03632 0.841933 2.99943Q0.772925 2.96254 0.707865 2.91907Q0.642806 2.8756 0.58232 2.82596Q0.521834 2.77632 0.466506 2.72099Q0.411177 2.66567 0.361538 2.60518Q0.311898 2.54469 0.268427 2.47963Q0.224955 2.41457 0.18807 2.34557Q0.151185 2.27656 0.121241 2.20427Q0.0912971 2.13198 0.0685833 2.0571Q0.0458694 1.98222 0.0306042 1.90548Q0.0153391 1.82874 0.00766953 1.75087Q0 1.673 0 1.59475L0 1.59275Q0 1.5145 0.00766953 1.43663Q0.0153391 1.35876 0.0306042 1.28202Q0.0458694 1.20528 0.0685833 1.1304Q0.0912971 1.05552 0.121241 0.983231Q0.151185 0.91094 0.18807 0.841933Q0.224955 0.772925 0.268427 0.707865Q0.311898 0.642806 0.361538 0.58232Q0.411177 0.521834 0.466506 0.466506Q0.521834 0.411177 0.58232 0.361538Q0.642806 0.311898 0.707865 0.268427Q0.772925 0.224955 0.841933 0.18807Q0.91094 0.151185 0.983231 0.121241Q1.05552 0.0912971 1.1304 0.0685833Q1.20528 0.0458694 1.28202 0.0306042Q1.35876 0.0153391 1.43663 0.00766953Q1.5145 0 1.59275 0L1.59275 0Z" transform="translate(25.32934 3.1875)" id="Rectangle" fill="#242A45" fill-opacity="0.5" stroke="none" />
      <path d="M1.59275 0L32.8983 0Q32.9765 0 33.0544 0.00766953Q33.1323 0.0153391 33.209 0.0306042Q33.2857 0.0458694 33.3606 0.0685833Q33.4355 0.0912971 33.5078 0.121241Q33.5801 0.151185 33.6491 0.18807Q33.7181 0.224955 33.7831 0.268427Q33.8482 0.311898 33.9087 0.361538Q33.9692 0.411177 34.0245 0.466506Q34.0798 0.521834 34.1295 0.58232Q34.1791 0.642806 34.2226 0.707865Q34.2661 0.772925 34.3029 0.841933Q34.3398 0.91094 34.3698 0.983231Q34.3997 1.05552 34.4224 1.1304Q34.4451 1.20528 34.4604 1.28202Q34.4757 1.35876 34.4833 1.43663Q34.491 1.5145 34.491 1.59275L34.491 1.59475Q34.491 1.673 34.4833 1.75087Q34.4757 1.82874 34.4604 1.90548Q34.4451 1.98222 34.4224 2.0571Q34.3997 2.13198 34.3698 2.20427Q34.3398 2.27656 34.3029 2.34557Q34.2661 2.41457 34.2226 2.47963Q34.1791 2.54469 34.1295 2.60518Q34.0798 2.66567 34.0245 2.72099Q33.9692 2.77632 33.9087 2.82596Q33.8482 2.8756 33.7831 2.91907Q33.7181 2.96254 33.6491 2.99943Q33.5801 3.03632 33.5078 3.06626Q33.4355 3.0962 33.3606 3.11892Q33.2857 3.14163 33.209 3.1569Q33.1323 3.17216 33.0544 3.17983Q32.9765 3.1875 32.8983 3.1875L1.59275 3.1875Q1.5145 3.1875 1.43663 3.17983Q1.35876 3.17216 1.28202 3.1569Q1.20528 3.14163 1.1304 3.11892Q1.05552 3.0962 0.983231 3.06626Q0.91094 3.03632 0.841933 2.99943Q0.772925 2.96254 0.707865 2.91907Q0.642806 2.8756 0.58232 2.82596Q0.521834 2.77632 0.466506 2.72099Q0.411177 2.66567 0.361538 2.60518Q0.311898 2.54469 0.268427 2.47963Q0.224955 2.41457 0.18807 2.34557Q0.151185 2.27656 0.121241 2.20427Q0.0912971 2.13198 0.0685833 2.0571Q0.0458694 1.98222 0.0306042 1.90548Q0.0153391 1.82874 0.00766953 1.75087Q0 1.673 0 1.59475L0 1.59275Q0 1.5145 0.00766953 1.43663Q0.0153391 1.35876 0.0306042 1.28202Q0.0458694 1.20528 0.0685833 1.1304Q0.0912971 1.05552 0.121241 0.983231Q0.151185 0.91094 0.18807 0.841933Q0.224955 0.772925 0.268427 0.707865Q0.311898 0.642806 0.361538 0.58232Q0.411177 0.521834 0.466506 0.466506Q0.521834 0.411177 0.58232 0.361538Q0.642806 0.311898 0.707865 0.268427Q0.772925 0.224955 0.841933 0.18807Q0.91094 0.151185 0.983231 0.121241Q1.05552 0.0912971 1.1304 0.0685833Q1.20528 0.0458694 1.28202 0.0306042Q1.35876 0.0153391 1.43663 0.00766953Q1.5145 0 1.59275 0L1.59275 0Z" transform="translate(25.32934 10.625)" id="Rectangle-Copy-6" fill="#242A45" fill-opacity="0.25" stroke="none" />
    </g>
  </g>
</svg>