<?xml version="1.0" encoding="utf-8"?>
<svg width="592px" height="399px" viewBox="0 0 592 399" version="1.1" xmlns:xlink="http://www.w3.org/1999/xlink" xmlns="http://www.w3.org/2000/svg">
  <desc>Created with Lunacy</desc>
  <defs>
    <linearGradient x1="0.990132749" y1="0.990132749" x2="0.0254419055" y2="0.0254419055" id="gradient_1">
      <stop offset="0" stop-color="#151515" />
      <stop offset="1" stop-color="#3D3D3D" />
    </linearGradient>
    <filter filterUnits="userSpaceOnUse" color-interpolation-filters="sRGB" id="filter_1">
      <feFlood flood-opacity="0" result="BackgroundImageFix" />
      <feColorMatrix in="SourceAlpha" type="matrix" values="0 0 0 0 0 0 0 0 0 0 0 0 0 0 0 0 0 0 127 0" />
      <feOffset dx="0" dy="30" />
      <feGaussianBlur stdDeviation="20" />
      <feColorMatrix type="matrix" values="0 0 0 0 0.1843137 0 0 0 0 0.2313726 0 0 0 0 0.5058824 0 0 0 0.2 0" />
      <feBlend mode="normal" in2="BackgroundImageFix" result="effect0_dropShadow" />
      <feBlend mode="normal" in="SourceGraphic" in2="effect0_dropShadow" result="shape" />
    </filter>
    <path d="M7.999 0L528.001 0Q528.197 0 528.393 0.00963514Q528.59 0.0192703 528.785 0.0385174Q528.98 0.0577644 529.175 0.0865771Q529.369 0.11539 529.561 0.153699Q529.754 0.192007 529.944 0.23972Q530.135 0.287433 530.323 0.344434Q530.511 0.401436 530.696 0.467589Q530.881 0.533742 531.062 0.608888Q531.243 0.684033 531.421 0.76799Q531.598 0.851946 531.772 0.944512Q531.945 1.03708 532.113 1.13803Q532.282 1.23898 532.445 1.34807Q532.608 1.45717 532.766 1.57414Q532.924 1.69112 533.076 1.81569Q533.227 1.94026 533.373 2.07213Q533.518 2.204 533.657 2.34285Q533.796 2.4817 533.928 2.6272Q534.06 2.7727 534.184 2.92449Q534.309 3.07628 534.426 3.234Q534.543 3.39172 534.652 3.55499Q534.761 3.71826 534.862 3.88669Q534.963 4.05512 535.055 4.2283Q535.148 4.40148 535.232 4.57899Q535.316 4.7565 535.391 4.93791Q535.466 5.11933 535.532 5.30422Q535.599 5.4891 535.656 5.67701Q535.713 5.86492 535.76 6.0554Q535.808 6.24588 535.846 6.43847Q535.885 6.63106 535.913 6.8253Q535.942 7.01954 535.961 7.21496Q535.981 7.41038 535.99 7.60651Q536 7.80264 536 7.999L536 338.001Q536 338.197 535.99 338.393Q535.981 338.59 535.961 338.785Q535.942 338.98 535.913 339.175Q535.885 339.369 535.846 339.561Q535.808 339.754 535.76 339.945Q535.713 340.135 535.656 340.323Q535.599 340.511 535.532 340.696Q535.466 340.881 535.391 341.062Q535.316 341.243 535.232 341.421Q535.148 341.598 535.055 341.772Q534.963 341.945 534.862 342.113Q534.761 342.282 534.652 342.445Q534.543 342.608 534.426 342.766Q534.309 342.924 534.184 343.075Q534.06 343.227 533.928 343.373Q533.796 343.518 533.657 343.657Q533.518 343.796 533.373 343.928Q533.227 344.06 533.076 344.184Q532.924 344.309 532.766 344.426Q532.608 344.543 532.445 344.652Q532.282 344.761 532.113 344.862Q531.945 344.963 531.772 345.055Q531.598 345.148 531.421 345.232Q531.243 345.316 531.062 345.391Q530.88 345.466 530.696 345.532Q530.511 345.599 530.323 345.656Q530.135 345.713 529.944 345.76Q529.754 345.808 529.561 345.846Q529.369 345.885 529.175 345.913Q528.98 345.942 528.785 345.961Q528.59 345.981 528.393 345.99Q528.197 346 528.001 346L7.999 346Q7.80264 346 7.60651 345.99Q7.41038 345.981 7.21496 345.961Q7.01954 345.942 6.8253 345.913Q6.63106 345.885 6.43847 345.846Q6.24588 345.808 6.0554 345.76Q5.86492 345.713 5.67701 345.656Q5.4891 345.599 5.30422 345.532Q5.11933 345.466 4.93791 345.391Q4.7565 345.316 4.57899 345.232Q4.40148 345.148 4.2283 345.055Q4.05512 344.963 3.88669 344.862Q3.71826 344.761 3.55499 344.652Q3.39172 344.543 3.234 344.426Q3.07628 344.309 2.92449 344.184Q2.7727 344.06 2.6272 343.928Q2.4817 343.796 2.34285 343.657Q2.204 343.518 2.07213 343.373Q1.94026 343.227 1.81569 343.075Q1.69112 342.924 1.57414 342.766Q1.45717 342.608 1.34807 342.445Q1.23898 342.282 1.13803 342.113Q1.03708 341.945 0.944512 341.772Q0.851946 341.598 0.76799 341.421Q0.684033 341.243 0.608888 341.062Q0.533742 340.881 0.467589 340.696Q0.401436 340.511 0.344434 340.323Q0.287433 340.135 0.23972 339.945Q0.192007 339.754 0.153699 339.561Q0.11539 339.369 0.0865771 339.175Q0.0577644 338.98 0.0385174 338.785Q0.0192703 338.59 0.00963514 338.393Q0 338.197 0 338.001L0 7.999Q0 7.80264 0.00963514 7.60651Q0.0192703 7.41038 0.0385174 7.21496Q0.0577644 7.01954 0.0865771 6.8253Q0.11539 6.63106 0.153699 6.43847Q0.192007 6.24588 0.23972 6.0554Q0.287433 5.86492 0.344434 5.67701Q0.401436 5.4891 0.467589 5.30422Q0.533742 5.11933 0.608888 4.93791Q0.684033 4.7565 0.76799 4.57899Q0.851946 4.40148 0.944512 4.2283Q1.03708 4.05512 1.13803 3.88669Q1.23898 3.71826 1.34807 3.55499Q1.45717 3.39172 1.57414 3.234Q1.69112 3.07628 1.81569 2.92449Q1.94026 2.7727 2.07213 2.6272Q2.204 2.4817 2.34285 2.34285Q2.4817 2.204 2.6272 2.07213Q2.7727 1.94026 2.92449 1.81569Q3.07628 1.69112 3.234 1.57414Q3.39172 1.45717 3.55499 1.34807Q3.71826 1.23898 3.88669 1.13803Q4.05512 1.03708 4.2283 0.944512Q4.40148 0.851946 4.57899 0.76799Q4.7565 0.684033 4.93791 0.608888Q5.11933 0.533742 5.30422 0.467589Q5.4891 0.401436 5.67701 0.344434Q5.86492 0.287433 6.0554 0.23972Q6.24588 0.192007 6.43847 0.153699Q6.63106 0.11539 6.8253 0.0865771Q7.01954 0.0577644 7.21496 0.0385174Q7.41038 0.0192703 7.60651 0.00963514Q7.80264 0 7.999 0L7.999 0Z" transform="translate(0 3)" id="path_1" />
    <clipPath id="mask_1">
      <use xlink:href="#path_1" />
    </clipPath>
  </defs>
  <g id="Group-2" transform="translate(6.5 4.5)">
    <g id="Group-40" transform="matrix(-4.371139E-08 1 -1 -4.371139E-08 578.5 0.5)">
      <g id="Group-52" transform="matrix(-4.371139E-08 -1 1 -4.371139E-08 0 578)">
        <g filter="url(#filter_1)">
          <path d="M25.999 0L552.001 0Q552.639 0 553.277 0.0313169Q553.914 0.0626339 554.549 0.125192Q555.185 0.187751 555.816 0.2814Q556.447 0.375049 557.073 0.499563Q557.699 0.624078 558.318 0.779157Q558.937 0.934237 559.548 1.11951Q560.159 1.30478 560.76 1.5198Q561.361 1.73481 561.95 1.97906Q562.54 2.2233 563.117 2.49618Q563.694 2.76906 564.257 3.06993Q564.82 3.37079 565.367 3.69891Q565.915 4.02703 566.445 4.38162Q566.976 4.73621 567.488 5.11641Q568.001 5.49661 568.495 5.9015Q568.988 6.3064 569.461 6.73501Q569.934 7.16363 570.385 7.61493Q570.836 8.06623 571.265 8.53914Q571.693 9.01204 572.098 9.50541Q572.503 9.99877 572.883 10.5114Q573.264 11.0241 573.618 11.5547Q573.973 12.0854 574.301 12.6328Q574.629 13.1803 574.93 13.7432Q575.231 14.306 575.504 14.883Q575.777 15.46 576.021 16.0496Q576.265 16.6393 576.48 17.2402Q576.695 17.8411 576.88 18.4519Q577.066 19.0626 577.221 19.6818Q577.376 20.3009 577.5 20.9268Q577.625 21.5528 577.719 22.1842Q577.812 22.8155 577.875 23.4507Q577.937 24.0858 577.969 24.7233Q578 25.3608 578 25.999L578 359.001Q578 359.639 577.969 360.277Q577.937 360.914 577.875 361.549Q577.812 362.184 577.719 362.816Q577.625 363.447 577.5 364.073Q577.376 364.699 577.221 365.318Q577.066 365.937 576.88 366.548Q576.695 367.159 576.48 367.76Q576.265 368.361 576.021 368.95Q575.777 369.54 575.504 370.117Q575.231 370.694 574.93 371.257Q574.629 371.82 574.301 372.367Q573.973 372.915 573.618 373.445Q573.264 373.976 572.883 374.489Q572.503 375.001 572.098 375.495Q571.693 375.988 571.265 376.461Q570.836 376.934 570.385 377.385Q569.934 377.836 569.461 378.265Q568.988 378.694 568.495 379.099Q568.001 379.503 567.488 379.884Q566.976 380.264 566.445 380.618Q565.915 380.973 565.367 381.301Q564.82 381.629 564.257 381.93Q563.694 382.231 563.117 382.504Q562.54 382.777 561.95 383.021Q561.361 383.265 560.76 383.48Q560.159 383.695 559.548 383.88Q558.937 384.066 558.318 384.221Q557.699 384.376 557.073 384.5Q556.447 384.625 555.816 384.719Q555.185 384.812 554.549 384.875Q553.914 384.937 553.277 384.969Q552.639 385 552.001 385L25.999 385Q25.3608 385 24.7233 384.969Q24.0858 384.937 23.4507 384.875Q22.8155 384.812 22.1842 384.719Q21.5528 384.625 20.9268 384.5Q20.3009 384.376 19.6818 384.221Q19.0626 384.066 18.4519 383.88Q17.8411 383.695 17.2402 383.48Q16.6393 383.265 16.0496 383.021Q15.46 382.777 14.883 382.504Q14.306 382.231 13.7432 381.93Q13.1803 381.629 12.6328 381.301Q12.0854 380.973 11.5547 380.618Q11.0241 380.264 10.5114 379.884Q9.99877 379.503 9.50541 379.098Q9.01204 378.694 8.53914 378.265Q8.06623 377.836 7.61493 377.385Q7.16363 376.934 6.73501 376.461Q6.3064 375.988 5.9015 375.495Q5.49661 375.001 5.11641 374.489Q4.73621 373.976 4.38162 373.445Q4.02703 372.915 3.69891 372.367Q3.37079 371.82 3.06993 371.257Q2.76906 370.694 2.49618 370.117Q2.2233 369.54 1.97906 368.95Q1.73481 368.361 1.5198 367.76Q1.30478 367.159 1.11951 366.548Q0.934237 365.937 0.779157 365.318Q0.624078 364.699 0.499563 364.073Q0.375049 363.447 0.2814 362.816Q0.187751 362.184 0.125192 361.549Q0.0626339 360.914 0.0313169 360.277Q0 359.639 0 359.001L0 25.999Q0 25.3608 0.0313169 24.7233Q0.0626339 24.0858 0.125192 23.4507Q0.187751 22.8155 0.2814 22.1842Q0.375049 21.5528 0.499563 20.9268Q0.624078 20.3009 0.779157 19.6818Q0.934237 19.0626 1.11951 18.4519Q1.30478 17.8411 1.5198 17.2402Q1.73481 16.6393 1.97906 16.0496Q2.2233 15.46 2.49618 14.883Q2.76906 14.306 3.06993 13.7432Q3.37079 13.1803 3.69891 12.6328Q4.02703 12.0854 4.38162 11.5547Q4.73621 11.0241 5.11641 10.5114Q5.49661 9.99877 5.9015 9.50541Q6.3064 9.01204 6.73501 8.53914Q7.16363 8.06623 7.61493 7.61493Q8.06623 7.16363 8.53914 6.73501Q9.01204 6.3064 9.50541 5.9015Q9.99877 5.49661 10.5114 5.11641Q11.0241 4.73621 11.5547 4.38162Q12.0854 4.02703 12.6328 3.69891Q13.1803 3.37079 13.7432 3.06993Q14.306 2.76906 14.883 2.49618Q15.46 2.2233 16.0496 1.97906Q16.6393 1.73481 17.2402 1.5198Q17.8411 1.30478 18.4519 1.11951Q19.0626 0.934237 19.6818 0.779157Q20.3009 0.624078 20.9268 0.499563Q21.5528 0.375049 22.1842 0.2814Q22.8155 0.187751 23.4507 0.125192Q24.0858 0.0626339 24.7233 0.0313169Q25.3608 0 25.999 0Z" id="Rectangle-Copy-3" fill="#777777" stroke="none" />
        </g>
        <path d="M24.999 0L549.231 0Q549.845 0 550.458 0.0301124Q551.071 0.0602248 551.682 0.120377Q552.292 0.180529 552.899 0.270576Q553.506 0.360624 554.108 0.480349Q554.71 0.600074 555.306 0.749189Q555.901 0.898303 556.488 1.07645Q557.075 1.25459 557.653 1.46134Q558.231 1.66809 558.798 1.90294Q559.365 2.13778 559.92 2.40017Q560.475 2.66256 561.016 2.95185Q561.557 3.24114 562.083 3.55664Q562.61 3.87214 563.12 4.21309Q563.63 4.55404 564.123 4.91961Q564.616 5.28519 565.091 5.67451Q565.565 6.06383 566.02 6.47596Q566.474 6.88809 566.908 7.32204Q567.342 7.75598 567.754 8.2107Q568.167 8.66541 568.556 9.1398Q568.945 9.61419 569.311 10.1071Q569.676 10.6 570.017 11.1103Q570.358 11.6206 570.674 12.1469Q570.989 12.6733 571.279 13.2146Q571.568 13.7558 571.83 14.3105Q572.092 14.8653 572.327 15.4323Q572.562 15.9993 572.769 16.5771Q572.976 17.1549 573.154 17.7422Q573.332 18.3294 573.481 18.9247Q573.63 19.52 573.75 20.1219Q573.87 20.7238 573.96 21.3309Q574.05 21.9379 574.11 22.5487Q574.17 23.1594 574.2 23.7724Q574.23 24.3853 574.23 24.999L574.23 356.866Q574.23 357.48 574.2 358.092Q574.17 358.705 574.11 359.316Q574.05 359.927 573.96 360.534Q573.87 361.141 573.75 361.743Q573.63 362.345 573.481 362.94Q573.332 363.535 573.154 364.123Q572.976 364.71 572.769 365.288Q572.562 365.865 572.327 366.432Q572.093 366.999 571.83 367.554Q571.568 368.109 571.279 368.65Q570.989 369.191 570.674 369.718Q570.358 370.244 570.017 370.754Q569.676 371.265 569.311 371.758Q568.945 372.251 568.556 372.725Q568.167 373.199 567.754 373.654Q567.342 374.109 566.908 374.543Q566.474 374.977 566.02 375.389Q565.565 375.801 565.091 376.19Q564.616 376.58 564.123 376.945Q563.63 377.311 563.12 377.652Q562.61 377.993 562.083 378.308Q561.557 378.624 561.016 378.913Q560.475 379.202 559.92 379.465Q559.365 379.727 558.798 379.962Q558.231 380.197 557.653 380.403Q557.075 380.61 556.488 380.788Q555.901 380.966 555.306 381.116Q554.71 381.265 554.108 381.384Q553.506 381.504 552.899 381.594Q552.292 381.684 551.682 381.744Q551.071 381.805 550.458 381.835Q549.845 381.865 549.231 381.865L24.999 381.865Q24.3853 381.865 23.7724 381.835Q23.1594 381.805 22.5487 381.744Q21.9379 381.684 21.3309 381.594Q20.7238 381.504 20.1219 381.384Q19.52 381.265 18.9247 381.116Q18.3294 380.966 17.7422 380.788Q17.1549 380.61 16.5771 380.403Q15.9993 380.197 15.4323 379.962Q14.8653 379.727 14.3105 379.465Q13.7558 379.202 13.2146 378.913Q12.6733 378.624 12.1469 378.308Q11.6206 377.993 11.1103 377.652Q10.6 377.311 10.1071 376.945Q9.61419 376.58 9.1398 376.19Q8.66541 375.801 8.2107 375.389Q7.75598 374.977 7.32204 374.543Q6.88809 374.109 6.47596 373.654Q6.06383 373.199 5.67451 372.725Q5.28519 372.251 4.91961 371.758Q4.55404 371.265 4.21309 370.754Q3.87214 370.244 3.55664 369.718Q3.24114 369.191 2.95185 368.65Q2.66256 368.109 2.40017 367.554Q2.13778 366.999 1.90294 366.432Q1.66809 365.865 1.46134 365.288Q1.25459 364.71 1.07645 364.123Q0.898303 363.535 0.749189 362.94Q0.600074 362.345 0.480349 361.743Q0.360624 361.141 0.270576 360.534Q0.180529 359.927 0.120377 359.316Q0.0602248 358.705 0.0301124 358.092Q0 357.48 0 356.866L0 24.999Q0 24.3853 0.0301124 23.7724Q0.0602248 23.1594 0.120377 22.5487Q0.180529 21.9379 0.270576 21.3309Q0.360624 20.7238 0.480349 20.1219Q0.600074 19.52 0.749189 18.9247Q0.898303 18.3294 1.07645 17.7422Q1.25459 17.1549 1.46134 16.5771Q1.66809 15.9993 1.90294 15.4323Q2.13778 14.8653 2.40017 14.3105Q2.66256 13.7558 2.95185 13.2146Q3.24114 12.6733 3.55664 12.1469Q3.87214 11.6206 4.21309 11.1103Q4.55404 10.6 4.91961 10.1071Q5.28519 9.61419 5.67451 9.1398Q6.06383 8.66541 6.47596 8.2107Q6.88809 7.75598 7.32204 7.32204Q7.75598 6.88809 8.2107 6.47596Q8.66541 6.06383 9.1398 5.67451Q9.61419 5.28519 10.1071 4.91961Q10.6 4.55404 11.1103 4.21309Q11.6206 3.87214 12.1469 3.55664Q12.6733 3.24114 13.2146 2.95185Q13.7558 2.66256 14.3105 2.40017Q14.8653 2.13778 15.4323 1.90294Q15.9993 1.66809 16.5771 1.46134Q17.1549 1.25459 17.7422 1.07645Q18.3294 0.898303 18.9247 0.749189Q19.52 0.600074 20.1219 0.480349Q20.7238 0.360624 21.3309 0.270576Q21.9379 0.180529 22.5487 0.120377Q23.1594 0.0602248 23.7724 0.0301124Q24.3853 0 24.999 0Z" transform="translate(2 2)" id="Rectangle-Copy-5" fill="url(#gradient_1)" stroke="none" />
        <g id="GoViral---Wordpress-Theme" transform="translate(21.03044 16.30293)">
          <path d="M4.999 0L466.464 0Q466.587 0 466.709 0.00602151Q466.832 0.012043 466.954 0.0240716Q467.076 0.0361001 467.197 0.0541066Q467.319 0.0721132 467.439 0.0960544Q467.56 0.119996 467.679 0.149814Q467.798 0.179632 467.915 0.215255Q468.032 0.250879 468.148 0.292221Q468.264 0.333564 468.377 0.380526Q468.49 0.427489 468.601 0.479958Q468.712 0.532426 468.82 0.590276Q468.929 0.648125 469.034 0.711215Q469.139 0.774305 469.241 0.842483Q469.343 0.910662 469.442 0.983766Q469.54 1.05687 469.635 1.13472Q469.73 1.21257 469.821 1.29499Q469.912 1.3774 469.999 1.46417Q470.086 1.55095 470.168 1.64188Q470.25 1.73281 470.328 1.82767Q470.406 1.92253 470.479 2.0211Q470.552 2.11967 470.62 2.2217Q470.689 2.32374 470.752 2.429Q470.815 2.53426 470.873 2.64249Q470.931 2.75072 470.983 2.86165Q471.035 2.97259 471.082 3.08597Q471.129 3.19934 471.171 3.31489Q471.212 3.43043 471.248 3.54787Q471.283 3.6653 471.313 3.78434Q471.343 3.90338 471.367 4.02374Q471.391 4.1441 471.409 4.26549Q471.427 4.38689 471.439 4.50901Q471.451 4.63114 471.457 4.75371Q471.463 4.87628 471.463 4.999L471.463 348.757Q471.463 348.879 471.457 349.002Q471.451 349.125 471.439 349.247Q471.427 349.369 471.409 349.49Q471.391 349.612 471.367 349.732Q471.343 349.852 471.313 349.971Q471.283 350.09 471.248 350.208Q471.212 350.325 471.171 350.441Q471.129 350.556 471.082 350.67Q471.035 350.783 470.983 350.894Q470.931 351.005 470.873 351.113Q470.815 351.221 470.752 351.327Q470.689 351.432 470.62 351.534Q470.552 351.636 470.479 351.735Q470.406 351.833 470.328 351.928Q470.25 352.023 470.168 352.114Q470.086 352.205 469.999 352.291Q469.912 352.378 469.821 352.461Q469.73 352.543 469.635 352.621Q469.54 352.699 469.442 352.772Q469.343 352.845 469.241 352.913Q469.139 352.981 469.034 353.044Q468.929 353.107 468.82 353.165Q468.712 353.223 468.601 353.276Q468.49 353.328 468.377 353.375Q468.264 353.422 468.148 353.463Q468.032 353.505 467.915 353.54Q467.798 353.576 467.679 353.606Q467.56 353.636 467.439 353.66Q467.319 353.684 467.197 353.702Q467.076 353.72 466.954 353.732Q466.832 353.744 466.709 353.75Q466.587 353.756 466.464 353.756L4.999 353.756Q4.87628 353.756 4.75371 353.75Q4.63114 353.744 4.50901 353.732Q4.38689 353.72 4.26549 353.702Q4.1441 353.684 4.02374 353.66Q3.90338 353.636 3.78434 353.606Q3.6653 353.576 3.54787 353.54Q3.43043 353.505 3.31489 353.463Q3.19934 353.422 3.08597 353.375Q2.97259 353.328 2.86165 353.276Q2.75072 353.223 2.64249 353.165Q2.53426 353.108 2.429 353.044Q2.32374 352.981 2.2217 352.913Q2.11967 352.845 2.0211 352.772Q1.92253 352.699 1.82767 352.621Q1.73281 352.543 1.64188 352.461Q1.55095 352.378 1.46417 352.292Q1.3774 352.205 1.29499 352.114Q1.21257 352.023 1.13472 351.928Q1.05687 351.833 0.983766 351.735Q0.910662 351.636 0.842483 351.534Q0.774305 351.432 0.711215 351.327Q0.648125 351.221 0.590276 351.113Q0.532426 351.005 0.479958 350.894Q0.427489 350.783 0.380526 350.67Q0.333564 350.556 0.292221 350.441Q0.250879 350.325 0.215255 350.208Q0.179632 350.09 0.149814 349.971Q0.119996 349.852 0.0960544 349.732Q0.0721132 349.612 0.0541066 349.49Q0.0361001 349.369 0.0240716 349.247Q0.012043 349.125 0.00602151 349.002Q0 348.879 0 348.757L0 4.999Q0 4.87628 0.00602151 4.75371Q0.012043 4.63114 0.0240716 4.50901Q0.0361001 4.38688 0.0541066 4.26549Q0.0721132 4.1441 0.0960544 4.02374Q0.119996 3.90338 0.149814 3.78434Q0.179632 3.6653 0.215255 3.54787Q0.250879 3.43043 0.292221 3.31489Q0.333564 3.19934 0.380526 3.08597Q0.427489 2.97259 0.479958 2.86165Q0.532426 2.75072 0.590276 2.64249Q0.648125 2.53426 0.711215 2.429Q0.774305 2.32374 0.842483 2.2217Q0.910662 2.11967 0.983766 2.0211Q1.05687 1.92253 1.13472 1.82767Q1.21257 1.73281 1.29499 1.64188Q1.3774 1.55095 1.46417 1.46417Q1.55095 1.3774 1.64188 1.29499Q1.73281 1.21257 1.82767 1.13472Q1.92253 1.05687 2.0211 0.983765Q2.11967 0.910662 2.2217 0.842483Q2.32374 0.774305 2.429 0.711215Q2.53426 0.648125 2.64249 0.590276Q2.75072 0.532426 2.86165 0.479957Q2.97259 0.427489 3.08597 0.380526Q3.19934 0.333564 3.31489 0.292221Q3.43043 0.250879 3.54787 0.215255Q3.6653 0.179632 3.78434 0.149814Q3.90338 0.119996 4.02374 0.0960544Q4.1441 0.0721132 4.26549 0.0541066Q4.38689 0.0361001 4.50901 0.0240715Q4.63114 0.012043 4.75371 0.00602151Q4.87628 0 4.999 0L4.999 0Z" transform="translate(33 0)" id="Mask-Copy" fill="#2A2A2A" fill-opacity="0.1" stroke="none" />
          <path d="M7.999 0L528.001 0Q528.197 0 528.393 0.00963514Q528.59 0.0192703 528.785 0.0385174Q528.98 0.0577644 529.175 0.0865771Q529.369 0.11539 529.561 0.153699Q529.754 0.192007 529.944 0.23972Q530.135 0.287433 530.323 0.344434Q530.511 0.401436 530.696 0.467589Q530.881 0.533742 531.062 0.608888Q531.243 0.684033 531.421 0.76799Q531.598 0.851946 531.772 0.944512Q531.945 1.03708 532.113 1.13803Q532.282 1.23898 532.445 1.34807Q532.608 1.45717 532.766 1.57414Q532.924 1.69112 533.076 1.81569Q533.227 1.94026 533.373 2.07213Q533.518 2.204 533.657 2.34285Q533.796 2.4817 533.928 2.6272Q534.06 2.7727 534.184 2.92449Q534.309 3.07628 534.426 3.234Q534.543 3.39172 534.652 3.55499Q534.761 3.71826 534.862 3.88669Q534.963 4.05512 535.055 4.2283Q535.148 4.40148 535.232 4.57899Q535.316 4.7565 535.391 4.93791Q535.466 5.11933 535.532 5.30422Q535.599 5.4891 535.656 5.67701Q535.713 5.86492 535.76 6.0554Q535.808 6.24588 535.846 6.43847Q535.885 6.63106 535.913 6.8253Q535.942 7.01954 535.961 7.21496Q535.981 7.41038 535.99 7.60651Q536 7.80264 536 7.999L536 338.001Q536 338.197 535.99 338.393Q535.981 338.59 535.961 338.785Q535.942 338.98 535.913 339.175Q535.885 339.369 535.846 339.561Q535.808 339.754 535.76 339.945Q535.713 340.135 535.656 340.323Q535.599 340.511 535.532 340.696Q535.466 340.881 535.391 341.062Q535.316 341.243 535.232 341.421Q535.148 341.598 535.055 341.772Q534.963 341.945 534.862 342.113Q534.761 342.282 534.652 342.445Q534.543 342.608 534.426 342.766Q534.309 342.924 534.184 343.075Q534.06 343.227 533.928 343.373Q533.796 343.518 533.657 343.657Q533.518 343.796 533.373 343.928Q533.227 344.06 533.076 344.184Q532.924 344.309 532.766 344.426Q532.608 344.543 532.445 344.652Q532.282 344.761 532.113 344.862Q531.945 344.963 531.772 345.055Q531.598 345.148 531.421 345.232Q531.243 345.316 531.062 345.391Q530.88 345.466 530.696 345.532Q530.511 345.599 530.323 345.656Q530.135 345.713 529.944 345.76Q529.754 345.808 529.561 345.846Q529.369 345.885 529.175 345.913Q528.98 345.942 528.785 345.961Q528.59 345.981 528.393 345.99Q528.197 346 528.001 346L7.999 346Q7.80264 346 7.60651 345.99Q7.41038 345.981 7.21496 345.961Q7.01954 345.942 6.8253 345.913Q6.63106 345.885 6.43847 345.846Q6.24588 345.808 6.0554 345.76Q5.86492 345.713 5.67701 345.656Q5.4891 345.599 5.30422 345.532Q5.11933 345.466 4.93791 345.391Q4.7565 345.316 4.57899 345.232Q4.40148 345.148 4.2283 345.055Q4.05512 344.963 3.88669 344.862Q3.71826 344.761 3.55499 344.652Q3.39172 344.543 3.234 344.426Q3.07628 344.309 2.92449 344.184Q2.7727 344.06 2.6272 343.928Q2.4817 343.796 2.34285 343.657Q2.204 343.518 2.07213 343.373Q1.94026 343.227 1.81569 343.075Q1.69112 342.924 1.57414 342.766Q1.45717 342.608 1.34807 342.445Q1.23898 342.282 1.13803 342.113Q1.03708 341.945 0.944512 341.772Q0.851946 341.598 0.76799 341.421Q0.684033 341.243 0.608888 341.062Q0.533742 340.881 0.467589 340.696Q0.401436 340.511 0.344434 340.323Q0.287433 340.135 0.23972 339.945Q0.192007 339.754 0.153699 339.561Q0.11539 339.369 0.0865771 339.175Q0.0577644 338.98 0.0385174 338.785Q0.0192703 338.59 0.00963514 338.393Q0 338.197 0 338.001L0 7.999Q0 7.80264 0.00963514 7.60651Q0.0192703 7.41038 0.0385174 7.21496Q0.0577644 7.01954 0.0865771 6.8253Q0.11539 6.63106 0.153699 6.43847Q0.192007 6.24588 0.23972 6.0554Q0.287433 5.86492 0.344434 5.67701Q0.401436 5.4891 0.467589 5.30422Q0.533742 5.11933 0.608888 4.93791Q0.684033 4.7565 0.76799 4.57899Q0.851946 4.40148 0.944512 4.2283Q1.03708 4.05512 1.13803 3.88669Q1.23898 3.71826 1.34807 3.55499Q1.45717 3.39172 1.57414 3.234Q1.69112 3.07628 1.81569 2.92449Q1.94026 2.7727 2.07213 2.6272Q2.204 2.4817 2.34285 2.34285Q2.4817 2.204 2.6272 2.07213Q2.7727 1.94026 2.92449 1.81569Q3.07628 1.69112 3.234 1.57414Q3.39172 1.45717 3.55499 1.34807Q3.71826 1.23898 3.88669 1.13803Q4.05512 1.03708 4.2283 0.944512Q4.40148 0.851946 4.57899 0.76799Q4.7565 0.684033 4.93791 0.608888Q5.11933 0.533742 5.30422 0.467589Q5.4891 0.401436 5.67701 0.344434Q5.86492 0.287433 6.0554 0.23972Q6.24588 0.192007 6.43847 0.153699Q6.63106 0.11539 6.8253 0.0865771Q7.01954 0.0577644 7.21496 0.0385174Q7.41038 0.0192703 7.60651 0.00963514Q7.80264 0 7.999 0L7.999 0Z" transform="translate(0 3)" id="Mask" fill="#E8EAF6" stroke="none" />
          <g clip-path="url(#mask_1)">
            <g id="Group-28" transform="translate(-3.530435 3.197068)">
              <path d="M0 0L547 0L547 59L0 59L0 0Z" id="Rectangle" fill="#5267DF" stroke="none" />
              <g id="Group-7" transform="translate(26 14)">
                <path d="M16 32C24.8366 32 32 24.8366 32 16C32 7.16344 24.8366 0 16 0C7.16344 0 0 7.16344 0 16C0 24.8366 7.16344 32 16 32Z" id="Oval" fill="#FFFFFF" fill-opacity="0.244768411" stroke="none" />
                <path d="M16 32C24.8366 32 32 24.8366 32 16C32 7.16344 24.8366 0 16 0C7.16344 0 0 7.16344 0 16C0 24.8366 7.16344 32 16 32Z" transform="translate(461 0)" id="Oval-Copy" fill="#FFFFFF" fill-opacity="0.104399182" stroke="none" />
                <g id="Group-6" transform="translate(47 6)">
                  <path d="M2.999 0L117.001 0Q117.148 0 117.295 0.014441Q117.442 0.028882 117.586 0.0576249Q117.731 0.0863679 117.872 0.129136Q118.013 0.171904 118.149 0.228285Q118.285 0.284667 118.415 0.354118Q118.545 0.42357 118.667 0.505423Q118.79 0.587276 118.904 0.680742Q119.017 0.774208 119.122 0.878387Q119.226 0.982566 119.319 1.09645Q119.413 1.21034 119.495 1.33284Q119.576 1.45535 119.646 1.58528Q119.715 1.71522 119.772 1.85133Q119.828 1.98745 119.871 2.12844Q119.914 2.26942 119.942 2.41392Q119.971 2.55842 119.986 2.70505Q120 2.85167 120 2.999L120 3.001Q120 3.14833 119.986 3.29495Q119.971 3.44158 119.942 3.58608Q119.914 3.73058 119.871 3.87156Q119.828 4.01255 119.772 4.14867Q119.715 4.28478 119.646 4.41472Q119.576 4.54465 119.495 4.66715Q119.413 4.78966 119.319 4.90355Q119.226 5.01743 119.122 5.12161Q119.017 5.22579 118.904 5.31926Q118.79 5.41272 118.667 5.49458Q118.545 5.57643 118.415 5.64588Q118.285 5.71533 118.149 5.77171Q118.013 5.8281 117.872 5.87086Q117.731 5.91363 117.586 5.94237Q117.442 5.97112 117.295 5.98556Q117.148 6 117.001 6L2.999 6Q2.85167 6 2.70505 5.98556Q2.55842 5.97112 2.41392 5.94237Q2.26942 5.91363 2.12844 5.87086Q1.98745 5.8281 1.85133 5.77171Q1.71522 5.71533 1.58528 5.64588Q1.45535 5.57643 1.33284 5.49458Q1.21034 5.41272 1.09645 5.31926Q0.982566 5.22579 0.878387 5.12161Q0.774208 5.01743 0.680742 4.90355Q0.587276 4.78966 0.505423 4.66715Q0.42357 4.54465 0.354118 4.41472Q0.284667 4.28478 0.228285 4.14867Q0.171904 4.01255 0.129136 3.87156Q0.0863679 3.73058 0.0576249 3.58608Q0.028882 3.44158 0.014441 3.29495Q0 3.14833 0 3.001L0 2.999Q0 2.85167 0.014441 2.70505Q0.028882 2.55842 0.0576249 2.41392Q0.0863679 2.26942 0.129136 2.12844Q0.171904 1.98745 0.228285 1.85133Q0.284667 1.71522 0.354118 1.58528Q0.42357 1.45535 0.505423 1.33284Q0.587276 1.21034 0.680742 1.09645Q0.774208 0.982566 0.878387 0.878387Q0.982566 0.774208 1.09645 0.680742Q1.21034 0.587276 1.33284 0.505423Q1.45535 0.42357 1.58528 0.354118Q1.71522 0.284667 1.85133 0.228285Q1.98745 0.171904 2.12844 0.129136Q2.26942 0.0863679 2.41392 0.0576249Q2.55842 0.028882 2.70505 0.014441Q2.85167 0 2.999 0Z" id="Rectangle" fill="#FFFFFF" fill-opacity="0.75" stroke="none" />
                  <path d="M2.999 0L61.001 0Q61.1483 0 61.295 0.014441Q61.4416 0.028882 61.5861 0.0576249Q61.7306 0.0863679 61.8716 0.129136Q62.0125 0.171904 62.1487 0.228285Q62.2848 0.284667 62.4147 0.354118Q62.5446 0.42357 62.6671 0.505423Q62.7897 0.587276 62.9035 0.680742Q63.0174 0.774208 63.1216 0.878387Q63.2258 0.982566 63.3193 1.09645Q63.4127 1.21034 63.4946 1.33284Q63.5764 1.45535 63.6459 1.58528Q63.7153 1.71522 63.7717 1.85133Q63.8281 1.98745 63.8709 2.12844Q63.9136 2.26942 63.9424 2.41392Q63.9711 2.55843 63.9856 2.70505Q64 2.85167 64 2.999L64 3.001Q64 3.14833 63.9856 3.29495Q63.9711 3.44158 63.9424 3.58608Q63.9136 3.73058 63.8709 3.87156Q63.8281 4.01255 63.7717 4.14867Q63.7153 4.28478 63.6459 4.41472Q63.5764 4.54465 63.4946 4.66715Q63.4127 4.78966 63.3193 4.90355Q63.2258 5.01743 63.1216 5.12161Q63.0174 5.22579 62.9035 5.31926Q62.7897 5.41272 62.6672 5.49458Q62.5447 5.57643 62.4147 5.64588Q62.2848 5.71533 62.1487 5.77171Q62.0125 5.8281 61.8716 5.87086Q61.7306 5.91363 61.5861 5.94237Q61.4416 5.97112 61.2949 5.98556Q61.1483 6 61.001 6L2.999 6Q2.85167 6 2.70505 5.98556Q2.55842 5.97112 2.41392 5.94237Q2.26942 5.91363 2.12844 5.87086Q1.98745 5.8281 1.85133 5.77171Q1.71522 5.71533 1.58528 5.64588Q1.45535 5.57643 1.33284 5.49458Q1.21034 5.41272 1.09645 5.31926Q0.982566 5.22579 0.878387 5.12161Q0.774208 5.01743 0.680742 4.90354Q0.587276 4.78966 0.505423 4.66715Q0.42357 4.54465 0.354118 4.41472Q0.284667 4.28478 0.228285 4.14867Q0.171904 4.01255 0.129136 3.87156Q0.0863679 3.73058 0.0576249 3.58608Q0.028882 3.44157 0.014441 3.29495Q0 3.14833 0 3.001L0 2.999Q0 2.85167 0.014441 2.70505Q0.028882 2.55842 0.0576249 2.41392Q0.0863679 2.26942 0.129136 2.12844Q0.171904 1.98745 0.228285 1.85133Q0.284667 1.71522 0.354118 1.58528Q0.42357 1.45535 0.505423 1.33284Q0.587276 1.21034 0.680742 1.09645Q0.774208 0.982566 0.878387 0.878387Q0.982566 0.774208 1.09645 0.680742Q1.21034 0.587276 1.33284 0.505423Q1.45535 0.42357 1.58528 0.354118Q1.71522 0.284667 1.85133 0.228285Q1.98745 0.171904 2.12844 0.129136Q2.26942 0.0863679 2.41392 0.0576249Q2.55842 0.028882 2.70505 0.014441Q2.85167 0 2.999 0Z" transform="translate(0 14)" id="Rectangle-Copy-6" fill="#FFFFFF" fill-opacity="0.25" stroke="none" />
                </g>
              </g>
            </g>
            <g id="Group-26" transform="translate(57 96)">
              <path d="M7.999 0L253.001 0Q253.197 0 253.393 0.00963514Q253.59 0.0192703 253.785 0.0385174Q253.98 0.0577644 254.175 0.0865771Q254.369 0.11539 254.562 0.153699Q254.754 0.192007 254.945 0.23972Q255.135 0.287433 255.323 0.344434Q255.511 0.401436 255.696 0.467589Q255.881 0.533742 256.062 0.608888Q256.243 0.684033 256.421 0.76799Q256.599 0.851946 256.772 0.944512Q256.945 1.03708 257.113 1.13803Q257.282 1.23898 257.445 1.34807Q257.608 1.45717 257.766 1.57414Q257.924 1.69112 258.076 1.81569Q258.227 1.94026 258.373 2.07213Q258.518 2.204 258.657 2.34285Q258.796 2.4817 258.928 2.6272Q259.06 2.7727 259.184 2.92449Q259.309 3.07628 259.426 3.234Q259.543 3.39172 259.652 3.55499Q259.761 3.71826 259.862 3.88669Q259.963 4.05512 260.055 4.2283Q260.148 4.40148 260.232 4.57899Q260.316 4.7565 260.391 4.93791Q260.466 5.11933 260.532 5.30422Q260.599 5.4891 260.656 5.67701Q260.713 5.86492 260.76 6.0554Q260.808 6.24588 260.846 6.43847Q260.885 6.63106 260.913 6.8253Q260.942 7.01954 260.961 7.21496Q260.981 7.41038 260.99 7.60651Q261 7.80264 261 7.999L261 308.001Q261 308.197 260.99 308.393Q260.981 308.59 260.961 308.785Q260.942 308.98 260.913 309.175Q260.885 309.369 260.846 309.562Q260.808 309.754 260.76 309.945Q260.713 310.135 260.656 310.323Q260.599 310.511 260.532 310.696Q260.466 310.881 260.391 311.062Q260.316 311.243 260.232 311.421Q260.148 311.599 260.055 311.772Q259.963 311.945 259.862 312.113Q259.761 312.282 259.652 312.445Q259.543 312.608 259.426 312.766Q259.309 312.924 259.184 313.076Q259.06 313.227 258.928 313.373Q258.796 313.518 258.657 313.657Q258.518 313.796 258.373 313.928Q258.227 314.06 258.076 314.184Q257.924 314.309 257.766 314.426Q257.608 314.543 257.445 314.652Q257.282 314.761 257.113 314.862Q256.945 314.963 256.772 315.055Q256.599 315.148 256.421 315.232Q256.243 315.316 256.062 315.391Q255.881 315.466 255.696 315.532Q255.511 315.599 255.323 315.656Q255.135 315.713 254.945 315.76Q254.754 315.808 254.562 315.846Q254.369 315.885 254.175 315.913Q253.98 315.942 253.785 315.961Q253.59 315.981 253.393 315.99Q253.197 316 253.001 316L7.999 316Q7.80264 316 7.60651 315.99Q7.41038 315.981 7.21496 315.961Q7.01954 315.942 6.8253 315.913Q6.63106 315.885 6.43847 315.846Q6.24588 315.808 6.0554 315.76Q5.86492 315.713 5.67701 315.656Q5.4891 315.599 5.30422 315.532Q5.11933 315.466 4.93791 315.391Q4.7565 315.316 4.57899 315.232Q4.40148 315.148 4.2283 315.055Q4.05512 314.963 3.88669 314.862Q3.71826 314.761 3.55499 314.652Q3.39172 314.543 3.234 314.426Q3.07628 314.309 2.92449 314.184Q2.7727 314.06 2.6272 313.928Q2.4817 313.796 2.34285 313.657Q2.204 313.518 2.07213 313.373Q1.94026 313.227 1.81569 313.076Q1.69112 312.924 1.57414 312.766Q1.45717 312.608 1.34807 312.445Q1.23898 312.282 1.13803 312.113Q1.03708 311.945 0.944512 311.772Q0.851946 311.599 0.76799 311.421Q0.684033 311.243 0.608888 311.062Q0.533742 310.881 0.467589 310.696Q0.401436 310.511 0.344434 310.323Q0.287433 310.135 0.23972 309.945Q0.192007 309.754 0.153699 309.561Q0.11539 309.369 0.0865771 309.175Q0.0577644 308.98 0.0385174 308.785Q0.0192703 308.59 0.00963514 308.393Q0 308.197 0 308.001L0 7.999Q0 7.80264 0.00963514 7.60651Q0.0192703 7.41038 0.0385174 7.21496Q0.0577644 7.01954 0.0865771 6.8253Q0.11539 6.63106 0.153699 6.43847Q0.192007 6.24588 0.23972 6.0554Q0.287433 5.86492 0.344434 5.67701Q0.401436 5.4891 0.467589 5.30422Q0.533742 5.11933 0.608888 4.93791Q0.684033 4.7565 0.76799 4.57899Q0.851946 4.40148 0.944512 4.2283Q1.03708 4.05512 1.13803 3.88669Q1.23898 3.71826 1.34807 3.55499Q1.45717 3.39172 1.57414 3.234Q1.69112 3.07628 1.81569 2.92449Q1.94026 2.7727 2.07213 2.6272Q2.204 2.4817 2.34285 2.34285Q2.4817 2.204 2.6272 2.07213Q2.7727 1.94026 2.92449 1.81569Q3.07628 1.69112 3.234 1.57414Q3.39172 1.45717 3.55499 1.34807Q3.71826 1.23898 3.88669 1.13803Q4.05512 1.03708 4.2283 0.944512Q4.40148 0.851946 4.57899 0.76799Q4.7565 0.684033 4.93791 0.608888Q5.11933 0.533742 5.30422 0.467589Q5.4891 0.401436 5.67701 0.344434Q5.86492 0.287433 6.0554 0.23972Q6.24588 0.192007 6.43847 0.153699Q6.63106 0.11539 6.8253 0.0865771Q7.01954 0.0577644 7.21496 0.0385174Q7.41038 0.0192703 7.60651 0.00963514Q7.80264 0 7.999 0Z" id="Rectangle" fill="#FFFFFF" stroke="none" />
              <path d="M7.999 0L120.001 0Q120.197 0 120.393 0.00963514Q120.59 0.0192703 120.785 0.0385174Q120.98 0.0577644 121.175 0.0865771Q121.369 0.11539 121.562 0.153699Q121.754 0.192007 121.945 0.23972Q122.135 0.287433 122.323 0.344434Q122.511 0.401436 122.696 0.467589Q122.881 0.533742 123.062 0.608888Q123.243 0.684033 123.421 0.76799Q123.599 0.851946 123.772 0.944512Q123.945 1.03708 124.113 1.13803Q124.282 1.23898 124.445 1.34807Q124.608 1.45717 124.766 1.57414Q124.924 1.69112 125.076 1.81569Q125.227 1.94026 125.373 2.07213Q125.518 2.204 125.657 2.34285Q125.796 2.4817 125.928 2.6272Q126.06 2.7727 126.184 2.92449Q126.309 3.07628 126.426 3.234Q126.543 3.39172 126.652 3.55499Q126.761 3.71826 126.862 3.88669Q126.963 4.05512 127.055 4.2283Q127.148 4.40148 127.232 4.57899Q127.316 4.7565 127.391 4.93791Q127.466 5.11933 127.532 5.30422Q127.599 5.4891 127.656 5.67701Q127.713 5.86492 127.76 6.0554Q127.808 6.24588 127.846 6.43847Q127.885 6.63106 127.913 6.8253Q127.942 7.01954 127.961 7.21496Q127.981 7.41038 127.99 7.60651Q128 7.80264 128 7.999L128 308.001Q128 308.197 127.99 308.393Q127.981 308.59 127.961 308.785Q127.942 308.98 127.913 309.175Q127.885 309.369 127.846 309.562Q127.808 309.754 127.76 309.945Q127.713 310.135 127.656 310.323Q127.599 310.511 127.532 310.696Q127.466 310.881 127.391 311.062Q127.316 311.243 127.232 311.421Q127.148 311.599 127.055 311.772Q126.963 311.945 126.862 312.113Q126.761 312.282 126.652 312.445Q126.543 312.608 126.426 312.766Q126.309 312.924 126.184 313.076Q126.06 313.227 125.928 313.373Q125.796 313.518 125.657 313.657Q125.518 313.796 125.373 313.928Q125.227 314.06 125.076 314.184Q124.924 314.309 124.766 314.426Q124.608 314.543 124.445 314.652Q124.282 314.761 124.113 314.862Q123.945 314.963 123.772 315.055Q123.599 315.148 123.421 315.232Q123.243 315.316 123.062 315.391Q122.881 315.466 122.696 315.532Q122.511 315.599 122.323 315.656Q122.135 315.713 121.945 315.76Q121.754 315.808 121.562 315.846Q121.369 315.885 121.175 315.913Q120.98 315.942 120.785 315.961Q120.59 315.981 120.393 315.99Q120.197 316 120.001 316L7.999 316Q7.80264 316 7.60651 315.99Q7.41038 315.981 7.21496 315.961Q7.01954 315.942 6.8253 315.913Q6.63106 315.885 6.43847 315.846Q6.24588 315.808 6.0554 315.76Q5.86492 315.713 5.67701 315.656Q5.4891 315.599 5.30422 315.532Q5.11933 315.466 4.93791 315.391Q4.7565 315.316 4.57899 315.232Q4.40148 315.148 4.2283 315.055Q4.05512 314.963 3.88669 314.862Q3.71826 314.761 3.55499 314.652Q3.39172 314.543 3.234 314.426Q3.07628 314.309 2.92449 314.184Q2.7727 314.06 2.6272 313.928Q2.4817 313.796 2.34285 313.657Q2.204 313.518 2.07213 313.373Q1.94026 313.227 1.81569 313.076Q1.69112 312.924 1.57414 312.766Q1.45717 312.608 1.34807 312.445Q1.23898 312.282 1.13803 312.113Q1.03708 311.945 0.944512 311.772Q0.851946 311.599 0.76799 311.421Q0.684033 311.243 0.608888 311.062Q0.533742 310.881 0.467589 310.696Q0.401436 310.511 0.344434 310.323Q0.287433 310.135 0.23972 309.945Q0.192007 309.754 0.153699 309.561Q0.11539 309.369 0.0865771 309.175Q0.0577644 308.98 0.0385174 308.785Q0.0192703 308.59 0.00963514 308.393Q0 308.197 0 308.001L0 7.999Q0 7.80264 0.00963514 7.60651Q0.0192703 7.41038 0.0385174 7.21496Q0.0577644 7.01954 0.0865771 6.8253Q0.11539 6.63106 0.153699 6.43847Q0.192007 6.24588 0.23972 6.0554Q0.287433 5.86492 0.344434 5.67701Q0.401436 5.4891 0.467589 5.30422Q0.533742 5.11933 0.608888 4.93791Q0.684033 4.7565 0.76799 4.57899Q0.851946 4.40148 0.944512 4.2283Q1.03708 4.05512 1.13803 3.88669Q1.23898 3.71826 1.34807 3.55499Q1.45717 3.39172 1.57414 3.234Q1.69112 3.07628 1.81569 2.92449Q1.94026 2.7727 2.07213 2.6272Q2.204 2.4817 2.34285 2.34285Q2.4817 2.204 2.6272 2.07213Q2.7727 1.94026 2.92449 1.81569Q3.07628 1.69112 3.234 1.57414Q3.39172 1.45717 3.55499 1.34807Q3.71826 1.23898 3.88669 1.13803Q4.05512 1.03708 4.2283 0.944512Q4.40148 0.851946 4.57899 0.76799Q4.7565 0.684033 4.93791 0.608888Q5.11933 0.533742 5.30422 0.467589Q5.4891 0.401436 5.67701 0.344434Q5.86492 0.287433 6.0554 0.23972Q6.24588 0.192007 6.43847 0.153699Q6.63106 0.11539 6.8253 0.0865771Q7.01954 0.0577644 7.21496 0.0385174Q7.41038 0.0192703 7.60651 0.00963514Q7.80264 0 7.999 0Z" transform="translate(295 0)" id="Rectangle-Copy-7" fill="#FFFFFF" stroke="none" />
              <path d="M2.999 0L117.001 0Q117.148 0 117.295 0.014441Q117.442 0.028882 117.586 0.0576249Q117.731 0.0863679 117.872 0.129136Q118.013 0.171904 118.149 0.228285Q118.285 0.284667 118.415 0.354118Q118.545 0.42357 118.667 0.505423Q118.79 0.587276 118.904 0.680742Q119.017 0.774208 119.122 0.878387Q119.226 0.982566 119.319 1.09645Q119.413 1.21034 119.495 1.33284Q119.576 1.45535 119.646 1.58528Q119.715 1.71522 119.772 1.85133Q119.828 1.98745 119.871 2.12844Q119.914 2.26942 119.942 2.41392Q119.971 2.55842 119.986 2.70505Q120 2.85167 120 2.999L120 3.001Q120 3.14833 119.986 3.29495Q119.971 3.44158 119.942 3.58608Q119.914 3.73058 119.871 3.87156Q119.828 4.01255 119.772 4.14867Q119.715 4.28478 119.646 4.41472Q119.576 4.54465 119.495 4.66715Q119.413 4.78966 119.319 4.90355Q119.226 5.01743 119.122 5.12161Q119.017 5.22579 118.904 5.31926Q118.79 5.41272 118.667 5.49458Q118.545 5.57643 118.415 5.64588Q118.285 5.71533 118.149 5.77171Q118.013 5.8281 117.872 5.87086Q117.731 5.91363 117.586 5.94237Q117.442 5.97112 117.295 5.98556Q117.148 6 117.001 6L2.999 6Q2.85167 6 2.70505 5.98556Q2.55842 5.97112 2.41392 5.94237Q2.26942 5.91363 2.12844 5.87086Q1.98745 5.8281 1.85133 5.77171Q1.71522 5.71533 1.58528 5.64588Q1.45535 5.57643 1.33284 5.49458Q1.21034 5.41272 1.09645 5.31926Q0.982566 5.22579 0.878387 5.12161Q0.774208 5.01743 0.680742 4.90355Q0.587276 4.78966 0.505423 4.66715Q0.42357 4.54465 0.354118 4.41472Q0.284667 4.28478 0.228285 4.14867Q0.171904 4.01255 0.129136 3.87156Q0.0863679 3.73058 0.0576249 3.58608Q0.028882 3.44158 0.014441 3.29495Q0 3.14833 0 3.001L0 2.999Q0 2.85167 0.014441 2.70505Q0.028882 2.55842 0.0576249 2.41392Q0.0863679 2.26942 0.129136 2.12844Q0.171904 1.98745 0.228285 1.85133Q0.284667 1.71522 0.354118 1.58528Q0.42357 1.45535 0.505423 1.33284Q0.587276 1.21034 0.680742 1.09645Q0.774208 0.982566 0.878387 0.878387Q0.982566 0.774208 1.09645 0.680742Q1.21034 0.587276 1.33284 0.505423Q1.45535 0.42357 1.58528 0.354118Q1.71522 0.284667 1.85133 0.228285Q1.98745 0.171904 2.12844 0.129136Q2.26942 0.0863679 2.41392 0.0576249Q2.55842 0.028882 2.70505 0.014441Q2.85167 0 2.999 0Z" transform="translate(78.46957 38.19707)" id="Rectangle" fill="#242A45" fill-opacity="0.5" stroke="none" />
            </g>
          </g>
        </g>
      </g>
    </g>
    <g id="Group-29" transform="translate(110 135)">
      <path d="M16 32C24.8366 32 32 24.8366 32 16C32 7.16344 24.8366 0 16 0C7.16344 0 0 7.16344 0 16C0 24.8366 7.16344 32 16 32Z" transform="translate(0 10)" id="Oval" fill="#F98E5D" stroke="none" />
      <path d="M2.999 0L85.001 0Q85.1483 0 85.295 0.014441Q85.4416 0.028882 85.5861 0.0576249Q85.7306 0.0863679 85.8716 0.129136Q86.0126 0.171904 86.1487 0.228285Q86.2848 0.284667 86.4147 0.354118Q86.5446 0.42357 86.6671 0.505423Q86.7896 0.587276 86.9035 0.680742Q87.0174 0.774208 87.1216 0.878387Q87.2258 0.982566 87.3193 1.09645Q87.4127 1.21034 87.4946 1.33284Q87.5764 1.45535 87.6459 1.58528Q87.7153 1.71522 87.7717 1.85133Q87.8281 1.98745 87.8709 2.12844Q87.9136 2.26942 87.9424 2.41392Q87.9711 2.55842 87.9856 2.70505Q88 2.85167 88 2.999L88 3.001Q88 3.14833 87.9856 3.29495Q87.9711 3.44158 87.9424 3.58608Q87.9136 3.73058 87.8709 3.87156Q87.8281 4.01255 87.7717 4.14867Q87.7153 4.28478 87.6459 4.41472Q87.5764 4.54465 87.4946 4.66715Q87.4127 4.78966 87.3193 4.90355Q87.2258 5.01743 87.1216 5.12161Q87.0174 5.22579 86.9035 5.31926Q86.7896 5.41272 86.6671 5.49458Q86.5446 5.57643 86.4147 5.64588Q86.2848 5.71533 86.1487 5.77171Q86.0126 5.8281 85.8716 5.87086Q85.7306 5.91363 85.5861 5.94237Q85.4416 5.97112 85.295 5.98556Q85.1483 6 85.001 6L2.999 6Q2.85167 6 2.70505 5.98556Q2.55842 5.97112 2.41392 5.94237Q2.26942 5.91363 2.12844 5.87086Q1.98745 5.8281 1.85133 5.77171Q1.71522 5.71533 1.58528 5.64588Q1.45535 5.57643 1.33284 5.49458Q1.21034 5.41272 1.09645 5.31926Q0.982566 5.22579 0.878387 5.12161Q0.774208 5.01743 0.680742 4.90355Q0.587276 4.78966 0.505423 4.66715Q0.42357 4.54465 0.354118 4.41472Q0.284667 4.28478 0.228285 4.14867Q0.171904 4.01255 0.129136 3.87156Q0.0863679 3.73058 0.0576249 3.58608Q0.028882 3.44158 0.014441 3.29495Q0 3.14833 0 3.001L0 2.999Q0 2.85167 0.014441 2.70505Q0.028882 2.55842 0.0576249 2.41392Q0.0863679 2.26942 0.129136 2.12844Q0.171904 1.98745 0.228285 1.85133Q0.284667 1.71522 0.354118 1.58528Q0.42357 1.45535 0.505423 1.33284Q0.587276 1.21034 0.680742 1.09645Q0.774208 0.982566 0.878387 0.878387Q0.982566 0.774208 1.09645 0.680742Q1.21034 0.587276 1.33284 0.505423Q1.45535 0.42357 1.58528 0.354118Q1.71522 0.284667 1.85133 0.228285Q1.98745 0.171904 2.12844 0.129136Q2.26942 0.0863679 2.41392 0.0576249Q2.55842 0.028882 2.70505 0.014441Q2.85167 0 2.999 0L2.999 0Z" transform="translate(284 0)" id="Rectangle" fill="#242A45" fill-opacity="0.25" stroke="none" />
      <path d="M2.999 0L85.001 0Q85.1483 0 85.295 0.014441Q85.4416 0.028882 85.5861 0.0576249Q85.7306 0.0863679 85.8716 0.129136Q86.0126 0.171904 86.1487 0.228285Q86.2848 0.284667 86.4147 0.354118Q86.5446 0.42357 86.6671 0.505423Q86.7896 0.587276 86.9035 0.680742Q87.0174 0.774208 87.1216 0.878387Q87.2258 0.982566 87.3193 1.09645Q87.4127 1.21034 87.4946 1.33284Q87.5764 1.45535 87.6459 1.58528Q87.7153 1.71522 87.7717 1.85133Q87.8281 1.98745 87.8709 2.12844Q87.9136 2.26942 87.9424 2.41392Q87.9711 2.55842 87.9856 2.70505Q88 2.85167 88 2.999L88 3.001Q88 3.14833 87.9856 3.29495Q87.9711 3.44158 87.9424 3.58608Q87.9136 3.73058 87.8709 3.87156Q87.8281 4.01255 87.7717 4.14867Q87.7153 4.28478 87.6459 4.41472Q87.5764 4.54465 87.4946 4.66715Q87.4127 4.78966 87.3193 4.90355Q87.2258 5.01743 87.1216 5.12161Q87.0174 5.22579 86.9035 5.31926Q86.7896 5.41272 86.6671 5.49458Q86.5446 5.57643 86.4147 5.64588Q86.2848 5.71533 86.1487 5.77171Q86.0126 5.8281 85.8716 5.87086Q85.7306 5.91363 85.5861 5.94237Q85.4416 5.97112 85.295 5.98556Q85.1483 6 85.001 6L2.999 6Q2.85167 6 2.70505 5.98556Q2.55842 5.97112 2.41392 5.94237Q2.26942 5.91363 2.12844 5.87086Q1.98745 5.8281 1.85133 5.77171Q1.71522 5.71533 1.58528 5.64588Q1.45535 5.57643 1.33284 5.49458Q1.21034 5.41272 1.09645 5.31926Q0.982566 5.22579 0.878387 5.12161Q0.774208 5.01743 0.680742 4.90355Q0.587276 4.78966 0.505423 4.66715Q0.42357 4.54465 0.354118 4.41472Q0.284667 4.28478 0.228285 4.14867Q0.171904 4.01255 0.129136 3.87156Q0.0863679 3.73058 0.0576249 3.58608Q0.028882 3.44158 0.014441 3.29495Q0 3.14833 0 3.001L0 2.999Q0 2.85167 0.014441 2.70505Q0.028882 2.55842 0.0576249 2.41392Q0.0863679 2.26942 0.129136 2.12844Q0.171904 1.98745 0.228285 1.85133Q0.284667 1.71522 0.354118 1.58528Q0.42357 1.45535 0.505423 1.33284Q0.587276 1.21034 0.680742 1.09645Q0.774208 0.982566 0.878387 0.878387Q0.982566 0.774208 1.09645 0.680742Q1.21034 0.587276 1.33284 0.505423Q1.45535 0.42357 1.58528 0.354118Q1.71522 0.284667 1.85133 0.228285Q1.98745 0.171904 2.12844 0.129136Q2.26942 0.0863679 2.41392 0.0576249Q2.55842 0.028882 2.70505 0.014441Q2.85167 0 2.999 0L2.999 0Z" transform="translate(284 20)" id="Rectangle-Copy-8" fill="#242A45" fill-opacity="0.25" stroke="none" />
      <path d="M2.999 0L85.001 0Q85.1483 0 85.295 0.014441Q85.4416 0.028882 85.5861 0.0576249Q85.7306 0.0863679 85.8716 0.129136Q86.0126 0.171904 86.1487 0.228285Q86.2848 0.284667 86.4147 0.354118Q86.5446 0.42357 86.6671 0.505423Q86.7896 0.587276 86.9035 0.680742Q87.0174 0.774208 87.1216 0.878387Q87.2258 0.982566 87.3193 1.09645Q87.4127 1.21034 87.4946 1.33284Q87.5764 1.45535 87.6459 1.58528Q87.7153 1.71522 87.7717 1.85133Q87.8281 1.98745 87.8709 2.12844Q87.9136 2.26942 87.9424 2.41392Q87.9711 2.55842 87.9856 2.70505Q88 2.85167 88 2.999L88 3.001Q88 3.14833 87.9856 3.29495Q87.9711 3.44158 87.9424 3.58608Q87.9136 3.73058 87.8709 3.87156Q87.8281 4.01255 87.7717 4.14867Q87.7153 4.28478 87.6459 4.41472Q87.5764 4.54465 87.4946 4.66715Q87.4127 4.78966 87.3193 4.90355Q87.2258 5.01743 87.1216 5.12161Q87.0174 5.22579 86.9035 5.31926Q86.7896 5.41272 86.6671 5.49458Q86.5446 5.57643 86.4147 5.64588Q86.2848 5.71533 86.1487 5.77171Q86.0126 5.8281 85.8716 5.87086Q85.7306 5.91363 85.5861 5.94237Q85.4416 5.97112 85.295 5.98556Q85.1483 6 85.001 6L2.999 6Q2.85167 6 2.70505 5.98556Q2.55842 5.97112 2.41392 5.94237Q2.26942 5.91363 2.12844 5.87086Q1.98745 5.8281 1.85133 5.77171Q1.71522 5.71533 1.58528 5.64588Q1.45535 5.57643 1.33284 5.49458Q1.21034 5.41272 1.09645 5.31926Q0.982566 5.22579 0.878387 5.12161Q0.774208 5.01743 0.680742 4.90355Q0.587276 4.78966 0.505423 4.66715Q0.42357 4.54465 0.354118 4.41472Q0.284667 4.28478 0.228285 4.14867Q0.171904 4.01255 0.129136 3.87156Q0.0863679 3.73058 0.0576249 3.58608Q0.028882 3.44158 0.014441 3.29495Q0 3.14833 0 3.001L0 2.999Q0 2.85167 0.014441 2.70505Q0.028882 2.55842 0.0576249 2.41392Q0.0863679 2.26942 0.129136 2.12844Q0.171904 1.98745 0.228285 1.85133Q0.284667 1.71522 0.354118 1.58528Q0.42357 1.45535 0.505423 1.33284Q0.587276 1.21034 0.680742 1.09645Q0.774208 0.982566 0.878387 0.878387Q0.982566 0.774208 1.09645 0.680742Q1.21034 0.587276 1.33284 0.505423Q1.45535 0.42357 1.58528 0.354118Q1.71522 0.284667 1.85133 0.228285Q1.98745 0.171904 2.12844 0.129136Q2.26942 0.0863679 2.41392 0.0576249Q2.55842 0.028882 2.70505 0.014441Q2.85167 0 2.999 0L2.999 0Z" transform="translate(284 40)" id="Rectangle-Copy-9" fill="#242A45" fill-opacity="0.25" stroke="none" />
      <path d="M2.999 0L85.001 0Q85.1483 0 85.295 0.014441Q85.4416 0.028882 85.5861 0.0576249Q85.7306 0.0863679 85.8716 0.129136Q86.0126 0.171904 86.1487 0.228285Q86.2848 0.284667 86.4147 0.354118Q86.5446 0.42357 86.6671 0.505423Q86.7896 0.587276 86.9035 0.680742Q87.0174 0.774208 87.1216 0.878387Q87.2258 0.982566 87.3193 1.09645Q87.4127 1.21034 87.4946 1.33284Q87.5764 1.45535 87.6459 1.58528Q87.7153 1.71522 87.7717 1.85133Q87.8281 1.98745 87.8709 2.12844Q87.9136 2.26942 87.9424 2.41392Q87.9711 2.55842 87.9856 2.70505Q88 2.85167 88 2.999L88 3.001Q88 3.14833 87.9856 3.29495Q87.9711 3.44158 87.9424 3.58608Q87.9136 3.73058 87.8709 3.87156Q87.8281 4.01255 87.7717 4.14867Q87.7153 4.28478 87.6459 4.41472Q87.5764 4.54465 87.4946 4.66715Q87.4127 4.78966 87.3193 4.90355Q87.2258 5.01743 87.1216 5.12161Q87.0174 5.22579 86.9035 5.31926Q86.7896 5.41272 86.6671 5.49458Q86.5446 5.57643 86.4147 5.64588Q86.2848 5.71533 86.1487 5.77171Q86.0126 5.8281 85.8716 5.87086Q85.7306 5.91363 85.5861 5.94237Q85.4416 5.97112 85.295 5.98556Q85.1483 6 85.001 6L2.999 6Q2.85167 6 2.70505 5.98556Q2.55842 5.97112 2.41392 5.94237Q2.26942 5.91363 2.12844 5.87086Q1.98745 5.8281 1.85133 5.77171Q1.71522 5.71533 1.58528 5.64588Q1.45535 5.57643 1.33284 5.49458Q1.21034 5.41272 1.09645 5.31926Q0.982566 5.22579 0.878387 5.12161Q0.774208 5.01743 0.680742 4.90355Q0.587276 4.78966 0.505423 4.66715Q0.42357 4.54465 0.354118 4.41472Q0.284667 4.28478 0.228285 4.14867Q0.171904 4.01255 0.129136 3.87156Q0.0863679 3.73058 0.0576249 3.58608Q0.028882 3.44158 0.014441 3.29495Q0 3.14833 0 3.001L0 2.999Q0 2.85167 0.014441 2.70505Q0.028882 2.55842 0.0576249 2.41392Q0.0863679 2.26942 0.129136 2.12844Q0.171904 1.98745 0.228285 1.85133Q0.284667 1.71522 0.354118 1.58528Q0.42357 1.45535 0.505423 1.33284Q0.587276 1.21034 0.680742 1.09645Q0.774208 0.982566 0.878387 0.878387Q0.982566 0.774208 1.09645 0.680742Q1.21034 0.587276 1.33284 0.505423Q1.45535 0.42357 1.58528 0.354118Q1.71522 0.284667 1.85133 0.228285Q1.98745 0.171904 2.12844 0.129136Q2.26942 0.0863679 2.41392 0.0576249Q2.55842 0.028882 2.70505 0.014441Q2.85167 0 2.999 0L2.999 0Z" transform="translate(284 60)" id="Rectangle-Copy-10" fill="#242A45" fill-opacity="0.25" stroke="none" />
      <path d="M2.999 0L85.001 0Q85.1483 0 85.295 0.014441Q85.4416 0.028882 85.5861 0.0576249Q85.7306 0.0863679 85.8716 0.129136Q86.0126 0.171904 86.1487 0.228285Q86.2848 0.284667 86.4147 0.354118Q86.5446 0.42357 86.6671 0.505423Q86.7896 0.587276 86.9035 0.680742Q87.0174 0.774208 87.1216 0.878387Q87.2258 0.982566 87.3193 1.09645Q87.4127 1.21034 87.4946 1.33284Q87.5764 1.45535 87.6459 1.58528Q87.7153 1.71522 87.7717 1.85133Q87.8281 1.98745 87.8709 2.12844Q87.9136 2.26942 87.9424 2.41392Q87.9711 2.55842 87.9856 2.70505Q88 2.85167 88 2.999L88 3.001Q88 3.14833 87.9856 3.29495Q87.9711 3.44158 87.9424 3.58608Q87.9136 3.73058 87.8709 3.87156Q87.8281 4.01255 87.7717 4.14867Q87.7153 4.28478 87.6459 4.41472Q87.5764 4.54465 87.4946 4.66715Q87.4127 4.78966 87.3193 4.90355Q87.2258 5.01743 87.1216 5.12161Q87.0174 5.22579 86.9035 5.31926Q86.7896 5.41272 86.6671 5.49458Q86.5446 5.57643 86.4147 5.64588Q86.2848 5.71533 86.1487 5.77171Q86.0126 5.8281 85.8716 5.87086Q85.7306 5.91363 85.5861 5.94237Q85.4416 5.97112 85.295 5.98556Q85.1483 6 85.001 6L2.999 6Q2.85167 6 2.70505 5.98556Q2.55842 5.97112 2.41392 5.94237Q2.26942 5.91363 2.12844 5.87086Q1.98745 5.8281 1.85133 5.77171Q1.71522 5.71533 1.58528 5.64588Q1.45535 5.57643 1.33284 5.49458Q1.21034 5.41272 1.09645 5.31926Q0.982566 5.22579 0.878387 5.12161Q0.774208 5.01743 0.680742 4.90355Q0.587276 4.78966 0.505423 4.66715Q0.42357 4.54465 0.354118 4.41472Q0.284667 4.28478 0.228285 4.14867Q0.171904 4.01255 0.129136 3.87156Q0.0863679 3.73058 0.0576249 3.58608Q0.028882 3.44158 0.014441 3.29495Q0 3.14833 0 3.001L0 2.999Q0 2.85167 0.014441 2.70505Q0.028882 2.55842 0.0576249 2.41392Q0.0863679 2.26942 0.129136 2.12844Q0.171904 1.98745 0.228285 1.85133Q0.284667 1.71522 0.354118 1.58528Q0.42357 1.45535 0.505423 1.33284Q0.587276 1.21034 0.680742 1.09645Q0.774208 0.982566 0.878387 0.878387Q0.982566 0.774208 1.09645 0.680742Q1.21034 0.587276 1.33284 0.505423Q1.45535 0.42357 1.58528 0.354118Q1.71522 0.284667 1.85133 0.228285Q1.98745 0.171904 2.12844 0.129136Q2.26942 0.0863679 2.41392 0.0576249Q2.55842 0.028882 2.70505 0.014441Q2.85167 0 2.999 0L2.999 0Z" transform="translate(284 94)" id="Rectangle-Copy-11" fill="#242A45" fill-opacity="0.25" stroke="none" />
      <path d="M2.999 0L85.001 0Q85.1483 0 85.295 0.014441Q85.4416 0.028882 85.5861 0.0576249Q85.7306 0.0863679 85.8716 0.129136Q86.0126 0.171904 86.1487 0.228285Q86.2848 0.284667 86.4147 0.354118Q86.5446 0.42357 86.6671 0.505423Q86.7896 0.587276 86.9035 0.680742Q87.0174 0.774208 87.1216 0.878387Q87.2258 0.982566 87.3193 1.09645Q87.4127 1.21034 87.4946 1.33284Q87.5764 1.45535 87.6459 1.58528Q87.7153 1.71522 87.7717 1.85133Q87.8281 1.98745 87.8709 2.12844Q87.9136 2.26942 87.9424 2.41392Q87.9711 2.55842 87.9856 2.70505Q88 2.85167 88 2.999L88 3.001Q88 3.14833 87.9856 3.29495Q87.9711 3.44158 87.9424 3.58608Q87.9136 3.73058 87.8709 3.87156Q87.8281 4.01255 87.7717 4.14867Q87.7153 4.28478 87.6459 4.41472Q87.5764 4.54465 87.4946 4.66715Q87.4127 4.78966 87.3193 4.90355Q87.2258 5.01743 87.1216 5.12161Q87.0174 5.22579 86.9035 5.31926Q86.7896 5.41272 86.6671 5.49458Q86.5446 5.57643 86.4147 5.64588Q86.2848 5.71533 86.1487 5.77171Q86.0126 5.8281 85.8716 5.87086Q85.7306 5.91363 85.5861 5.94237Q85.4416 5.97112 85.295 5.98556Q85.1483 6 85.001 6L2.999 6Q2.85167 6 2.70505 5.98556Q2.55842 5.97112 2.41392 5.94237Q2.26942 5.91363 2.12844 5.87086Q1.98745 5.8281 1.85133 5.77171Q1.71522 5.71533 1.58528 5.64588Q1.45535 5.57643 1.33284 5.49458Q1.21034 5.41272 1.09645 5.31926Q0.982566 5.22579 0.878387 5.12161Q0.774208 5.01743 0.680742 4.90355Q0.587276 4.78966 0.505423 4.66715Q0.42357 4.54465 0.354118 4.41472Q0.284667 4.28478 0.228285 4.14867Q0.171904 4.01255 0.129136 3.87156Q0.0863679 3.73058 0.0576249 3.58608Q0.028882 3.44158 0.014441 3.29495Q0 3.14833 0 3.001L0 2.999Q0 2.85167 0.014441 2.70505Q0.028882 2.55842 0.0576249 2.41392Q0.0863679 2.26942 0.129136 2.12844Q0.171904 1.98745 0.228285 1.85133Q0.284667 1.71522 0.354118 1.58528Q0.42357 1.45535 0.505423 1.33284Q0.587276 1.21034 0.680742 1.09645Q0.774208 0.982566 0.878387 0.878387Q0.982566 0.774208 1.09645 0.680742Q1.21034 0.587276 1.33284 0.505423Q1.45535 0.42357 1.58528 0.354118Q1.71522 0.284667 1.85133 0.228285Q1.98745 0.171904 2.12844 0.129136Q2.26942 0.0863679 2.41392 0.0576249Q2.55842 0.028882 2.70505 0.014441Q2.85167 0 2.999 0L2.999 0Z" transform="translate(284 114)" id="Rectangle-Copy-12" fill="#242A45" fill-opacity="0.25" stroke="none" />
      <path d="M2.999 0L85.001 0Q85.1483 0 85.295 0.014441Q85.4416 0.028882 85.5861 0.0576249Q85.7306 0.0863679 85.8716 0.129136Q86.0126 0.171904 86.1487 0.228285Q86.2848 0.284667 86.4147 0.354118Q86.5446 0.42357 86.6671 0.505423Q86.7896 0.587276 86.9035 0.680742Q87.0174 0.774208 87.1216 0.878387Q87.2258 0.982566 87.3193 1.09645Q87.4127 1.21034 87.4946 1.33284Q87.5764 1.45535 87.6459 1.58528Q87.7153 1.71522 87.7717 1.85133Q87.8281 1.98745 87.8709 2.12844Q87.9136 2.26942 87.9424 2.41392Q87.9711 2.55842 87.9856 2.70505Q88 2.85167 88 2.999L88 3.001Q88 3.14833 87.9856 3.29495Q87.9711 3.44158 87.9424 3.58608Q87.9136 3.73058 87.8709 3.87156Q87.8281 4.01255 87.7717 4.14867Q87.7153 4.28478 87.6459 4.41472Q87.5764 4.54465 87.4946 4.66715Q87.4127 4.78966 87.3193 4.90355Q87.2258 5.01743 87.1216 5.12161Q87.0174 5.22579 86.9035 5.31926Q86.7896 5.41272 86.6671 5.49458Q86.5446 5.57643 86.4147 5.64588Q86.2848 5.71533 86.1487 5.77171Q86.0126 5.8281 85.8716 5.87086Q85.7306 5.91363 85.5861 5.94237Q85.4416 5.97112 85.295 5.98556Q85.1483 6 85.001 6L2.999 6Q2.85167 6 2.70505 5.98556Q2.55842 5.97112 2.41392 5.94237Q2.26942 5.91363 2.12844 5.87086Q1.98745 5.8281 1.85133 5.77171Q1.71522 5.71533 1.58528 5.64588Q1.45535 5.57643 1.33284 5.49458Q1.21034 5.41272 1.09645 5.31926Q0.982566 5.22579 0.878387 5.12161Q0.774208 5.01743 0.680742 4.90355Q0.587276 4.78966 0.505423 4.66715Q0.42357 4.54465 0.354118 4.41472Q0.284667 4.28478 0.228285 4.14867Q0.171904 4.01255 0.129136 3.87156Q0.0863679 3.73058 0.0576249 3.58608Q0.028882 3.44158 0.014441 3.29495Q0 3.14833 0 3.001L0 2.999Q0 2.85167 0.014441 2.70505Q0.028882 2.55842 0.0576249 2.41392Q0.0863679 2.26942 0.129136 2.12844Q0.171904 1.98745 0.228285 1.85133Q0.284667 1.71522 0.354118 1.58528Q0.42357 1.45535 0.505423 1.33284Q0.587276 1.21034 0.680742 1.09645Q0.774208 0.982566 0.878387 0.878387Q0.982566 0.774208 1.09645 0.680742Q1.21034 0.587276 1.33284 0.505423Q1.45535 0.42357 1.58528 0.354118Q1.71522 0.284667 1.85133 0.228285Q1.98745 0.171904 2.12844 0.129136Q2.26942 0.0863679 2.41392 0.0576249Q2.55842 0.028882 2.70505 0.014441Q2.85167 0 2.999 0L2.999 0Z" transform="translate(284 134)" id="Rectangle-Copy-13" fill="#242A45" fill-opacity="0.25" stroke="none" />
      <path d="M2.999 0L61.001 0Q61.1483 0 61.295 0.014441Q61.4416 0.028882 61.5861 0.0576249Q61.7306 0.0863679 61.8716 0.129136Q62.0125 0.171904 62.1487 0.228285Q62.2848 0.284667 62.4147 0.354118Q62.5446 0.42357 62.6671 0.505423Q62.7897 0.587276 62.9035 0.680742Q63.0174 0.774208 63.1216 0.878387Q63.2258 0.982566 63.3193 1.09645Q63.4127 1.21034 63.4946 1.33284Q63.5764 1.45535 63.6459 1.58528Q63.7153 1.71522 63.7717 1.85133Q63.8281 1.98745 63.8709 2.12844Q63.9136 2.26942 63.9424 2.41392Q63.9711 2.55843 63.9856 2.70505Q64 2.85167 64 2.999L64 3.001Q64 3.14833 63.9856 3.29495Q63.9711 3.44158 63.9424 3.58608Q63.9136 3.73058 63.8709 3.87156Q63.8281 4.01255 63.7717 4.14867Q63.7153 4.28478 63.6459 4.41472Q63.5764 4.54465 63.4946 4.66715Q63.4127 4.78966 63.3193 4.90355Q63.2258 5.01743 63.1216 5.12161Q63.0174 5.22579 62.9035 5.31926Q62.7897 5.41272 62.6672 5.49458Q62.5447 5.57643 62.4147 5.64588Q62.2848 5.71533 62.1487 5.77171Q62.0125 5.8281 61.8716 5.87086Q61.7306 5.91363 61.5861 5.94237Q61.4416 5.97112 61.2949 5.98556Q61.1483 6 61.001 6L2.999 6Q2.85167 6 2.70505 5.98556Q2.55842 5.97112 2.41392 5.94237Q2.26942 5.91363 2.12844 5.87086Q1.98745 5.8281 1.85133 5.77171Q1.71522 5.71533 1.58528 5.64588Q1.45535 5.57643 1.33284 5.49458Q1.21034 5.41272 1.09645 5.31926Q0.982566 5.22579 0.878387 5.12161Q0.774208 5.01743 0.680742 4.90354Q0.587276 4.78966 0.505423 4.66715Q0.42357 4.54465 0.354118 4.41472Q0.284667 4.28478 0.228285 4.14867Q0.171904 4.01255 0.129136 3.87156Q0.0863679 3.73058 0.0576249 3.58608Q0.028882 3.44157 0.014441 3.29495Q0 3.14833 0 3.001L0 2.999Q0 2.85167 0.014441 2.70505Q0.028882 2.55842 0.0576249 2.41392Q0.0863679 2.26942 0.129136 2.12844Q0.171904 1.98745 0.228285 1.85133Q0.284667 1.71522 0.354118 1.58528Q0.42357 1.45535 0.505423 1.33284Q0.587276 1.21034 0.680742 1.09645Q0.774208 0.982566 0.878387 0.878387Q0.982566 0.774208 1.09645 0.680742Q1.21034 0.587276 1.33284 0.505423Q1.45535 0.42357 1.58528 0.354118Q1.71522 0.284667 1.85133 0.228285Q1.98745 0.171904 2.12844 0.129136Q2.26942 0.0863679 2.41392 0.0576249Q2.55842 0.028882 2.70505 0.014441Q2.85167 0 2.999 0Z" transform="translate(47 30)" id="Rectangle-Copy-6" fill="#242A45" fill-opacity="0.25" stroke="none" />
    </g>
    <g id="Group-29-Copy" transform="translate(110 201)">
      <path d="M16 32C24.8366 32 32 24.8366 32 16C32 7.16344 24.8366 0 16 0C7.16344 0 0 7.16344 0 16C0 24.8366 7.16344 32 16 32Z" id="Oval" fill="#6AC6D6" stroke="none" />
      <path d="M2.999 0L117.001 0Q117.148 0 117.295 0.014441Q117.442 0.028882 117.586 0.0576249Q117.731 0.0863679 117.872 0.129136Q118.013 0.171904 118.149 0.228285Q118.285 0.284667 118.415 0.354118Q118.545 0.42357 118.667 0.505423Q118.79 0.587276 118.904 0.680742Q119.017 0.774208 119.122 0.878387Q119.226 0.982566 119.319 1.09645Q119.413 1.21034 119.495 1.33284Q119.576 1.45535 119.646 1.58528Q119.715 1.71522 119.772 1.85133Q119.828 1.98745 119.871 2.12844Q119.914 2.26942 119.942 2.41392Q119.971 2.55842 119.986 2.70505Q120 2.85167 120 2.999L120 3.001Q120 3.14833 119.986 3.29495Q119.971 3.44158 119.942 3.58608Q119.914 3.73058 119.871 3.87156Q119.828 4.01255 119.772 4.14867Q119.715 4.28478 119.646 4.41472Q119.576 4.54465 119.495 4.66715Q119.413 4.78966 119.319 4.90355Q119.226 5.01743 119.122 5.12161Q119.017 5.22579 118.904 5.31926Q118.79 5.41272 118.667 5.49458Q118.545 5.57643 118.415 5.64588Q118.285 5.71533 118.149 5.77171Q118.013 5.8281 117.872 5.87086Q117.731 5.91363 117.586 5.94237Q117.442 5.97112 117.295 5.98556Q117.148 6 117.001 6L2.999 6Q2.85167 6 2.70505 5.98556Q2.55842 5.97112 2.41392 5.94237Q2.26942 5.91363 2.12844 5.87086Q1.98745 5.8281 1.85133 5.77171Q1.71522 5.71533 1.58528 5.64588Q1.45535 5.57643 1.33284 5.49458Q1.21034 5.41272 1.09645 5.31926Q0.982566 5.22579 0.878387 5.12161Q0.774208 5.01743 0.680742 4.90355Q0.587276 4.78966 0.505423 4.66715Q0.42357 4.54465 0.354118 4.41472Q0.284667 4.28478 0.228285 4.14867Q0.171904 4.01255 0.129136 3.87156Q0.0863679 3.73058 0.0576249 3.58608Q0.028882 3.44158 0.014441 3.29495Q0 3.14833 0 3.001L0 2.999Q0 2.85167 0.014441 2.70505Q0.028882 2.55842 0.0576249 2.41392Q0.0863679 2.26942 0.129136 2.12844Q0.171904 1.98745 0.228285 1.85133Q0.284667 1.71522 0.354118 1.58528Q0.42357 1.45535 0.505423 1.33284Q0.587276 1.21034 0.680742 1.09645Q0.774208 0.982566 0.878387 0.878387Q0.982566 0.774208 1.09645 0.680742Q1.21034 0.587276 1.33284 0.505423Q1.45535 0.42357 1.58528 0.354118Q1.71522 0.284667 1.85133 0.228285Q1.98745 0.171904 2.12844 0.129136Q2.26942 0.0863679 2.41392 0.0576249Q2.55842 0.028882 2.70505 0.014441Q2.85167 0 2.999 0Z" transform="translate(47 6)" id="Rectangle" fill="#242A45" fill-opacity="0.5" stroke="none" />
      <path d="M2.999 0L61.001 0Q61.1483 0 61.295 0.014441Q61.4416 0.028882 61.5861 0.0576249Q61.7306 0.0863679 61.8716 0.129136Q62.0125 0.171904 62.1487 0.228285Q62.2848 0.284667 62.4147 0.354118Q62.5446 0.42357 62.6671 0.505423Q62.7897 0.587276 62.9035 0.680742Q63.0174 0.774208 63.1216 0.878387Q63.2258 0.982566 63.3193 1.09645Q63.4127 1.21034 63.4946 1.33284Q63.5764 1.45535 63.6459 1.58528Q63.7153 1.71522 63.7717 1.85133Q63.8281 1.98745 63.8709 2.12844Q63.9136 2.26942 63.9424 2.41392Q63.9711 2.55843 63.9856 2.70505Q64 2.85167 64 2.999L64 3.001Q64 3.14833 63.9856 3.29495Q63.9711 3.44158 63.9424 3.58608Q63.9136 3.73058 63.8709 3.87156Q63.8281 4.01255 63.7717 4.14867Q63.7153 4.28478 63.6459 4.41472Q63.5764 4.54465 63.4946 4.66715Q63.4127 4.78966 63.3193 4.90355Q63.2258 5.01743 63.1216 5.12161Q63.0174 5.22579 62.9035 5.31926Q62.7897 5.41272 62.6672 5.49458Q62.5447 5.57643 62.4147 5.64588Q62.2848 5.71533 62.1487 5.77171Q62.0125 5.8281 61.8716 5.87086Q61.7306 5.91363 61.5861 5.94237Q61.4416 5.97112 61.2949 5.98556Q61.1483 6 61.001 6L2.999 6Q2.85167 6 2.70505 5.98556Q2.55842 5.97112 2.41392 5.94237Q2.26942 5.91363 2.12844 5.87086Q1.98745 5.8281 1.85133 5.77171Q1.71522 5.71533 1.58528 5.64588Q1.45535 5.57643 1.33284 5.49458Q1.21034 5.41272 1.09645 5.31926Q0.982566 5.22579 0.878387 5.12161Q0.774208 5.01743 0.680742 4.90354Q0.587276 4.78966 0.505423 4.66715Q0.42357 4.54465 0.354118 4.41472Q0.284667 4.28478 0.228285 4.14867Q0.171904 4.01255 0.129136 3.87156Q0.0863679 3.73058 0.0576249 3.58608Q0.028882 3.44157 0.014441 3.29495Q0 3.14833 0 3.001L0 2.999Q0 2.85167 0.014441 2.70505Q0.028882 2.55842 0.0576249 2.41392Q0.0863679 2.26942 0.129136 2.12844Q0.171904 1.98745 0.228285 1.85133Q0.284667 1.71522 0.354118 1.58528Q0.42357 1.45535 0.505423 1.33284Q0.587276 1.21034 0.680742 1.09645Q0.774208 0.982566 0.878387 0.878387Q0.982566 0.774208 1.09645 0.680742Q1.21034 0.587276 1.33284 0.505423Q1.45535 0.42357 1.58528 0.354118Q1.71522 0.284667 1.85133 0.228285Q1.98745 0.171904 2.12844 0.129136Q2.26942 0.0863679 2.41392 0.0576249Q2.55842 0.028882 2.70505 0.014441Q2.85167 0 2.999 0Z" transform="translate(47 20)" id="Rectangle-Copy-6" fill="#242A45" fill-opacity="0.25" stroke="none" />
    </g>
    <g id="Group-29-Copy-2" transform="translate(110 257)">
      <path d="M16 32C24.8366 32 32 24.8366 32 16C32 7.16344 24.8366 0 16 0C7.16344 0 0 7.16344 0 16C0 24.8366 7.16344 32 16 32Z" id="Oval" fill="#A47ED4" stroke="none" />
      <path d="M2.999 0L117.001 0Q117.148 0 117.295 0.014441Q117.442 0.028882 117.586 0.0576249Q117.731 0.0863679 117.872 0.129136Q118.013 0.171904 118.149 0.228285Q118.285 0.284667 118.415 0.354118Q118.545 0.42357 118.667 0.505423Q118.79 0.587276 118.904 0.680742Q119.017 0.774208 119.122 0.878387Q119.226 0.982566 119.319 1.09645Q119.413 1.21034 119.495 1.33284Q119.576 1.45535 119.646 1.58528Q119.715 1.71522 119.772 1.85133Q119.828 1.98745 119.871 2.12844Q119.914 2.26942 119.942 2.41392Q119.971 2.55842 119.986 2.70505Q120 2.85167 120 2.999L120 3.001Q120 3.14833 119.986 3.29495Q119.971 3.44158 119.942 3.58608Q119.914 3.73058 119.871 3.87156Q119.828 4.01255 119.772 4.14867Q119.715 4.28478 119.646 4.41472Q119.576 4.54465 119.495 4.66715Q119.413 4.78966 119.319 4.90355Q119.226 5.01743 119.122 5.12161Q119.017 5.22579 118.904 5.31926Q118.79 5.41272 118.667 5.49458Q118.545 5.57643 118.415 5.64588Q118.285 5.71533 118.149 5.77171Q118.013 5.8281 117.872 5.87086Q117.731 5.91363 117.586 5.94237Q117.442 5.97112 117.295 5.98556Q117.148 6 117.001 6L2.999 6Q2.85167 6 2.70505 5.98556Q2.55842 5.97112 2.41392 5.94237Q2.26942 5.91363 2.12844 5.87086Q1.98745 5.8281 1.85133 5.77171Q1.71522 5.71533 1.58528 5.64588Q1.45535 5.57643 1.33284 5.49458Q1.21034 5.41272 1.09645 5.31926Q0.982566 5.22579 0.878387 5.12161Q0.774208 5.01743 0.680742 4.90355Q0.587276 4.78966 0.505423 4.66715Q0.42357 4.54465 0.354118 4.41472Q0.284667 4.28478 0.228285 4.14867Q0.171904 4.01255 0.129136 3.87156Q0.0863679 3.73058 0.0576249 3.58608Q0.028882 3.44158 0.014441 3.29495Q0 3.14833 0 3.001L0 2.999Q0 2.85167 0.014441 2.70505Q0.028882 2.55842 0.0576249 2.41392Q0.0863679 2.26942 0.129136 2.12844Q0.171904 1.98745 0.228285 1.85133Q0.284667 1.71522 0.354118 1.58528Q0.42357 1.45535 0.505423 1.33284Q0.587276 1.21034 0.680742 1.09645Q0.774208 0.982566 0.878387 0.878387Q0.982566 0.774208 1.09645 0.680742Q1.21034 0.587276 1.33284 0.505423Q1.45535 0.42357 1.58528 0.354118Q1.71522 0.284667 1.85133 0.228285Q1.98745 0.171904 2.12844 0.129136Q2.26942 0.0863679 2.41392 0.0576249Q2.55842 0.028882 2.70505 0.014441Q2.85167 0 2.999 0Z" transform="translate(47 6)" id="Rectangle" fill="#242A45" fill-opacity="0.5" stroke="none" />
      <path d="M2.999 0L61.001 0Q61.1483 0 61.295 0.014441Q61.4416 0.028882 61.5861 0.0576249Q61.7306 0.0863679 61.8716 0.129136Q62.0125 0.171904 62.1487 0.228285Q62.2848 0.284667 62.4147 0.354118Q62.5446 0.42357 62.6671 0.505423Q62.7897 0.587276 62.9035 0.680742Q63.0174 0.774208 63.1216 0.878387Q63.2258 0.982566 63.3193 1.09645Q63.4127 1.21034 63.4946 1.33284Q63.5764 1.45535 63.6459 1.58528Q63.7153 1.71522 63.7717 1.85133Q63.8281 1.98745 63.8709 2.12844Q63.9136 2.26942 63.9424 2.41392Q63.9711 2.55843 63.9856 2.70505Q64 2.85167 64 2.999L64 3.001Q64 3.14833 63.9856 3.29495Q63.9711 3.44158 63.9424 3.58608Q63.9136 3.73058 63.8709 3.87156Q63.8281 4.01255 63.7717 4.14867Q63.7153 4.28478 63.6459 4.41472Q63.5764 4.54465 63.4946 4.66715Q63.4127 4.78966 63.3193 4.90355Q63.2258 5.01743 63.1216 5.12161Q63.0174 5.22579 62.9035 5.31926Q62.7897 5.41272 62.6672 5.49458Q62.5447 5.57643 62.4147 5.64588Q62.2848 5.71533 62.1487 5.77171Q62.0125 5.8281 61.8716 5.87086Q61.7306 5.91363 61.5861 5.94237Q61.4416 5.97112 61.2949 5.98556Q61.1483 6 61.001 6L2.999 6Q2.85167 6 2.70505 5.98556Q2.55842 5.97112 2.41392 5.94237Q2.26942 5.91363 2.12844 5.87086Q1.98745 5.8281 1.85133 5.77171Q1.71522 5.71533 1.58528 5.64588Q1.45535 5.57643 1.33284 5.49458Q1.21034 5.41272 1.09645 5.31926Q0.982566 5.22579 0.878387 5.12161Q0.774208 5.01743 0.680742 4.90354Q0.587276 4.78966 0.505423 4.66715Q0.42357 4.54465 0.354118 4.41472Q0.284667 4.28478 0.228285 4.14867Q0.171904 4.01255 0.129136 3.87156Q0.0863679 3.73058 0.0576249 3.58608Q0.028882 3.44157 0.014441 3.29495Q0 3.14833 0 3.001L0 2.999Q0 2.85167 0.014441 2.70505Q0.028882 2.55842 0.0576249 2.41392Q0.0863679 2.26942 0.129136 2.12844Q0.171904 1.98745 0.228285 1.85133Q0.284667 1.71522 0.354118 1.58528Q0.42357 1.45535 0.505423 1.33284Q0.587276 1.21034 0.680742 1.09645Q0.774208 0.982566 0.878387 0.878387Q0.982566 0.774208 1.09645 0.680742Q1.21034 0.587276 1.33284 0.505423Q1.45535 0.42357 1.58528 0.354118Q1.71522 0.284667 1.85133 0.228285Q1.98745 0.171904 2.12844 0.129136Q2.26942 0.0863679 2.41392 0.0576249Q2.55842 0.028882 2.70505 0.014441Q2.85167 0 2.999 0Z" transform="translate(47 20)" id="Rectangle-Copy-6" fill="#242A45" fill-opacity="0.25" stroke="none" />
    </g>
    <g id="Group-29-Copy-3" transform="translate(110 313)">
      <path d="M16 32C24.8366 32 32 24.8366 32 16C32 7.16344 24.8366 0 16 0C7.16344 0 0 7.16344 0 16C0 24.8366 7.16344 32 16 32Z" id="Oval" fill="#EC7878" stroke="none" />
      <path d="M2.999 0L117.001 0Q117.148 0 117.295 0.014441Q117.442 0.028882 117.586 0.0576249Q117.731 0.0863679 117.872 0.129136Q118.013 0.171904 118.149 0.228285Q118.285 0.284667 118.415 0.354118Q118.545 0.42357 118.667 0.505423Q118.79 0.587276 118.904 0.680742Q119.017 0.774208 119.122 0.878387Q119.226 0.982566 119.319 1.09645Q119.413 1.21034 119.495 1.33284Q119.576 1.45535 119.646 1.58528Q119.715 1.71522 119.772 1.85133Q119.828 1.98745 119.871 2.12844Q119.914 2.26942 119.942 2.41392Q119.971 2.55842 119.986 2.70505Q120 2.85167 120 2.999L120 3.001Q120 3.14833 119.986 3.29495Q119.971 3.44158 119.942 3.58608Q119.914 3.73058 119.871 3.87156Q119.828 4.01255 119.772 4.14867Q119.715 4.28478 119.646 4.41472Q119.576 4.54465 119.495 4.66715Q119.413 4.78966 119.319 4.90355Q119.226 5.01743 119.122 5.12161Q119.017 5.22579 118.904 5.31926Q118.79 5.41272 118.667 5.49458Q118.545 5.57643 118.415 5.64588Q118.285 5.71533 118.149 5.77171Q118.013 5.8281 117.872 5.87086Q117.731 5.91363 117.586 5.94237Q117.442 5.97112 117.295 5.98556Q117.148 6 117.001 6L2.999 6Q2.85167 6 2.70505 5.98556Q2.55842 5.97112 2.41392 5.94237Q2.26942 5.91363 2.12844 5.87086Q1.98745 5.8281 1.85133 5.77171Q1.71522 5.71533 1.58528 5.64588Q1.45535 5.57643 1.33284 5.49458Q1.21034 5.41272 1.09645 5.31926Q0.982566 5.22579 0.878387 5.12161Q0.774208 5.01743 0.680742 4.90355Q0.587276 4.78966 0.505423 4.66715Q0.42357 4.54465 0.354118 4.41472Q0.284667 4.28478 0.228285 4.14867Q0.171904 4.01255 0.129136 3.87156Q0.0863679 3.73058 0.0576249 3.58608Q0.028882 3.44158 0.014441 3.29495Q0 3.14833 0 3.001L0 2.999Q0 2.85167 0.014441 2.70505Q0.028882 2.55842 0.0576249 2.41392Q0.0863679 2.26942 0.129136 2.12844Q0.171904 1.98745 0.228285 1.85133Q0.284667 1.71522 0.354118 1.58528Q0.42357 1.45535 0.505423 1.33284Q0.587276 1.21034 0.680742 1.09645Q0.774208 0.982566 0.878387 0.878387Q0.982566 0.774208 1.09645 0.680742Q1.21034 0.587276 1.33284 0.505423Q1.45535 0.42357 1.58528 0.354118Q1.71522 0.284667 1.85133 0.228285Q1.98745 0.171904 2.12844 0.129136Q2.26942 0.0863679 2.41392 0.0576249Q2.55842 0.028882 2.70505 0.014441Q2.85167 0 2.999 0Z" transform="translate(47 6)" id="Rectangle" fill="#242A45" fill-opacity="0.5" stroke="none" />
      <path d="M2.999 0L61.001 0Q61.1483 0 61.295 0.014441Q61.4416 0.028882 61.5861 0.0576249Q61.7306 0.0863679 61.8716 0.129136Q62.0125 0.171904 62.1487 0.228285Q62.2848 0.284667 62.4147 0.354118Q62.5446 0.42357 62.6671 0.505423Q62.7897 0.587276 62.9035 0.680742Q63.0174 0.774208 63.1216 0.878387Q63.2258 0.982566 63.3193 1.09645Q63.4127 1.21034 63.4946 1.33284Q63.5764 1.45535 63.6459 1.58528Q63.7153 1.71522 63.7717 1.85133Q63.8281 1.98745 63.8709 2.12844Q63.9136 2.26942 63.9424 2.41392Q63.9711 2.55843 63.9856 2.70505Q64 2.85167 64 2.999L64 3.001Q64 3.14833 63.9856 3.29495Q63.9711 3.44158 63.9424 3.58608Q63.9136 3.73058 63.8709 3.87156Q63.8281 4.01255 63.7717 4.14867Q63.7153 4.28478 63.6459 4.41472Q63.5764 4.54465 63.4946 4.66715Q63.4127 4.78966 63.3193 4.90355Q63.2258 5.01743 63.1216 5.12161Q63.0174 5.22579 62.9035 5.31926Q62.7897 5.41272 62.6672 5.49458Q62.5447 5.57643 62.4147 5.64588Q62.2848 5.71533 62.1487 5.77171Q62.0125 5.8281 61.8716 5.87086Q61.7306 5.91363 61.5861 5.94237Q61.4416 5.97112 61.2949 5.98556Q61.1483 6 61.001 6L2.999 6Q2.85167 6 2.70505 5.98556Q2.55842 5.97112 2.41392 5.94237Q2.26942 5.91363 2.12844 5.87086Q1.98745 5.8281 1.85133 5.77171Q1.71522 5.71533 1.58528 5.64588Q1.45535 5.57643 1.33284 5.49458Q1.21034 5.41272 1.09645 5.31926Q0.982566 5.22579 0.878387 5.12161Q0.774208 5.01743 0.680742 4.90354Q0.587276 4.78966 0.505423 4.66715Q0.42357 4.54465 0.354118 4.41472Q0.284667 4.28478 0.228285 4.14867Q0.171904 4.01255 0.129136 3.87156Q0.0863679 3.73058 0.0576249 3.58608Q0.028882 3.44157 0.014441 3.29495Q0 3.14833 0 3.001L0 2.999Q0 2.85167 0.014441 2.70505Q0.028882 2.55842 0.0576249 2.41392Q0.0863679 2.26942 0.129136 2.12844Q0.171904 1.98745 0.228285 1.85133Q0.284667 1.71522 0.354118 1.58528Q0.42357 1.45535 0.505423 1.33284Q0.587276 1.21034 0.680742 1.09645Q0.774208 0.982566 0.878387 0.878387Q0.982566 0.774208 1.09645 0.680742Q1.21034 0.587276 1.33284 0.505423Q1.45535 0.42357 1.58528 0.354118Q1.71522 0.284667 1.85133 0.228285Q1.98745 0.171904 2.12844 0.129136Q2.26942 0.0863679 2.41392 0.0576249Q2.55842 0.028882 2.70505 0.014441Q2.85167 0 2.999 0Z" transform="translate(47 20)" id="Rectangle-Copy-6" fill="#242A45" fill-opacity="0.25" stroke="none" />
    </g>
  </g>
</svg>