<?xml version="1.0" encoding="utf-8"?>
<svg width="488px" height="413px" viewBox="0 0 488 413" version="1.1" xmlns:xlink="http://www.w3.org/1999/xlink" xmlns="http://www.w3.org/2000/svg">
  <desc>Created with Lunacy</desc>
  <defs>
    <filter filterUnits="userSpaceOnUse" color-interpolation-filters="sRGB" id="filter_1">
      <feFlood flood-opacity="0" result="BackgroundImageFix" />
      <feColorMatrix in="SourceAlpha" type="matrix" values="0 0 0 0 0 0 0 0 0 0 0 0 0 0 0 0 0 0 127 0" />
      <feOffset dx="0" dy="5" />
      <feGaussianBlur stdDeviation="5" />
      <feColorMatrix type="matrix" values="0 0 0 0 0.2862745 0 0 0 0 0.3647059 0 0 0 0 0.8117647 0 0 0 0.08235294 0" />
      <feBlend mode="normal" in2="BackgroundImageFix" result="effect0_dropShadow" />
      <feBlend mode="normal" in="SourceGraphic" in2="effect0_dropShadow" result="shape" />
    </filter>
    <path d="M7.999 0L342.001 0Q342.197 0 342.393 0.00963514Q342.59 0.0192703 342.785 0.0385174Q342.98 0.0577644 343.175 0.0865771Q343.369 0.11539 343.562 0.153699Q343.754 0.192007 343.945 0.23972Q344.135 0.287433 344.323 0.344434Q344.511 0.401436 344.696 0.467589Q344.881 0.533742 345.062 0.608888Q345.243 0.684033 345.421 0.76799Q345.599 0.851946 345.772 0.944512Q345.945 1.03708 346.113 1.13803Q346.282 1.23898 346.445 1.34807Q346.608 1.45717 346.766 1.57414Q346.924 1.69112 347.076 1.81569Q347.227 1.94026 347.373 2.07213Q347.518 2.204 347.657 2.34285Q347.796 2.4817 347.928 2.6272Q348.06 2.7727 348.184 2.92449Q348.309 3.07628 348.426 3.234Q348.543 3.39172 348.652 3.55499Q348.761 3.71826 348.862 3.88669Q348.963 4.05512 349.055 4.2283Q349.148 4.40148 349.232 4.57899Q349.316 4.7565 349.391 4.93791Q349.466 5.11933 349.532 5.30422Q349.599 5.4891 349.656 5.67701Q349.712 5.86492 349.76 6.0554Q349.808 6.24588 349.846 6.43847Q349.885 6.63106 349.913 6.8253Q349.942 7.01954 349.961 7.21496Q349.981 7.41038 349.99 7.60651Q350 7.80264 350 7.999L350 338.001Q350 338.197 349.99 338.393Q349.981 338.59 349.961 338.785Q349.942 338.98 349.913 339.175Q349.885 339.369 349.846 339.561Q349.808 339.754 349.76 339.945Q349.713 340.135 349.656 340.323Q349.599 340.511 349.532 340.696Q349.466 340.881 349.391 341.062Q349.316 341.243 349.232 341.421Q349.148 341.598 349.055 341.772Q348.963 341.945 348.862 342.113Q348.761 342.282 348.652 342.445Q348.543 342.608 348.426 342.766Q348.309 342.924 348.184 343.075Q348.06 343.227 347.928 343.373Q347.796 343.518 347.657 343.657Q347.518 343.796 347.373 343.928Q347.227 344.06 347.076 344.184Q346.924 344.309 346.766 344.426Q346.608 344.543 346.445 344.652Q346.282 344.761 346.113 344.862Q345.945 344.963 345.772 345.055Q345.598 345.148 345.421 345.232Q345.243 345.316 345.062 345.391Q344.881 345.466 344.696 345.532Q344.511 345.599 344.323 345.656Q344.135 345.713 343.945 345.76Q343.754 345.808 343.562 345.846Q343.369 345.885 343.175 345.913Q342.98 345.942 342.785 345.961Q342.59 345.981 342.393 345.99Q342.197 346 342.001 346L7.999 346Q7.80264 346 7.60651 345.99Q7.41038 345.981 7.21496 345.961Q7.01954 345.942 6.8253 345.913Q6.63106 345.885 6.43847 345.846Q6.24588 345.808 6.0554 345.76Q5.86492 345.713 5.67701 345.656Q5.4891 345.599 5.30422 345.532Q5.11933 345.466 4.93791 345.391Q4.7565 345.316 4.57899 345.232Q4.40148 345.148 4.2283 345.055Q4.05512 344.963 3.88669 344.862Q3.71826 344.761 3.55499 344.652Q3.39172 344.543 3.234 344.426Q3.07628 344.309 2.92449 344.184Q2.7727 344.06 2.6272 343.928Q2.4817 343.796 2.34285 343.657Q2.204 343.518 2.07213 343.373Q1.94026 343.227 1.81569 343.075Q1.69112 342.924 1.57414 342.766Q1.45717 342.608 1.34807 342.445Q1.23898 342.282 1.13803 342.113Q1.03708 341.945 0.944512 341.772Q0.851946 341.598 0.76799 341.421Q0.684033 341.243 0.608888 341.062Q0.533742 340.881 0.467589 340.696Q0.401436 340.511 0.344434 340.323Q0.287433 340.135 0.23972 339.945Q0.192007 339.754 0.153699 339.561Q0.11539 339.369 0.0865771 339.175Q0.0577644 338.98 0.0385174 338.785Q0.0192703 338.59 0.00963514 338.393Q0 338.197 0 338.001L0 7.999Q0 7.80264 0.00963514 7.60651Q0.0192703 7.41038 0.0385174 7.21496Q0.0577644 7.01954 0.0865771 6.8253Q0.11539 6.63106 0.153699 6.43847Q0.192007 6.24588 0.23972 6.0554Q0.287433 5.86492 0.344434 5.67701Q0.401436 5.4891 0.467589 5.30422Q0.533742 5.11933 0.608888 4.93791Q0.684033 4.7565 0.76799 4.57899Q0.851946 4.40148 0.944512 4.2283Q1.03708 4.05512 1.13803 3.88669Q1.23898 3.71826 1.34807 3.55499Q1.45717 3.39172 1.57414 3.234Q1.69112 3.07628 1.81569 2.92449Q1.94026 2.7727 2.07213 2.6272Q2.204 2.4817 2.34285 2.34285Q2.4817 2.204 2.6272 2.07213Q2.7727 1.94026 2.92449 1.81569Q3.07628 1.69112 3.234 1.57414Q3.39172 1.45717 3.55499 1.34807Q3.71826 1.23898 3.88669 1.13803Q4.05512 1.03708 4.2283 0.944512Q4.40148 0.851946 4.57899 0.76799Q4.7565 0.684033 4.93791 0.608888Q5.11933 0.533742 5.30422 0.467589Q5.4891 0.401436 5.67701 0.344434Q5.86492 0.287433 6.0554 0.23972Q6.24588 0.192007 6.43847 0.153699Q6.63106 0.11539 6.8253 0.0865771Q7.01954 0.0577644 7.21496 0.0385174Q7.41038 0.0192703 7.60651 0.00963514Q7.80264 0 7.999 0L7.999 0Z" id="path_1" />
    <clipPath id="mask_1">
      <use xlink:href="#path_1" />
    </clipPath>
  </defs>
  <g id="Group-3" transform="translate(10 10)">
    <g id="Search">
      <path d="M7.999 0L342.001 0Q342.197 0 342.393 0.00963514Q342.59 0.0192703 342.785 0.0385174Q342.98 0.0577644 343.175 0.0865771Q343.369 0.11539 343.562 0.153699Q343.754 0.192007 343.945 0.23972Q344.135 0.287433 344.323 0.344434Q344.511 0.401436 344.696 0.467589Q344.881 0.533742 345.062 0.608888Q345.243 0.684033 345.421 0.76799Q345.599 0.851946 345.772 0.944512Q345.945 1.03708 346.113 1.13803Q346.282 1.23898 346.445 1.34807Q346.608 1.45717 346.766 1.57414Q346.924 1.69112 347.076 1.81569Q347.227 1.94026 347.373 2.07213Q347.518 2.204 347.657 2.34285Q347.796 2.4817 347.928 2.6272Q348.06 2.7727 348.184 2.92449Q348.309 3.07628 348.426 3.234Q348.543 3.39172 348.652 3.55499Q348.761 3.71826 348.862 3.88669Q348.963 4.05512 349.055 4.2283Q349.148 4.40148 349.232 4.57899Q349.316 4.7565 349.391 4.93791Q349.466 5.11933 349.532 5.30422Q349.599 5.4891 349.656 5.67701Q349.712 5.86492 349.76 6.0554Q349.808 6.24588 349.846 6.43847Q349.885 6.63106 349.913 6.8253Q349.942 7.01954 349.961 7.21496Q349.981 7.41038 349.99 7.60651Q350 7.80264 350 7.999L350 338.001Q350 338.197 349.99 338.393Q349.981 338.59 349.961 338.785Q349.942 338.98 349.913 339.175Q349.885 339.369 349.846 339.561Q349.808 339.754 349.76 339.945Q349.713 340.135 349.656 340.323Q349.599 340.511 349.532 340.696Q349.466 340.881 349.391 341.062Q349.316 341.243 349.232 341.421Q349.148 341.598 349.055 341.772Q348.963 341.945 348.862 342.113Q348.761 342.282 348.652 342.445Q348.543 342.608 348.426 342.766Q348.309 342.924 348.184 343.075Q348.06 343.227 347.928 343.373Q347.796 343.518 347.657 343.657Q347.518 343.796 347.373 343.928Q347.227 344.06 347.076 344.184Q346.924 344.309 346.766 344.426Q346.608 344.543 346.445 344.652Q346.282 344.761 346.113 344.862Q345.945 344.963 345.772 345.055Q345.598 345.148 345.421 345.232Q345.243 345.316 345.062 345.391Q344.881 345.466 344.696 345.532Q344.511 345.599 344.323 345.656Q344.135 345.713 343.945 345.76Q343.754 345.808 343.562 345.846Q343.369 345.885 343.175 345.913Q342.98 345.942 342.785 345.961Q342.59 345.981 342.393 345.99Q342.197 346 342.001 346L7.999 346Q7.80264 346 7.60651 345.99Q7.41038 345.981 7.21496 345.961Q7.01954 345.942 6.8253 345.913Q6.63106 345.885 6.43847 345.846Q6.24588 345.808 6.0554 345.76Q5.86492 345.713 5.67701 345.656Q5.4891 345.599 5.30422 345.532Q5.11933 345.466 4.93791 345.391Q4.7565 345.316 4.57899 345.232Q4.40148 345.148 4.2283 345.055Q4.05512 344.963 3.88669 344.862Q3.71826 344.761 3.55499 344.652Q3.39172 344.543 3.234 344.426Q3.07628 344.309 2.92449 344.184Q2.7727 344.06 2.6272 343.928Q2.4817 343.796 2.34285 343.657Q2.204 343.518 2.07213 343.373Q1.94026 343.227 1.81569 343.075Q1.69112 342.924 1.57414 342.766Q1.45717 342.608 1.34807 342.445Q1.23898 342.282 1.13803 342.113Q1.03708 341.945 0.944512 341.772Q0.851946 341.598 0.76799 341.421Q0.684033 341.243 0.608888 341.062Q0.533742 340.881 0.467589 340.696Q0.401436 340.511 0.344434 340.323Q0.287433 340.135 0.23972 339.945Q0.192007 339.754 0.153699 339.561Q0.11539 339.369 0.0865771 339.175Q0.0577644 338.98 0.0385174 338.785Q0.0192703 338.59 0.00963514 338.393Q0 338.197 0 338.001L0 7.999Q0 7.80264 0.00963514 7.60651Q0.0192703 7.41038 0.0385174 7.21496Q0.0577644 7.01954 0.0865771 6.8253Q0.11539 6.63106 0.153699 6.43847Q0.192007 6.24588 0.23972 6.0554Q0.287433 5.86492 0.344434 5.67701Q0.401436 5.4891 0.467589 5.30422Q0.533742 5.11933 0.608888 4.93791Q0.684033 4.7565 0.76799 4.57899Q0.851946 4.40148 0.944512 4.2283Q1.03708 4.05512 1.13803 3.88669Q1.23898 3.71826 1.34807 3.55499Q1.45717 3.39172 1.57414 3.234Q1.69112 3.07628 1.81569 2.92449Q1.94026 2.7727 2.07213 2.6272Q2.204 2.4817 2.34285 2.34285Q2.4817 2.204 2.6272 2.07213Q2.7727 1.94026 2.92449 1.81569Q3.07628 1.69112 3.234 1.57414Q3.39172 1.45717 3.55499 1.34807Q3.71826 1.23898 3.88669 1.13803Q4.05512 1.03708 4.2283 0.944512Q4.40148 0.851946 4.57899 0.76799Q4.7565 0.684033 4.93791 0.608888Q5.11933 0.533742 5.30422 0.467589Q5.4891 0.401436 5.67701 0.344434Q5.86492 0.287433 6.0554 0.23972Q6.24588 0.192007 6.43847 0.153699Q6.63106 0.11539 6.8253 0.0865771Q7.01954 0.0577644 7.21496 0.0385174Q7.41038 0.0192703 7.60651 0.00963514Q7.80264 0 7.999 0L7.999 0Z" id="Mask" fill="#E8EAF6" stroke="none" />
      <g clip-path="url(#mask_1)">
        <g id="Group-28" transform="translate(-3.530436 0.1972656)">
          <path d="M0 0L547 0L547 59L0 59L0 0Z" id="Rectangle" fill="#242A45" stroke="none" />
          <g id="Group-7" transform="translate(26 14)">
            <path d="M16 32C24.8366 32 32 24.8366 32 16C32 7.16344 24.8366 0 16 0C7.16344 0 0 7.16344 0 16C0 24.8366 7.16344 32 16 32Z" id="Oval" fill="#FFFFFF" fill-opacity="0.244768411" stroke="none" />
            <g id="Group-6" transform="translate(47 6)">
              <path d="M2.999 0L117.001 0Q117.148 0 117.295 0.014441Q117.442 0.028882 117.586 0.0576249Q117.731 0.0863679 117.872 0.129136Q118.013 0.171904 118.149 0.228285Q118.285 0.284667 118.415 0.354118Q118.545 0.42357 118.667 0.505423Q118.79 0.587276 118.904 0.680742Q119.017 0.774208 119.122 0.878387Q119.226 0.982566 119.319 1.09645Q119.413 1.21034 119.495 1.33284Q119.576 1.45535 119.646 1.58528Q119.715 1.71522 119.772 1.85133Q119.828 1.98745 119.871 2.12844Q119.914 2.26942 119.942 2.41392Q119.971 2.55842 119.986 2.70505Q120 2.85167 120 2.999L120 3.001Q120 3.14833 119.986 3.29495Q119.971 3.44158 119.942 3.58608Q119.914 3.73058 119.871 3.87156Q119.828 4.01255 119.772 4.14867Q119.715 4.28478 119.646 4.41472Q119.576 4.54465 119.495 4.66715Q119.413 4.78966 119.319 4.90355Q119.226 5.01743 119.122 5.12161Q119.017 5.22579 118.904 5.31926Q118.79 5.41272 118.667 5.49458Q118.545 5.57643 118.415 5.64588Q118.285 5.71533 118.149 5.77171Q118.013 5.8281 117.872 5.87086Q117.731 5.91363 117.586 5.94237Q117.442 5.97112 117.295 5.98556Q117.148 6 117.001 6L2.999 6Q2.85167 6 2.70505 5.98556Q2.55842 5.97112 2.41392 5.94237Q2.26942 5.91363 2.12844 5.87086Q1.98745 5.8281 1.85133 5.77171Q1.71522 5.71533 1.58528 5.64588Q1.45535 5.57643 1.33284 5.49458Q1.21034 5.41272 1.09645 5.31926Q0.982566 5.22579 0.878387 5.12161Q0.774208 5.01743 0.680742 4.90355Q0.587276 4.78966 0.505423 4.66715Q0.42357 4.54465 0.354118 4.41472Q0.284667 4.28478 0.228285 4.14867Q0.171904 4.01255 0.129136 3.87156Q0.0863679 3.73058 0.0576249 3.58608Q0.028882 3.44158 0.014441 3.29495Q0 3.14833 0 3.001L0 2.999Q0 2.85167 0.014441 2.70505Q0.028882 2.55842 0.0576249 2.41392Q0.0863679 2.26942 0.129136 2.12844Q0.171904 1.98745 0.228285 1.85133Q0.284667 1.71522 0.354118 1.58528Q0.42357 1.45535 0.505423 1.33284Q0.587276 1.21034 0.680742 1.09645Q0.774208 0.982566 0.878387 0.878387Q0.982566 0.774208 1.09645 0.680742Q1.21034 0.587276 1.33284 0.505423Q1.45535 0.42357 1.58528 0.354118Q1.71522 0.284667 1.85133 0.228285Q1.98745 0.171904 2.12844 0.129136Q2.26942 0.0863679 2.41392 0.0576249Q2.55842 0.028882 2.70505 0.014441Q2.85167 0 2.999 0Z" id="Rectangle" fill="#FFFFFF" fill-opacity="0.75" stroke="none" />
              <path d="M2.999 0L61.001 0Q61.1483 0 61.295 0.014441Q61.4416 0.028882 61.5861 0.0576249Q61.7306 0.0863679 61.8716 0.129136Q62.0125 0.171904 62.1487 0.228285Q62.2848 0.284667 62.4147 0.354118Q62.5446 0.42357 62.6671 0.505423Q62.7897 0.587276 62.9035 0.680742Q63.0174 0.774208 63.1216 0.878387Q63.2258 0.982566 63.3193 1.09645Q63.4127 1.21034 63.4946 1.33284Q63.5764 1.45535 63.6459 1.58528Q63.7153 1.71522 63.7717 1.85133Q63.8281 1.98745 63.8709 2.12844Q63.9136 2.26942 63.9424 2.41392Q63.9711 2.55843 63.9856 2.70505Q64 2.85167 64 2.999L64 3.001Q64 3.14833 63.9856 3.29495Q63.9711 3.44158 63.9424 3.58608Q63.9136 3.73058 63.8709 3.87156Q63.8281 4.01255 63.7717 4.14867Q63.7153 4.28478 63.6459 4.41472Q63.5764 4.54465 63.4946 4.66715Q63.4127 4.78966 63.3193 4.90355Q63.2258 5.01743 63.1216 5.12161Q63.0174 5.22579 62.9035 5.31926Q62.7897 5.41272 62.6672 5.49458Q62.5447 5.57643 62.4147 5.64588Q62.2848 5.71533 62.1487 5.77171Q62.0125 5.8281 61.8716 5.87086Q61.7306 5.91363 61.5861 5.94237Q61.4416 5.97112 61.2949 5.98556Q61.1483 6 61.001 6L2.999 6Q2.85167 6 2.70505 5.98556Q2.55842 5.97112 2.41392 5.94237Q2.26942 5.91363 2.12844 5.87086Q1.98745 5.8281 1.85133 5.77171Q1.71522 5.71533 1.58528 5.64588Q1.45535 5.57643 1.33284 5.49458Q1.21034 5.41272 1.09645 5.31926Q0.982566 5.22579 0.878387 5.12161Q0.774208 5.01743 0.680742 4.90354Q0.587276 4.78966 0.505423 4.66715Q0.42357 4.54465 0.354118 4.41472Q0.284667 4.28478 0.228285 4.14867Q0.171904 4.01255 0.129136 3.87156Q0.0863679 3.73058 0.0576249 3.58608Q0.028882 3.44157 0.014441 3.29495Q0 3.14833 0 3.001L0 2.999Q0 2.85167 0.014441 2.70505Q0.028882 2.55842 0.0576249 2.41392Q0.0863679 2.26942 0.129136 2.12844Q0.171904 1.98745 0.228285 1.85133Q0.284667 1.71522 0.354118 1.58528Q0.42357 1.45535 0.505423 1.33284Q0.587276 1.21034 0.680742 1.09645Q0.774208 0.982566 0.878387 0.878387Q0.982566 0.774208 1.09645 0.680742Q1.21034 0.587276 1.33284 0.505423Q1.45535 0.42357 1.58528 0.354118Q1.71522 0.284667 1.85133 0.228285Q1.98745 0.171904 2.12844 0.129136Q2.26942 0.0863679 2.41392 0.0576249Q2.55842 0.028882 2.70505 0.014441Q2.85167 0 2.999 0Z" transform="translate(0 14)" id="Rectangle-Copy-6" fill="#FFFFFF" fill-opacity="0.25" stroke="none" />
            </g>
          </g>
        </g>
      </g>
    </g>
    <g id="Group-2" transform="translate(27 138)">
      <g filter="url(#filter_1)">
        <path d="M7.999 0L192.001 0Q192.197 0 192.393 0.00963514Q192.59 0.0192703 192.785 0.0385174Q192.98 0.0577644 193.175 0.0865771Q193.369 0.11539 193.562 0.153699Q193.754 0.192007 193.945 0.23972Q194.135 0.287433 194.323 0.344434Q194.511 0.401436 194.696 0.467589Q194.881 0.533742 195.062 0.608888Q195.243 0.684033 195.421 0.76799Q195.599 0.851946 195.772 0.944512Q195.945 1.03708 196.113 1.13803Q196.282 1.23898 196.445 1.34807Q196.608 1.45717 196.766 1.57414Q196.924 1.69112 197.076 1.81569Q197.227 1.94026 197.373 2.07213Q197.518 2.204 197.657 2.34285Q197.796 2.4817 197.928 2.6272Q198.06 2.7727 198.184 2.92449Q198.309 3.07628 198.426 3.234Q198.543 3.39172 198.652 3.55499Q198.761 3.71826 198.862 3.88669Q198.963 4.05512 199.055 4.2283Q199.148 4.40148 199.232 4.57899Q199.316 4.7565 199.391 4.93791Q199.466 5.11933 199.532 5.30422Q199.599 5.4891 199.656 5.67701Q199.713 5.86492 199.76 6.0554Q199.808 6.24588 199.846 6.43847Q199.885 6.63106 199.913 6.8253Q199.942 7.01954 199.961 7.21496Q199.981 7.41038 199.99 7.60651Q200 7.80264 200 7.999L200 247.001Q200 247.197 199.99 247.393Q199.981 247.59 199.961 247.785Q199.942 247.98 199.913 248.175Q199.885 248.369 199.846 248.562Q199.808 248.754 199.76 248.945Q199.713 249.135 199.656 249.323Q199.599 249.511 199.532 249.696Q199.466 249.881 199.391 250.062Q199.316 250.243 199.232 250.421Q199.148 250.599 199.055 250.772Q198.963 250.945 198.862 251.113Q198.761 251.282 198.652 251.445Q198.543 251.608 198.426 251.766Q198.309 251.924 198.184 252.076Q198.06 252.227 197.928 252.373Q197.796 252.518 197.657 252.657Q197.518 252.796 197.373 252.928Q197.227 253.06 197.076 253.184Q196.924 253.309 196.766 253.426Q196.608 253.543 196.445 253.652Q196.282 253.761 196.113 253.862Q195.945 253.963 195.772 254.055Q195.599 254.148 195.421 254.232Q195.243 254.316 195.062 254.391Q194.881 254.466 194.696 254.532Q194.511 254.599 194.323 254.656Q194.135 254.713 193.945 254.76Q193.754 254.808 193.562 254.846Q193.369 254.885 193.175 254.913Q192.98 254.942 192.785 254.962Q192.59 254.981 192.393 254.99Q192.197 255 192.001 255L7.999 255Q7.80264 255 7.60651 254.99Q7.41038 254.981 7.21496 254.962Q7.01954 254.942 6.8253 254.913Q6.63106 254.885 6.43847 254.846Q6.24588 254.808 6.0554 254.76Q5.86492 254.713 5.67701 254.656Q5.4891 254.599 5.30422 254.532Q5.11933 254.466 4.93791 254.391Q4.7565 254.316 4.57899 254.232Q4.40148 254.148 4.2283 254.055Q4.05512 253.963 3.88669 253.862Q3.71826 253.761 3.55499 253.652Q3.39172 253.543 3.234 253.426Q3.07628 253.309 2.92449 253.184Q2.7727 253.06 2.6272 252.928Q2.4817 252.796 2.34285 252.657Q2.204 252.518 2.07213 252.373Q1.94026 252.227 1.81569 252.076Q1.69112 251.924 1.57414 251.766Q1.45717 251.608 1.34807 251.445Q1.23898 251.282 1.13803 251.113Q1.03708 250.945 0.944512 250.772Q0.851946 250.599 0.76799 250.421Q0.684033 250.243 0.608888 250.062Q0.533742 249.881 0.467589 249.696Q0.401436 249.511 0.344434 249.323Q0.287433 249.135 0.23972 248.945Q0.192007 248.754 0.153699 248.562Q0.11539 248.369 0.0865771 248.175Q0.0577644 247.98 0.0385174 247.785Q0.0192703 247.59 0.00963514 247.393Q0 247.197 0 247.001L0 7.999Q0 7.80264 0.00963514 7.60651Q0.0192703 7.41038 0.0385174 7.21496Q0.0577644 7.01954 0.0865771 6.8253Q0.11539 6.63106 0.153699 6.43847Q0.192007 6.24588 0.23972 6.0554Q0.287433 5.86492 0.344434 5.67701Q0.401436 5.4891 0.467589 5.30422Q0.533742 5.11933 0.608888 4.93791Q0.684033 4.7565 0.76799 4.57899Q0.851946 4.40148 0.944512 4.2283Q1.03708 4.05512 1.13803 3.88669Q1.23898 3.71826 1.34807 3.55499Q1.45717 3.39172 1.57414 3.234Q1.69112 3.07628 1.81569 2.92449Q1.94026 2.7727 2.07213 2.6272Q2.204 2.4817 2.34285 2.34285Q2.4817 2.204 2.6272 2.07213Q2.7727 1.94026 2.92449 1.81569Q3.07628 1.69112 3.234 1.57414Q3.39172 1.45717 3.55499 1.34807Q3.71826 1.23898 3.88669 1.13803Q4.05512 1.03708 4.2283 0.944512Q4.40148 0.851946 4.57899 0.76799Q4.7565 0.684033 4.93791 0.608888Q5.11933 0.533742 5.30422 0.467589Q5.4891 0.401436 5.67701 0.344434Q5.86492 0.287433 6.0554 0.23972Q6.24588 0.192007 6.43847 0.153699Q6.63106 0.11539 6.8253 0.0865771Q7.01954 0.0577644 7.21496 0.0385174Q7.41038 0.0192703 7.60651 0.00963514Q7.80264 0 7.999 0L7.999 0Z" id="Rectangle" fill="#FFFFFF" stroke="none" />
      </g>
      <g id="Group" transform="translate(23 29)">
        <path d="M2.999 0L98.3184 0Q98.4657 0 98.6123 0.014441Q98.7589 0.028882 98.9034 0.0576249Q99.0479 0.0863679 99.1889 0.129136Q99.3299 0.171904 99.466 0.228285Q99.6021 0.284667 99.7321 0.354118Q99.862 0.42357 99.9845 0.505423Q100.107 0.587276 100.221 0.680742Q100.335 0.774208 100.439 0.878387Q100.543 0.982566 100.637 1.09645Q100.73 1.21034 100.812 1.33284Q100.894 1.45535 100.963 1.58528Q101.033 1.71522 101.089 1.85133Q101.145 1.98745 101.188 2.12844Q101.231 2.26942 101.26 2.41392Q101.288 2.55842 101.303 2.70505Q101.317 2.85167 101.317 2.999L101.317 3.001Q101.317 3.14833 101.303 3.29495Q101.288 3.44158 101.26 3.58608Q101.231 3.73058 101.188 3.87156Q101.145 4.01255 101.089 4.14867Q101.033 4.28478 100.963 4.41472Q100.894 4.54465 100.812 4.66715Q100.73 4.78966 100.637 4.90355Q100.543 5.01743 100.439 5.12161Q100.335 5.22579 100.221 5.31926Q100.107 5.41272 99.9845 5.49458Q99.862 5.57643 99.7321 5.64588Q99.6021 5.71533 99.466 5.77171Q99.3299 5.8281 99.1889 5.87086Q99.0479 5.91363 98.9034 5.94237Q98.7589 5.97112 98.6123 5.98556Q98.4657 6 98.3184 6L2.999 6Q2.85167 6 2.70505 5.98556Q2.55842 5.97112 2.41392 5.94237Q2.26942 5.91363 2.12844 5.87086Q1.98745 5.8281 1.85133 5.77171Q1.71522 5.71533 1.58528 5.64588Q1.45535 5.57643 1.33284 5.49458Q1.21034 5.41272 1.09645 5.31926Q0.982566 5.22579 0.878387 5.12161Q0.774208 5.01743 0.680742 4.90355Q0.587276 4.78966 0.505423 4.66715Q0.42357 4.54465 0.354118 4.41472Q0.284667 4.28478 0.228285 4.14867Q0.171904 4.01255 0.129136 3.87156Q0.0863679 3.73058 0.0576249 3.58608Q0.028882 3.44158 0.014441 3.29495Q0 3.14833 0 3.001L0 2.999Q0 2.85167 0.014441 2.70505Q0.028882 2.55842 0.0576249 2.41392Q0.0863679 2.26942 0.129136 2.12844Q0.171904 1.98745 0.228285 1.85133Q0.284667 1.71522 0.354118 1.58528Q0.42357 1.45535 0.505423 1.33284Q0.587276 1.21034 0.680742 1.09645Q0.774208 0.982566 0.878387 0.878387Q0.982566 0.774208 1.09645 0.680742Q1.21034 0.587276 1.33284 0.505423Q1.45535 0.42357 1.58528 0.354118Q1.71522 0.284667 1.85133 0.228285Q1.98745 0.171904 2.12844 0.129136Q2.26942 0.0863679 2.41392 0.0576249Q2.55842 0.028882 2.70505 0.014441Q2.85167 0 2.999 0Z" transform="translate(45.68263 6)" id="Rectangle" fill="#242A45" fill-opacity="0.5" stroke="none" />
        <path d="M16 32C24.8366 32 32 24.8366 32 16C32 7.16344 24.8366 0 16 0C7.16344 0 0 7.16344 0 16C0 24.8366 7.16344 32 16 32Z" id="Oval" fill="#5267DF" stroke="none" />
        <path d="M2.999 0L51.0369 0Q51.1843 0 51.3309 0.014441Q51.4775 0.028882 51.622 0.0576249Q51.7665 0.0863679 51.9075 0.129136Q52.0485 0.171904 52.1846 0.228285Q52.3207 0.284667 52.4506 0.354118Q52.5806 0.42357 52.7031 0.505423Q52.8256 0.587276 52.9395 0.680742Q53.0534 0.774208 53.1575 0.878387Q53.2617 0.982566 53.3552 1.09645Q53.4487 1.21034 53.5305 1.33284Q53.6124 1.45535 53.6818 1.58528Q53.7513 1.71522 53.8076 1.85133Q53.864 1.98745 53.9068 2.12844Q53.9496 2.26942 53.9783 2.41392Q54.0071 2.55842 54.0215 2.70505Q54.0359 2.85167 54.0359 2.999L54.0359 3.001Q54.0359 3.14833 54.0215 3.29495Q54.0071 3.44157 53.9783 3.58608Q53.9496 3.73058 53.9068 3.87156Q53.864 4.01255 53.8076 4.14867Q53.7513 4.28478 53.6818 4.41472Q53.6124 4.54465 53.5305 4.66715Q53.4487 4.78966 53.3552 4.90354Q53.2617 5.01743 53.1575 5.12161Q53.0534 5.22579 52.9395 5.31926Q52.8256 5.41272 52.7031 5.49458Q52.5806 5.57643 52.4506 5.64588Q52.3207 5.71533 52.1846 5.77171Q52.0485 5.8281 51.9075 5.87086Q51.7665 5.91363 51.622 5.94237Q51.4775 5.97112 51.3309 5.98556Q51.1843 6 51.0369 6L2.999 6Q2.85167 6 2.70505 5.98556Q2.55842 5.97112 2.41392 5.94237Q2.26942 5.91363 2.12844 5.87086Q1.98745 5.8281 1.85133 5.77171Q1.71522 5.71533 1.58528 5.64588Q1.45535 5.57643 1.33284 5.49458Q1.21034 5.41272 1.09645 5.31926Q0.982566 5.22579 0.878387 5.12161Q0.774208 5.01743 0.680742 4.90355Q0.587276 4.78966 0.505423 4.66715Q0.42357 4.54465 0.354118 4.41472Q0.284667 4.28478 0.228285 4.14867Q0.171904 4.01255 0.129136 3.87156Q0.0863679 3.73058 0.0576249 3.58608Q0.028882 3.44158 0.014441 3.29495Q0 3.14833 0 3.001L0 2.999Q0 2.85167 0.014441 2.70505Q0.028882 2.55843 0.0576249 2.41392Q0.0863679 2.26942 0.129136 2.12844Q0.171904 1.98745 0.228285 1.85133Q0.284667 1.71522 0.354118 1.58528Q0.42357 1.45535 0.505423 1.33284Q0.587276 1.21034 0.680742 1.09645Q0.774208 0.982566 0.878387 0.878387Q0.982566 0.774208 1.09645 0.680742Q1.21034 0.587276 1.33284 0.505423Q1.45535 0.42357 1.58528 0.354118Q1.71522 0.284667 1.85133 0.228285Q1.98745 0.171904 2.12844 0.129136Q2.26942 0.0863679 2.41392 0.0576249Q2.55843 0.028882 2.70505 0.014441Q2.85167 0 2.999 0L2.999 0Z" transform="translate(45.68263 20)" id="Rectangle-Copy-6" fill="#242A45" fill-opacity="0.25" stroke="none" />
        <g id="Group-29-Copy" transform="translate(0 56)">
          <path d="M16 32C24.8366 32 32 24.8366 32 16C32 7.16344 24.8366 0 16 0C7.16344 0 0 7.16344 0 16C0 24.8366 7.16344 32 16 32Z" id="Oval" fill="#5267DF" stroke="none" />
          <path d="M2.999 0L98.3184 0Q98.4657 0 98.6123 0.014441Q98.7589 0.028882 98.9034 0.0576249Q99.0479 0.0863679 99.1889 0.129136Q99.3299 0.171904 99.466 0.228285Q99.6021 0.284667 99.7321 0.354118Q99.862 0.42357 99.9845 0.505423Q100.107 0.587276 100.221 0.680742Q100.335 0.774208 100.439 0.878387Q100.543 0.982566 100.637 1.09645Q100.73 1.21034 100.812 1.33284Q100.894 1.45535 100.963 1.58528Q101.033 1.71522 101.089 1.85133Q101.145 1.98745 101.188 2.12844Q101.231 2.26942 101.26 2.41392Q101.288 2.55842 101.303 2.70505Q101.317 2.85167 101.317 2.999L101.317 3.001Q101.317 3.14833 101.303 3.29495Q101.288 3.44158 101.26 3.58608Q101.231 3.73058 101.188 3.87156Q101.145 4.01255 101.089 4.14867Q101.033 4.28478 100.963 4.41472Q100.894 4.54465 100.812 4.66715Q100.73 4.78966 100.637 4.90355Q100.543 5.01743 100.439 5.12161Q100.335 5.22579 100.221 5.31926Q100.107 5.41272 99.9845 5.49458Q99.862 5.57643 99.7321 5.64588Q99.6021 5.71533 99.466 5.77171Q99.3299 5.8281 99.1889 5.87086Q99.0479 5.91363 98.9034 5.94237Q98.7589 5.97112 98.6123 5.98556Q98.4657 6 98.3184 6L2.999 6Q2.85167 6 2.70505 5.98556Q2.55842 5.97112 2.41392 5.94237Q2.26942 5.91363 2.12844 5.87086Q1.98745 5.8281 1.85133 5.77171Q1.71522 5.71533 1.58528 5.64588Q1.45535 5.57643 1.33284 5.49458Q1.21034 5.41272 1.09645 5.31926Q0.982566 5.22579 0.878387 5.12161Q0.774208 5.01743 0.680742 4.90355Q0.587276 4.78966 0.505423 4.66715Q0.42357 4.54465 0.354118 4.41472Q0.284667 4.28478 0.228285 4.14867Q0.171904 4.01255 0.129136 3.87156Q0.0863679 3.73058 0.0576249 3.58608Q0.028882 3.44158 0.014441 3.29495Q0 3.14833 0 3.001L0 2.999Q0 2.85167 0.014441 2.70505Q0.028882 2.55842 0.0576249 2.41392Q0.0863679 2.26942 0.129136 2.12844Q0.171904 1.98745 0.228285 1.85133Q0.284667 1.71522 0.354118 1.58528Q0.42357 1.45535 0.505423 1.33284Q0.587276 1.21034 0.680742 1.09645Q0.774208 0.982566 0.878387 0.878387Q0.982566 0.774208 1.09645 0.680742Q1.21034 0.587276 1.33284 0.505423Q1.45535 0.42357 1.58528 0.354118Q1.71522 0.284667 1.85133 0.228285Q1.98745 0.171904 2.12844 0.129136Q2.26942 0.0863679 2.41392 0.0576249Q2.55842 0.028882 2.70505 0.014441Q2.85167 0 2.999 0Z" transform="translate(45.68263 6)" id="Rectangle" fill="#242A45" fill-opacity="0.5" stroke="none" />
          <path d="M2.999 0L51.0369 0Q51.1843 0 51.3309 0.014441Q51.4775 0.028882 51.622 0.0576249Q51.7665 0.0863679 51.9075 0.129136Q52.0485 0.171904 52.1846 0.228285Q52.3207 0.284667 52.4506 0.354118Q52.5806 0.42357 52.7031 0.505423Q52.8256 0.587276 52.9395 0.680742Q53.0534 0.774208 53.1575 0.878387Q53.2617 0.982566 53.3552 1.09645Q53.4487 1.21034 53.5305 1.33284Q53.6124 1.45535 53.6818 1.58528Q53.7513 1.71522 53.8076 1.85133Q53.864 1.98745 53.9068 2.12844Q53.9496 2.26942 53.9783 2.41392Q54.0071 2.55842 54.0215 2.70505Q54.0359 2.85167 54.0359 2.999L54.0359 3.001Q54.0359 3.14833 54.0215 3.29495Q54.0071 3.44157 53.9783 3.58608Q53.9496 3.73058 53.9068 3.87156Q53.864 4.01255 53.8076 4.14867Q53.7513 4.28478 53.6818 4.41472Q53.6124 4.54465 53.5305 4.66715Q53.4487 4.78966 53.3552 4.90354Q53.2617 5.01743 53.1575 5.12161Q53.0534 5.22579 52.9395 5.31926Q52.8256 5.41272 52.7031 5.49458Q52.5806 5.57643 52.4506 5.64588Q52.3207 5.71533 52.1846 5.77171Q52.0485 5.8281 51.9075 5.87086Q51.7665 5.91363 51.622 5.94237Q51.4775 5.97112 51.3309 5.98556Q51.1843 6 51.0369 6L2.999 6Q2.85167 6 2.70505 5.98556Q2.55842 5.97112 2.41392 5.94237Q2.26942 5.91363 2.12844 5.87086Q1.98745 5.8281 1.85133 5.77171Q1.71522 5.71533 1.58528 5.64588Q1.45535 5.57643 1.33284 5.49458Q1.21034 5.41272 1.09645 5.31926Q0.982566 5.22579 0.878387 5.12161Q0.774208 5.01743 0.680742 4.90355Q0.587276 4.78966 0.505423 4.66715Q0.42357 4.54465 0.354118 4.41472Q0.284667 4.28478 0.228285 4.14867Q0.171904 4.01255 0.129136 3.87156Q0.0863679 3.73058 0.0576249 3.58608Q0.028882 3.44158 0.014441 3.29495Q0 3.14833 0 3.001L0 2.999Q0 2.85167 0.014441 2.70505Q0.028882 2.55843 0.0576249 2.41392Q0.0863679 2.26942 0.129136 2.12844Q0.171904 1.98745 0.228285 1.85133Q0.284667 1.71522 0.354118 1.58528Q0.42357 1.45535 0.505423 1.33284Q0.587276 1.21034 0.680742 1.09645Q0.774208 0.982566 0.878387 0.878387Q0.982566 0.774208 1.09645 0.680742Q1.21034 0.587276 1.33284 0.505423Q1.45535 0.42357 1.58528 0.354118Q1.71522 0.284667 1.85133 0.228285Q1.98745 0.171904 2.12844 0.129136Q2.26942 0.0863679 2.41392 0.0576249Q2.55843 0.028882 2.70505 0.014441Q2.85167 0 2.999 0L2.999 0Z" transform="translate(45.68263 20)" id="Rectangle-Copy-6" fill="#242A45" fill-opacity="0.25" stroke="none" />
        </g>
        <g id="Group-29-Copy-2" transform="translate(0 112)">
          <path d="M16 32C24.8366 32 32 24.8366 32 16C32 7.16344 24.8366 0 16 0C7.16344 0 0 7.16344 0 16C0 24.8366 7.16344 32 16 32Z" id="Oval" fill="#5267DF" stroke="none" />
          <path d="M2.999 0L98.3184 0Q98.4657 0 98.6123 0.014441Q98.7589 0.028882 98.9034 0.0576249Q99.0479 0.0863679 99.1889 0.129136Q99.3299 0.171904 99.466 0.228285Q99.6021 0.284667 99.7321 0.354118Q99.862 0.42357 99.9845 0.505423Q100.107 0.587276 100.221 0.680742Q100.335 0.774208 100.439 0.878387Q100.543 0.982566 100.637 1.09645Q100.73 1.21034 100.812 1.33284Q100.894 1.45535 100.963 1.58528Q101.033 1.71522 101.089 1.85133Q101.145 1.98745 101.188 2.12844Q101.231 2.26942 101.26 2.41392Q101.288 2.55842 101.303 2.70505Q101.317 2.85167 101.317 2.999L101.317 3.001Q101.317 3.14833 101.303 3.29495Q101.288 3.44158 101.26 3.58608Q101.231 3.73058 101.188 3.87156Q101.145 4.01255 101.089 4.14867Q101.033 4.28478 100.963 4.41472Q100.894 4.54465 100.812 4.66715Q100.73 4.78966 100.637 4.90355Q100.543 5.01743 100.439 5.12161Q100.335 5.22579 100.221 5.31926Q100.107 5.41272 99.9845 5.49458Q99.862 5.57643 99.7321 5.64588Q99.6021 5.71533 99.466 5.77171Q99.3299 5.8281 99.1889 5.87086Q99.0479 5.91363 98.9034 5.94237Q98.7589 5.97112 98.6123 5.98556Q98.4657 6 98.3184 6L2.999 6Q2.85167 6 2.70505 5.98556Q2.55842 5.97112 2.41392 5.94237Q2.26942 5.91363 2.12844 5.87086Q1.98745 5.8281 1.85133 5.77171Q1.71522 5.71533 1.58528 5.64588Q1.45535 5.57643 1.33284 5.49458Q1.21034 5.41272 1.09645 5.31926Q0.982566 5.22579 0.878387 5.12161Q0.774208 5.01743 0.680742 4.90355Q0.587276 4.78966 0.505423 4.66715Q0.42357 4.54465 0.354118 4.41472Q0.284667 4.28478 0.228285 4.14867Q0.171904 4.01255 0.129136 3.87156Q0.0863679 3.73058 0.0576249 3.58608Q0.028882 3.44158 0.014441 3.29495Q0 3.14833 0 3.001L0 2.999Q0 2.85167 0.014441 2.70505Q0.028882 2.55842 0.0576249 2.41392Q0.0863679 2.26942 0.129136 2.12844Q0.171904 1.98745 0.228285 1.85133Q0.284667 1.71522 0.354118 1.58528Q0.42357 1.45535 0.505423 1.33284Q0.587276 1.21034 0.680742 1.09645Q0.774208 0.982566 0.878387 0.878387Q0.982566 0.774208 1.09645 0.680742Q1.21034 0.587276 1.33284 0.505423Q1.45535 0.42357 1.58528 0.354118Q1.71522 0.284667 1.85133 0.228285Q1.98745 0.171904 2.12844 0.129136Q2.26942 0.0863679 2.41392 0.0576249Q2.55842 0.028882 2.70505 0.014441Q2.85167 0 2.999 0Z" transform="translate(45.68263 6)" id="Rectangle" fill="#242A45" fill-opacity="0.5" stroke="none" />
          <path d="M2.999 0L51.0369 0Q51.1843 0 51.3309 0.014441Q51.4775 0.028882 51.622 0.0576249Q51.7665 0.0863679 51.9075 0.129136Q52.0485 0.171904 52.1846 0.228285Q52.3207 0.284667 52.4506 0.354118Q52.5806 0.42357 52.7031 0.505423Q52.8256 0.587276 52.9395 0.680742Q53.0534 0.774208 53.1575 0.878387Q53.2617 0.982566 53.3552 1.09645Q53.4487 1.21034 53.5305 1.33284Q53.6124 1.45535 53.6818 1.58528Q53.7513 1.71522 53.8076 1.85133Q53.864 1.98745 53.9068 2.12844Q53.9496 2.26942 53.9783 2.41392Q54.0071 2.55842 54.0215 2.70505Q54.0359 2.85167 54.0359 2.999L54.0359 3.001Q54.0359 3.14833 54.0215 3.29495Q54.0071 3.44157 53.9783 3.58608Q53.9496 3.73058 53.9068 3.87156Q53.864 4.01255 53.8076 4.14867Q53.7513 4.28478 53.6818 4.41472Q53.6124 4.54465 53.5305 4.66715Q53.4487 4.78966 53.3552 4.90354Q53.2617 5.01743 53.1575 5.12161Q53.0534 5.22579 52.9395 5.31926Q52.8256 5.41272 52.7031 5.49458Q52.5806 5.57643 52.4506 5.64588Q52.3207 5.71533 52.1846 5.77171Q52.0485 5.8281 51.9075 5.87086Q51.7665 5.91363 51.622 5.94237Q51.4775 5.97112 51.3309 5.98556Q51.1843 6 51.0369 6L2.999 6Q2.85167 6 2.70505 5.98556Q2.55842 5.97112 2.41392 5.94237Q2.26942 5.91363 2.12844 5.87086Q1.98745 5.8281 1.85133 5.77171Q1.71522 5.71533 1.58528 5.64588Q1.45535 5.57643 1.33284 5.49458Q1.21034 5.41272 1.09645 5.31926Q0.982566 5.22579 0.878387 5.12161Q0.774208 5.01743 0.680742 4.90355Q0.587276 4.78966 0.505423 4.66715Q0.42357 4.54465 0.354118 4.41472Q0.284667 4.28478 0.228285 4.14867Q0.171904 4.01255 0.129136 3.87156Q0.0863679 3.73058 0.0576249 3.58608Q0.028882 3.44158 0.014441 3.29495Q0 3.14833 0 3.001L0 2.999Q0 2.85167 0.014441 2.70505Q0.028882 2.55843 0.0576249 2.41392Q0.0863679 2.26942 0.129136 2.12844Q0.171904 1.98745 0.228285 1.85133Q0.284667 1.71522 0.354118 1.58528Q0.42357 1.45535 0.505423 1.33284Q0.587276 1.21034 0.680742 1.09645Q0.774208 0.982566 0.878387 0.878387Q0.982566 0.774208 1.09645 0.680742Q1.21034 0.587276 1.33284 0.505423Q1.45535 0.42357 1.58528 0.354118Q1.71522 0.284667 1.85133 0.228285Q1.98745 0.171904 2.12844 0.129136Q2.26942 0.0863679 2.41392 0.0576249Q2.55843 0.028882 2.70505 0.014441Q2.85167 0 2.999 0L2.999 0Z" transform="translate(45.68263 20)" id="Rectangle-Copy-6" fill="#242A45" fill-opacity="0.25" stroke="none" />
        </g>
        <g id="Group-29-Copy-3" transform="translate(0 168)">
          <path d="M16 32C24.8366 32 32 24.8366 32 16C32 7.16344 24.8366 0 16 0C7.16344 0 0 7.16344 0 16C0 24.8366 7.16344 32 16 32Z" id="Oval" fill="#5267DF" stroke="none" />
          <path d="M2.999 0L98.3184 0Q98.4657 0 98.6123 0.014441Q98.7589 0.028882 98.9034 0.0576249Q99.0479 0.0863679 99.1889 0.129136Q99.3299 0.171904 99.466 0.228285Q99.6021 0.284667 99.7321 0.354118Q99.862 0.42357 99.9845 0.505423Q100.107 0.587276 100.221 0.680742Q100.335 0.774208 100.439 0.878387Q100.543 0.982566 100.637 1.09645Q100.73 1.21034 100.812 1.33284Q100.894 1.45535 100.963 1.58528Q101.033 1.71522 101.089 1.85133Q101.145 1.98745 101.188 2.12844Q101.231 2.26942 101.26 2.41392Q101.288 2.55842 101.303 2.70505Q101.317 2.85167 101.317 2.999L101.317 3.001Q101.317 3.14833 101.303 3.29495Q101.288 3.44158 101.26 3.58608Q101.231 3.73058 101.188 3.87156Q101.145 4.01255 101.089 4.14867Q101.033 4.28478 100.963 4.41472Q100.894 4.54465 100.812 4.66715Q100.73 4.78966 100.637 4.90355Q100.543 5.01743 100.439 5.12161Q100.335 5.22579 100.221 5.31926Q100.107 5.41272 99.9845 5.49458Q99.862 5.57643 99.7321 5.64588Q99.6021 5.71533 99.466 5.77171Q99.3299 5.8281 99.1889 5.87086Q99.0479 5.91363 98.9034 5.94237Q98.7589 5.97112 98.6123 5.98556Q98.4657 6 98.3184 6L2.999 6Q2.85167 6 2.70505 5.98556Q2.55842 5.97112 2.41392 5.94237Q2.26942 5.91363 2.12844 5.87086Q1.98745 5.8281 1.85133 5.77171Q1.71522 5.71533 1.58528 5.64588Q1.45535 5.57643 1.33284 5.49458Q1.21034 5.41272 1.09645 5.31926Q0.982566 5.22579 0.878387 5.12161Q0.774208 5.01743 0.680742 4.90355Q0.587276 4.78966 0.505423 4.66715Q0.42357 4.54465 0.354118 4.41472Q0.284667 4.28478 0.228285 4.14867Q0.171904 4.01255 0.129136 3.87156Q0.0863679 3.73058 0.0576249 3.58608Q0.028882 3.44158 0.014441 3.29495Q0 3.14833 0 3.001L0 2.999Q0 2.85167 0.014441 2.70505Q0.028882 2.55842 0.0576249 2.41392Q0.0863679 2.26942 0.129136 2.12844Q0.171904 1.98745 0.228285 1.85133Q0.284667 1.71522 0.354118 1.58528Q0.42357 1.45535 0.505423 1.33284Q0.587276 1.21034 0.680742 1.09645Q0.774208 0.982566 0.878387 0.878387Q0.982566 0.774208 1.09645 0.680742Q1.21034 0.587276 1.33284 0.505423Q1.45535 0.42357 1.58528 0.354118Q1.71522 0.284667 1.85133 0.228285Q1.98745 0.171904 2.12844 0.129136Q2.26942 0.0863679 2.41392 0.0576249Q2.55842 0.028882 2.70505 0.014441Q2.85167 0 2.999 0Z" transform="translate(45.68263 6)" id="Rectangle" fill="#242A45" fill-opacity="0.5" stroke="none" />
          <path d="M2.999 0L51.0369 0Q51.1843 0 51.3309 0.014441Q51.4775 0.028882 51.622 0.0576249Q51.7665 0.0863679 51.9075 0.129136Q52.0485 0.171904 52.1846 0.228285Q52.3207 0.284667 52.4506 0.354118Q52.5806 0.42357 52.7031 0.505423Q52.8256 0.587276 52.9395 0.680742Q53.0534 0.774208 53.1575 0.878387Q53.2617 0.982566 53.3552 1.09645Q53.4487 1.21034 53.5305 1.33284Q53.6124 1.45535 53.6818 1.58528Q53.7513 1.71522 53.8076 1.85133Q53.864 1.98745 53.9068 2.12844Q53.9496 2.26942 53.9783 2.41392Q54.0071 2.55842 54.0215 2.70505Q54.0359 2.85167 54.0359 2.999L54.0359 3.001Q54.0359 3.14833 54.0215 3.29495Q54.0071 3.44157 53.9783 3.58608Q53.9496 3.73058 53.9068 3.87156Q53.864 4.01255 53.8076 4.14867Q53.7513 4.28478 53.6818 4.41472Q53.6124 4.54465 53.5305 4.66715Q53.4487 4.78966 53.3552 4.90354Q53.2617 5.01743 53.1575 5.12161Q53.0534 5.22579 52.9395 5.31926Q52.8256 5.41272 52.7031 5.49458Q52.5806 5.57643 52.4506 5.64588Q52.3207 5.71533 52.1846 5.77171Q52.0485 5.8281 51.9075 5.87086Q51.7665 5.91363 51.622 5.94237Q51.4775 5.97112 51.3309 5.98556Q51.1843 6 51.0369 6L2.999 6Q2.85167 6 2.70505 5.98556Q2.55842 5.97112 2.41392 5.94237Q2.26942 5.91363 2.12844 5.87086Q1.98745 5.8281 1.85133 5.77171Q1.71522 5.71533 1.58528 5.64588Q1.45535 5.57643 1.33284 5.49458Q1.21034 5.41272 1.09645 5.31926Q0.982566 5.22579 0.878387 5.12161Q0.774208 5.01743 0.680742 4.90355Q0.587276 4.78966 0.505423 4.66715Q0.42357 4.54465 0.354118 4.41472Q0.284667 4.28478 0.228285 4.14867Q0.171904 4.01255 0.129136 3.87156Q0.0863679 3.73058 0.0576249 3.58608Q0.028882 3.44158 0.014441 3.29495Q0 3.14833 0 3.001L0 2.999Q0 2.85167 0.014441 2.70505Q0.028882 2.55843 0.0576249 2.41392Q0.0863679 2.26942 0.129136 2.12844Q0.171904 1.98745 0.228285 1.85133Q0.284667 1.71522 0.354118 1.58528Q0.42357 1.45535 0.505423 1.33284Q0.587276 1.21034 0.680742 1.09645Q0.774208 0.982566 0.878387 0.878387Q0.982566 0.774208 1.09645 0.680742Q1.21034 0.587276 1.33284 0.505423Q1.45535 0.42357 1.58528 0.354118Q1.71522 0.284667 1.85133 0.228285Q1.98745 0.171904 2.12844 0.129136Q2.26942 0.0863679 2.41392 0.0576249Q2.55843 0.028882 2.70505 0.014441Q2.85167 0 2.999 0L2.999 0Z" transform="translate(45.68263 20)" id="Rectangle-Copy-6" fill="#242A45" fill-opacity="0.25" stroke="none" />
        </g>
      </g>
    </g>
    <g id="Group-2-Copy" transform="translate(251 138)">
      <g filter="url(#filter_1)">
        <path d="M7.999 0L192.001 0Q192.197 0 192.393 0.00963514Q192.59 0.0192703 192.785 0.0385174Q192.98 0.0577644 193.175 0.0865771Q193.369 0.11539 193.562 0.153699Q193.754 0.192007 193.945 0.23972Q194.135 0.287433 194.323 0.344434Q194.511 0.401436 194.696 0.467589Q194.881 0.533742 195.062 0.608888Q195.243 0.684033 195.421 0.76799Q195.599 0.851946 195.772 0.944512Q195.945 1.03708 196.113 1.13803Q196.282 1.23898 196.445 1.34807Q196.608 1.45717 196.766 1.57414Q196.924 1.69112 197.076 1.81569Q197.227 1.94026 197.373 2.07213Q197.518 2.204 197.657 2.34285Q197.796 2.4817 197.928 2.6272Q198.06 2.7727 198.184 2.92449Q198.309 3.07628 198.426 3.234Q198.543 3.39172 198.652 3.55499Q198.761 3.71826 198.862 3.88669Q198.963 4.05512 199.055 4.2283Q199.148 4.40148 199.232 4.57899Q199.316 4.7565 199.391 4.93791Q199.466 5.11933 199.532 5.30422Q199.599 5.4891 199.656 5.67701Q199.713 5.86492 199.76 6.0554Q199.808 6.24588 199.846 6.43847Q199.885 6.63106 199.913 6.8253Q199.942 7.01954 199.961 7.21496Q199.981 7.41038 199.99 7.60651Q200 7.80264 200 7.999L200 247.001Q200 247.197 199.99 247.393Q199.981 247.59 199.961 247.785Q199.942 247.98 199.913 248.175Q199.885 248.369 199.846 248.562Q199.808 248.754 199.76 248.945Q199.713 249.135 199.656 249.323Q199.599 249.511 199.532 249.696Q199.466 249.881 199.391 250.062Q199.316 250.243 199.232 250.421Q199.148 250.599 199.055 250.772Q198.963 250.945 198.862 251.113Q198.761 251.282 198.652 251.445Q198.543 251.608 198.426 251.766Q198.309 251.924 198.184 252.076Q198.06 252.227 197.928 252.373Q197.796 252.518 197.657 252.657Q197.518 252.796 197.373 252.928Q197.227 253.06 197.076 253.184Q196.924 253.309 196.766 253.426Q196.608 253.543 196.445 253.652Q196.282 253.761 196.113 253.862Q195.945 253.963 195.772 254.055Q195.599 254.148 195.421 254.232Q195.243 254.316 195.062 254.391Q194.881 254.466 194.696 254.532Q194.511 254.599 194.323 254.656Q194.135 254.713 193.945 254.76Q193.754 254.808 193.562 254.846Q193.369 254.885 193.175 254.913Q192.98 254.942 192.785 254.962Q192.59 254.981 192.393 254.99Q192.197 255 192.001 255L7.999 255Q7.80264 255 7.60651 254.99Q7.41038 254.981 7.21496 254.962Q7.01954 254.942 6.8253 254.913Q6.63106 254.885 6.43847 254.846Q6.24588 254.808 6.0554 254.76Q5.86492 254.713 5.67701 254.656Q5.4891 254.599 5.30422 254.532Q5.11933 254.466 4.93791 254.391Q4.7565 254.316 4.57899 254.232Q4.40148 254.148 4.2283 254.055Q4.05512 253.963 3.88669 253.862Q3.71826 253.761 3.55499 253.652Q3.39172 253.543 3.234 253.426Q3.07628 253.309 2.92449 253.184Q2.7727 253.06 2.6272 252.928Q2.4817 252.796 2.34285 252.657Q2.204 252.518 2.07213 252.373Q1.94026 252.227 1.81569 252.076Q1.69112 251.924 1.57414 251.766Q1.45717 251.608 1.34807 251.445Q1.23898 251.282 1.13803 251.113Q1.03708 250.945 0.944512 250.772Q0.851946 250.599 0.76799 250.421Q0.684033 250.243 0.608888 250.062Q0.533742 249.881 0.467589 249.696Q0.401436 249.511 0.344434 249.323Q0.287433 249.135 0.23972 248.945Q0.192007 248.754 0.153699 248.562Q0.11539 248.369 0.0865771 248.175Q0.0577644 247.98 0.0385174 247.785Q0.0192703 247.59 0.00963514 247.393Q0 247.197 0 247.001L0 7.999Q0 7.80264 0.00963514 7.60651Q0.0192703 7.41038 0.0385174 7.21496Q0.0577644 7.01954 0.0865771 6.8253Q0.11539 6.63106 0.153699 6.43847Q0.192007 6.24588 0.23972 6.0554Q0.287433 5.86492 0.344434 5.67701Q0.401436 5.4891 0.467589 5.30422Q0.533742 5.11933 0.608888 4.93791Q0.684033 4.7565 0.76799 4.57899Q0.851946 4.40148 0.944512 4.2283Q1.03708 4.05512 1.13803 3.88669Q1.23898 3.71826 1.34807 3.55499Q1.45717 3.39172 1.57414 3.234Q1.69112 3.07628 1.81569 2.92449Q1.94026 2.7727 2.07213 2.6272Q2.204 2.4817 2.34285 2.34285Q2.4817 2.204 2.6272 2.07213Q2.7727 1.94026 2.92449 1.81569Q3.07628 1.69112 3.234 1.57414Q3.39172 1.45717 3.55499 1.34807Q3.71826 1.23898 3.88669 1.13803Q4.05512 1.03708 4.2283 0.944512Q4.40148 0.851946 4.57899 0.76799Q4.7565 0.684033 4.93791 0.608888Q5.11933 0.533742 5.30422 0.467589Q5.4891 0.401436 5.67701 0.344434Q5.86492 0.287433 6.0554 0.23972Q6.24588 0.192007 6.43847 0.153699Q6.63106 0.11539 6.8253 0.0865771Q7.01954 0.0577644 7.21496 0.0385174Q7.41038 0.0192703 7.60651 0.00963514Q7.80264 0 7.999 0L7.999 0Z" id="Rectangle" fill="#FFFFFF" stroke="none" />
      </g>
      <g id="Group" transform="translate(23 29)">
        <path d="M2.999 0L98.3184 0Q98.4657 0 98.6123 0.014441Q98.7589 0.028882 98.9034 0.0576249Q99.0479 0.0863679 99.1889 0.129136Q99.3299 0.171904 99.466 0.228285Q99.6021 0.284667 99.7321 0.354118Q99.862 0.42357 99.9845 0.505423Q100.107 0.587276 100.221 0.680742Q100.335 0.774208 100.439 0.878387Q100.543 0.982566 100.637 1.09645Q100.73 1.21034 100.812 1.33284Q100.894 1.45535 100.963 1.58528Q101.033 1.71522 101.089 1.85133Q101.145 1.98745 101.188 2.12844Q101.231 2.26942 101.26 2.41392Q101.288 2.55842 101.303 2.70505Q101.317 2.85167 101.317 2.999L101.317 3.001Q101.317 3.14833 101.303 3.29495Q101.288 3.44158 101.26 3.58608Q101.231 3.73058 101.188 3.87156Q101.145 4.01255 101.089 4.14867Q101.033 4.28478 100.963 4.41472Q100.894 4.54465 100.812 4.66715Q100.73 4.78966 100.637 4.90355Q100.543 5.01743 100.439 5.12161Q100.335 5.22579 100.221 5.31926Q100.107 5.41272 99.9845 5.49458Q99.862 5.57643 99.7321 5.64588Q99.6021 5.71533 99.466 5.77171Q99.3299 5.8281 99.1889 5.87086Q99.0479 5.91363 98.9034 5.94237Q98.7589 5.97112 98.6123 5.98556Q98.4657 6 98.3184 6L2.999 6Q2.85167 6 2.70505 5.98556Q2.55842 5.97112 2.41392 5.94237Q2.26942 5.91363 2.12844 5.87086Q1.98745 5.8281 1.85133 5.77171Q1.71522 5.71533 1.58528 5.64588Q1.45535 5.57643 1.33284 5.49458Q1.21034 5.41272 1.09645 5.31926Q0.982566 5.22579 0.878387 5.12161Q0.774208 5.01743 0.680742 4.90355Q0.587276 4.78966 0.505423 4.66715Q0.42357 4.54465 0.354118 4.41472Q0.284667 4.28478 0.228285 4.14867Q0.171904 4.01255 0.129136 3.87156Q0.0863679 3.73058 0.0576249 3.58608Q0.028882 3.44158 0.014441 3.29495Q0 3.14833 0 3.001L0 2.999Q0 2.85167 0.014441 2.70505Q0.028882 2.55842 0.0576249 2.41392Q0.0863679 2.26942 0.129136 2.12844Q0.171904 1.98745 0.228285 1.85133Q0.284667 1.71522 0.354118 1.58528Q0.42357 1.45535 0.505423 1.33284Q0.587276 1.21034 0.680742 1.09645Q0.774208 0.982566 0.878387 0.878387Q0.982566 0.774208 1.09645 0.680742Q1.21034 0.587276 1.33284 0.505423Q1.45535 0.42357 1.58528 0.354118Q1.71522 0.284667 1.85133 0.228285Q1.98745 0.171904 2.12844 0.129136Q2.26942 0.0863679 2.41392 0.0576249Q2.55842 0.028882 2.70505 0.014441Q2.85167 0 2.999 0Z" transform="translate(45.68265 6)" id="Rectangle" fill="#242A45" fill-opacity="0.5" stroke="none" />
        <path d="M16 32C24.8366 32 32 24.8366 32 16C32 7.16344 24.8366 0 16 0C7.16344 0 0 7.16344 0 16C0 24.8366 7.16344 32 16 32Z" id="Oval" fill="#5267DF" stroke="none" />
        <path d="M2.999 0L51.0369 0Q51.1843 0 51.3309 0.014441Q51.4775 0.028882 51.622 0.0576249Q51.7665 0.0863679 51.9075 0.129136Q52.0485 0.171904 52.1846 0.228285Q52.3207 0.284667 52.4506 0.354118Q52.5806 0.42357 52.7031 0.505423Q52.8256 0.587276 52.9395 0.680742Q53.0534 0.774208 53.1575 0.878387Q53.2617 0.982566 53.3552 1.09645Q53.4487 1.21034 53.5305 1.33284Q53.6124 1.45535 53.6818 1.58528Q53.7513 1.71522 53.8076 1.85133Q53.864 1.98745 53.9068 2.12844Q53.9496 2.26942 53.9783 2.41392Q54.0071 2.55842 54.0215 2.70505Q54.0359 2.85167 54.0359 2.999L54.0359 3.001Q54.0359 3.14833 54.0215 3.29495Q54.0071 3.44157 53.9783 3.58608Q53.9496 3.73058 53.9068 3.87156Q53.864 4.01255 53.8076 4.14867Q53.7513 4.28478 53.6818 4.41472Q53.6124 4.54465 53.5305 4.66715Q53.4487 4.78966 53.3552 4.90354Q53.2617 5.01743 53.1575 5.12161Q53.0534 5.22579 52.9395 5.31926Q52.8256 5.41272 52.7031 5.49458Q52.5806 5.57643 52.4506 5.64588Q52.3207 5.71533 52.1846 5.77171Q52.0485 5.8281 51.9075 5.87086Q51.7665 5.91363 51.622 5.94237Q51.4775 5.97112 51.3309 5.98556Q51.1843 6 51.0369 6L2.999 6Q2.85167 6 2.70505 5.98556Q2.55842 5.97112 2.41392 5.94237Q2.26942 5.91363 2.12844 5.87086Q1.98745 5.8281 1.85133 5.77171Q1.71522 5.71533 1.58528 5.64588Q1.45535 5.57643 1.33284 5.49458Q1.21034 5.41272 1.09645 5.31926Q0.982566 5.22579 0.878387 5.12161Q0.774208 5.01743 0.680742 4.90355Q0.587276 4.78966 0.505423 4.66715Q0.42357 4.54465 0.354118 4.41472Q0.284667 4.28478 0.228285 4.14867Q0.171904 4.01255 0.129136 3.87156Q0.0863679 3.73058 0.0576249 3.58608Q0.028882 3.44158 0.014441 3.29495Q0 3.14833 0 3.001L0 2.999Q0 2.85167 0.014441 2.70505Q0.028882 2.55843 0.0576249 2.41392Q0.0863679 2.26942 0.129136 2.12844Q0.171904 1.98745 0.228285 1.85133Q0.284667 1.71522 0.354118 1.58528Q0.42357 1.45535 0.505423 1.33284Q0.587276 1.21034 0.680742 1.09645Q0.774208 0.982566 0.878387 0.878387Q0.982566 0.774208 1.09645 0.680742Q1.21034 0.587276 1.33284 0.505423Q1.45535 0.42357 1.58528 0.354118Q1.71522 0.284667 1.85133 0.228285Q1.98745 0.171904 2.12844 0.129136Q2.26942 0.0863679 2.41392 0.0576249Q2.55843 0.028882 2.70505 0.014441Q2.85167 0 2.999 0L2.999 0Z" transform="translate(45.68265 20)" id="Rectangle-Copy-6" fill="#242A45" fill-opacity="0.25" stroke="none" />
        <g id="Group-29-Copy" transform="translate(0 56)">
          <path d="M16 32C24.8366 32 32 24.8366 32 16C32 7.16344 24.8366 0 16 0C7.16344 0 0 7.16344 0 16C0 24.8366 7.16344 32 16 32Z" id="Oval" fill="#FA5959" stroke="none" />
          <path d="M2.999 0L98.3184 0Q98.4657 0 98.6123 0.014441Q98.7589 0.028882 98.9034 0.0576249Q99.0479 0.0863679 99.1889 0.129136Q99.3299 0.171904 99.466 0.228285Q99.6021 0.284667 99.7321 0.354118Q99.862 0.42357 99.9845 0.505423Q100.107 0.587276 100.221 0.680742Q100.335 0.774208 100.439 0.878387Q100.543 0.982566 100.637 1.09645Q100.73 1.21034 100.812 1.33284Q100.894 1.45535 100.963 1.58528Q101.033 1.71522 101.089 1.85133Q101.145 1.98745 101.188 2.12844Q101.231 2.26942 101.26 2.41392Q101.288 2.55842 101.303 2.70505Q101.317 2.85167 101.317 2.999L101.317 3.001Q101.317 3.14833 101.303 3.29495Q101.288 3.44158 101.26 3.58608Q101.231 3.73058 101.188 3.87156Q101.145 4.01255 101.089 4.14867Q101.033 4.28478 100.963 4.41472Q100.894 4.54465 100.812 4.66715Q100.73 4.78966 100.637 4.90355Q100.543 5.01743 100.439 5.12161Q100.335 5.22579 100.221 5.31926Q100.107 5.41272 99.9845 5.49458Q99.862 5.57643 99.7321 5.64588Q99.6021 5.71533 99.466 5.77171Q99.3299 5.8281 99.1889 5.87086Q99.0479 5.91363 98.9034 5.94237Q98.7589 5.97112 98.6123 5.98556Q98.4657 6 98.3184 6L2.999 6Q2.85167 6 2.70505 5.98556Q2.55842 5.97112 2.41392 5.94237Q2.26942 5.91363 2.12844 5.87086Q1.98745 5.8281 1.85133 5.77171Q1.71522 5.71533 1.58528 5.64588Q1.45535 5.57643 1.33284 5.49458Q1.21034 5.41272 1.09645 5.31926Q0.982566 5.22579 0.878387 5.12161Q0.774208 5.01743 0.680742 4.90355Q0.587276 4.78966 0.505423 4.66715Q0.42357 4.54465 0.354118 4.41472Q0.284667 4.28478 0.228285 4.14867Q0.171904 4.01255 0.129136 3.87156Q0.0863679 3.73058 0.0576249 3.58608Q0.028882 3.44158 0.014441 3.29495Q0 3.14833 0 3.001L0 2.999Q0 2.85167 0.014441 2.70505Q0.028882 2.55842 0.0576249 2.41392Q0.0863679 2.26942 0.129136 2.12844Q0.171904 1.98745 0.228285 1.85133Q0.284667 1.71522 0.354118 1.58528Q0.42357 1.45535 0.505423 1.33284Q0.587276 1.21034 0.680742 1.09645Q0.774208 0.982566 0.878387 0.878387Q0.982566 0.774208 1.09645 0.680742Q1.21034 0.587276 1.33284 0.505423Q1.45535 0.42357 1.58528 0.354118Q1.71522 0.284667 1.85133 0.228285Q1.98745 0.171904 2.12844 0.129136Q2.26942 0.0863679 2.41392 0.0576249Q2.55842 0.028882 2.70505 0.014441Q2.85167 0 2.999 0Z" transform="translate(45.68265 6)" id="Rectangle" fill="#242A45" fill-opacity="0.5" stroke="none" />
          <path d="M2.999 0L51.0369 0Q51.1843 0 51.3309 0.014441Q51.4775 0.028882 51.622 0.0576249Q51.7665 0.0863679 51.9075 0.129136Q52.0485 0.171904 52.1846 0.228285Q52.3207 0.284667 52.4506 0.354118Q52.5806 0.42357 52.7031 0.505423Q52.8256 0.587276 52.9395 0.680742Q53.0534 0.774208 53.1575 0.878387Q53.2617 0.982566 53.3552 1.09645Q53.4487 1.21034 53.5305 1.33284Q53.6124 1.45535 53.6818 1.58528Q53.7513 1.71522 53.8076 1.85133Q53.864 1.98745 53.9068 2.12844Q53.9496 2.26942 53.9783 2.41392Q54.0071 2.55842 54.0215 2.70505Q54.0359 2.85167 54.0359 2.999L54.0359 3.001Q54.0359 3.14833 54.0215 3.29495Q54.0071 3.44157 53.9783 3.58608Q53.9496 3.73058 53.9068 3.87156Q53.864 4.01255 53.8076 4.14867Q53.7513 4.28478 53.6818 4.41472Q53.6124 4.54465 53.5305 4.66715Q53.4487 4.78966 53.3552 4.90354Q53.2617 5.01743 53.1575 5.12161Q53.0534 5.22579 52.9395 5.31926Q52.8256 5.41272 52.7031 5.49458Q52.5806 5.57643 52.4506 5.64588Q52.3207 5.71533 52.1846 5.77171Q52.0485 5.8281 51.9075 5.87086Q51.7665 5.91363 51.622 5.94237Q51.4775 5.97112 51.3309 5.98556Q51.1843 6 51.0369 6L2.999 6Q2.85167 6 2.70505 5.98556Q2.55842 5.97112 2.41392 5.94237Q2.26942 5.91363 2.12844 5.87086Q1.98745 5.8281 1.85133 5.77171Q1.71522 5.71533 1.58528 5.64588Q1.45535 5.57643 1.33284 5.49458Q1.21034 5.41272 1.09645 5.31926Q0.982566 5.22579 0.878387 5.12161Q0.774208 5.01743 0.680742 4.90355Q0.587276 4.78966 0.505423 4.66715Q0.42357 4.54465 0.354118 4.41472Q0.284667 4.28478 0.228285 4.14867Q0.171904 4.01255 0.129136 3.87156Q0.0863679 3.73058 0.0576249 3.58608Q0.028882 3.44158 0.014441 3.29495Q0 3.14833 0 3.001L0 2.999Q0 2.85167 0.014441 2.70505Q0.028882 2.55843 0.0576249 2.41392Q0.0863679 2.26942 0.129136 2.12844Q0.171904 1.98745 0.228285 1.85133Q0.284667 1.71522 0.354118 1.58528Q0.42357 1.45535 0.505423 1.33284Q0.587276 1.21034 0.680742 1.09645Q0.774208 0.982566 0.878387 0.878387Q0.982566 0.774208 1.09645 0.680742Q1.21034 0.587276 1.33284 0.505423Q1.45535 0.42357 1.58528 0.354118Q1.71522 0.284667 1.85133 0.228285Q1.98745 0.171904 2.12844 0.129136Q2.26942 0.0863679 2.41392 0.0576249Q2.55843 0.028882 2.70505 0.014441Q2.85167 0 2.999 0L2.999 0Z" transform="translate(45.68265 20)" id="Rectangle-Copy-6" fill="#242A45" fill-opacity="0.25" stroke="none" />
        </g>
        <g id="Group-29-Copy-2" transform="translate(0 112)">
          <path d="M16 32C24.8366 32 32 24.8366 32 16C32 7.16344 24.8366 0 16 0C7.16344 0 0 7.16344 0 16C0 24.8366 7.16344 32 16 32Z" id="Oval" fill="#5267DF" stroke="none" />
          <path d="M2.999 0L98.3184 0Q98.4657 0 98.6123 0.014441Q98.7589 0.028882 98.9034 0.0576249Q99.0479 0.0863679 99.1889 0.129136Q99.3299 0.171904 99.466 0.228285Q99.6021 0.284667 99.7321 0.354118Q99.862 0.42357 99.9845 0.505423Q100.107 0.587276 100.221 0.680742Q100.335 0.774208 100.439 0.878387Q100.543 0.982566 100.637 1.09645Q100.73 1.21034 100.812 1.33284Q100.894 1.45535 100.963 1.58528Q101.033 1.71522 101.089 1.85133Q101.145 1.98745 101.188 2.12844Q101.231 2.26942 101.26 2.41392Q101.288 2.55842 101.303 2.70505Q101.317 2.85167 101.317 2.999L101.317 3.001Q101.317 3.14833 101.303 3.29495Q101.288 3.44158 101.26 3.58608Q101.231 3.73058 101.188 3.87156Q101.145 4.01255 101.089 4.14867Q101.033 4.28478 100.963 4.41472Q100.894 4.54465 100.812 4.66715Q100.73 4.78966 100.637 4.90355Q100.543 5.01743 100.439 5.12161Q100.335 5.22579 100.221 5.31926Q100.107 5.41272 99.9845 5.49458Q99.862 5.57643 99.7321 5.64588Q99.6021 5.71533 99.466 5.77171Q99.3299 5.8281 99.1889 5.87086Q99.0479 5.91363 98.9034 5.94237Q98.7589 5.97112 98.6123 5.98556Q98.4657 6 98.3184 6L2.999 6Q2.85167 6 2.70505 5.98556Q2.55842 5.97112 2.41392 5.94237Q2.26942 5.91363 2.12844 5.87086Q1.98745 5.8281 1.85133 5.77171Q1.71522 5.71533 1.58528 5.64588Q1.45535 5.57643 1.33284 5.49458Q1.21034 5.41272 1.09645 5.31926Q0.982566 5.22579 0.878387 5.12161Q0.774208 5.01743 0.680742 4.90355Q0.587276 4.78966 0.505423 4.66715Q0.42357 4.54465 0.354118 4.41472Q0.284667 4.28478 0.228285 4.14867Q0.171904 4.01255 0.129136 3.87156Q0.0863679 3.73058 0.0576249 3.58608Q0.028882 3.44158 0.014441 3.29495Q0 3.14833 0 3.001L0 2.999Q0 2.85167 0.014441 2.70505Q0.028882 2.55842 0.0576249 2.41392Q0.0863679 2.26942 0.129136 2.12844Q0.171904 1.98745 0.228285 1.85133Q0.284667 1.71522 0.354118 1.58528Q0.42357 1.45535 0.505423 1.33284Q0.587276 1.21034 0.680742 1.09645Q0.774208 0.982566 0.878387 0.878387Q0.982566 0.774208 1.09645 0.680742Q1.21034 0.587276 1.33284 0.505423Q1.45535 0.42357 1.58528 0.354118Q1.71522 0.284667 1.85133 0.228285Q1.98745 0.171904 2.12844 0.129136Q2.26942 0.0863679 2.41392 0.0576249Q2.55842 0.028882 2.70505 0.014441Q2.85167 0 2.999 0Z" transform="translate(45.68265 6)" id="Rectangle" fill="#242A45" fill-opacity="0.5" stroke="none" />
          <path d="M2.999 0L51.0369 0Q51.1843 0 51.3309 0.014441Q51.4775 0.028882 51.622 0.0576249Q51.7665 0.0863679 51.9075 0.129136Q52.0485 0.171904 52.1846 0.228285Q52.3207 0.284667 52.4506 0.354118Q52.5806 0.42357 52.7031 0.505423Q52.8256 0.587276 52.9395 0.680742Q53.0534 0.774208 53.1575 0.878387Q53.2617 0.982566 53.3552 1.09645Q53.4487 1.21034 53.5305 1.33284Q53.6124 1.45535 53.6818 1.58528Q53.7513 1.71522 53.8076 1.85133Q53.864 1.98745 53.9068 2.12844Q53.9496 2.26942 53.9783 2.41392Q54.0071 2.55842 54.0215 2.70505Q54.0359 2.85167 54.0359 2.999L54.0359 3.001Q54.0359 3.14833 54.0215 3.29495Q54.0071 3.44157 53.9783 3.58608Q53.9496 3.73058 53.9068 3.87156Q53.864 4.01255 53.8076 4.14867Q53.7513 4.28478 53.6818 4.41472Q53.6124 4.54465 53.5305 4.66715Q53.4487 4.78966 53.3552 4.90354Q53.2617 5.01743 53.1575 5.12161Q53.0534 5.22579 52.9395 5.31926Q52.8256 5.41272 52.7031 5.49458Q52.5806 5.57643 52.4506 5.64588Q52.3207 5.71533 52.1846 5.77171Q52.0485 5.8281 51.9075 5.87086Q51.7665 5.91363 51.622 5.94237Q51.4775 5.97112 51.3309 5.98556Q51.1843 6 51.0369 6L2.999 6Q2.85167 6 2.70505 5.98556Q2.55842 5.97112 2.41392 5.94237Q2.26942 5.91363 2.12844 5.87086Q1.98745 5.8281 1.85133 5.77171Q1.71522 5.71533 1.58528 5.64588Q1.45535 5.57643 1.33284 5.49458Q1.21034 5.41272 1.09645 5.31926Q0.982566 5.22579 0.878387 5.12161Q0.774208 5.01743 0.680742 4.90355Q0.587276 4.78966 0.505423 4.66715Q0.42357 4.54465 0.354118 4.41472Q0.284667 4.28478 0.228285 4.14867Q0.171904 4.01255 0.129136 3.87156Q0.0863679 3.73058 0.0576249 3.58608Q0.028882 3.44158 0.014441 3.29495Q0 3.14833 0 3.001L0 2.999Q0 2.85167 0.014441 2.70505Q0.028882 2.55843 0.0576249 2.41392Q0.0863679 2.26942 0.129136 2.12844Q0.171904 1.98745 0.228285 1.85133Q0.284667 1.71522 0.354118 1.58528Q0.42357 1.45535 0.505423 1.33284Q0.587276 1.21034 0.680742 1.09645Q0.774208 0.982566 0.878387 0.878387Q0.982566 0.774208 1.09645 0.680742Q1.21034 0.587276 1.33284 0.505423Q1.45535 0.42357 1.58528 0.354118Q1.71522 0.284667 1.85133 0.228285Q1.98745 0.171904 2.12844 0.129136Q2.26942 0.0863679 2.41392 0.0576249Q2.55843 0.028882 2.70505 0.014441Q2.85167 0 2.999 0L2.999 0Z" transform="translate(45.68265 20)" id="Rectangle-Copy-6" fill="#242A45" fill-opacity="0.25" stroke="none" />
        </g>
        <g id="Group-29-Copy-3" transform="translate(0 168)">
          <path d="M16 32C24.8366 32 32 24.8366 32 16C32 7.16344 24.8366 0 16 0C7.16344 0 0 7.16344 0 16C0 24.8366 7.16344 32 16 32Z" id="Oval" fill="#5267DF" stroke="none" />
          <path d="M2.999 0L98.3184 0Q98.4657 0 98.6123 0.014441Q98.7589 0.028882 98.9034 0.0576249Q99.0479 0.0863679 99.1889 0.129136Q99.3299 0.171904 99.466 0.228285Q99.6021 0.284667 99.7321 0.354118Q99.862 0.42357 99.9845 0.505423Q100.107 0.587276 100.221 0.680742Q100.335 0.774208 100.439 0.878387Q100.543 0.982566 100.637 1.09645Q100.73 1.21034 100.812 1.33284Q100.894 1.45535 100.963 1.58528Q101.033 1.71522 101.089 1.85133Q101.145 1.98745 101.188 2.12844Q101.231 2.26942 101.26 2.41392Q101.288 2.55842 101.303 2.70505Q101.317 2.85167 101.317 2.999L101.317 3.001Q101.317 3.14833 101.303 3.29495Q101.288 3.44158 101.26 3.58608Q101.231 3.73058 101.188 3.87156Q101.145 4.01255 101.089 4.14867Q101.033 4.28478 100.963 4.41472Q100.894 4.54465 100.812 4.66715Q100.73 4.78966 100.637 4.90355Q100.543 5.01743 100.439 5.12161Q100.335 5.22579 100.221 5.31926Q100.107 5.41272 99.9845 5.49458Q99.862 5.57643 99.7321 5.64588Q99.6021 5.71533 99.466 5.77171Q99.3299 5.8281 99.1889 5.87086Q99.0479 5.91363 98.9034 5.94237Q98.7589 5.97112 98.6123 5.98556Q98.4657 6 98.3184 6L2.999 6Q2.85167 6 2.70505 5.98556Q2.55842 5.97112 2.41392 5.94237Q2.26942 5.91363 2.12844 5.87086Q1.98745 5.8281 1.85133 5.77171Q1.71522 5.71533 1.58528 5.64588Q1.45535 5.57643 1.33284 5.49458Q1.21034 5.41272 1.09645 5.31926Q0.982566 5.22579 0.878387 5.12161Q0.774208 5.01743 0.680742 4.90355Q0.587276 4.78966 0.505423 4.66715Q0.42357 4.54465 0.354118 4.41472Q0.284667 4.28478 0.228285 4.14867Q0.171904 4.01255 0.129136 3.87156Q0.0863679 3.73058 0.0576249 3.58608Q0.028882 3.44158 0.014441 3.29495Q0 3.14833 0 3.001L0 2.999Q0 2.85167 0.014441 2.70505Q0.028882 2.55842 0.0576249 2.41392Q0.0863679 2.26942 0.129136 2.12844Q0.171904 1.98745 0.228285 1.85133Q0.284667 1.71522 0.354118 1.58528Q0.42357 1.45535 0.505423 1.33284Q0.587276 1.21034 0.680742 1.09645Q0.774208 0.982566 0.878387 0.878387Q0.982566 0.774208 1.09645 0.680742Q1.21034 0.587276 1.33284 0.505423Q1.45535 0.42357 1.58528 0.354118Q1.71522 0.284667 1.85133 0.228285Q1.98745 0.171904 2.12844 0.129136Q2.26942 0.0863679 2.41392 0.0576249Q2.55842 0.028882 2.70505 0.014441Q2.85167 0 2.999 0Z" transform="translate(45.68265 6)" id="Rectangle" fill="#242A45" fill-opacity="0.5" stroke="none" />
          <path d="M2.999 0L51.0369 0Q51.1843 0 51.3309 0.014441Q51.4775 0.028882 51.622 0.0576249Q51.7665 0.0863679 51.9075 0.129136Q52.0485 0.171904 52.1846 0.228285Q52.3207 0.284667 52.4506 0.354118Q52.5806 0.42357 52.7031 0.505423Q52.8256 0.587276 52.9395 0.680742Q53.0534 0.774208 53.1575 0.878387Q53.2617 0.982566 53.3552 1.09645Q53.4487 1.21034 53.5305 1.33284Q53.6124 1.45535 53.6818 1.58528Q53.7513 1.71522 53.8076 1.85133Q53.864 1.98745 53.9068 2.12844Q53.9496 2.26942 53.9783 2.41392Q54.0071 2.55842 54.0215 2.70505Q54.0359 2.85167 54.0359 2.999L54.0359 3.001Q54.0359 3.14833 54.0215 3.29495Q54.0071 3.44157 53.9783 3.58608Q53.9496 3.73058 53.9068 3.87156Q53.864 4.01255 53.8076 4.14867Q53.7513 4.28478 53.6818 4.41472Q53.6124 4.54465 53.5305 4.66715Q53.4487 4.78966 53.3552 4.90354Q53.2617 5.01743 53.1575 5.12161Q53.0534 5.22579 52.9395 5.31926Q52.8256 5.41272 52.7031 5.49458Q52.5806 5.57643 52.4506 5.64588Q52.3207 5.71533 52.1846 5.77171Q52.0485 5.8281 51.9075 5.87086Q51.7665 5.91363 51.622 5.94237Q51.4775 5.97112 51.3309 5.98556Q51.1843 6 51.0369 6L2.999 6Q2.85167 6 2.70505 5.98556Q2.55842 5.97112 2.41392 5.94237Q2.26942 5.91363 2.12844 5.87086Q1.98745 5.8281 1.85133 5.77171Q1.71522 5.71533 1.58528 5.64588Q1.45535 5.57643 1.33284 5.49458Q1.21034 5.41272 1.09645 5.31926Q0.982566 5.22579 0.878387 5.12161Q0.774208 5.01743 0.680742 4.90355Q0.587276 4.78966 0.505423 4.66715Q0.42357 4.54465 0.354118 4.41472Q0.284667 4.28478 0.228285 4.14867Q0.171904 4.01255 0.129136 3.87156Q0.0863679 3.73058 0.0576249 3.58608Q0.028882 3.44158 0.014441 3.29495Q0 3.14833 0 3.001L0 2.999Q0 2.85167 0.014441 2.70505Q0.028882 2.55843 0.0576249 2.41392Q0.0863679 2.26942 0.129136 2.12844Q0.171904 1.98745 0.228285 1.85133Q0.284667 1.71522 0.354118 1.58528Q0.42357 1.45535 0.505423 1.33284Q0.587276 1.21034 0.680742 1.09645Q0.774208 0.982566 0.878387 0.878387Q0.982566 0.774208 1.09645 0.680742Q1.21034 0.587276 1.33284 0.505423Q1.45535 0.42357 1.58528 0.354118Q1.71522 0.284667 1.85133 0.228285Q1.98745 0.171904 2.12844 0.129136Q2.26942 0.0863679 2.41392 0.0576249Q2.55843 0.028882 2.70505 0.014441Q2.85167 0 2.999 0L2.999 0Z" transform="translate(45.68265 20)" id="Rectangle-Copy-6" fill="#242A45" fill-opacity="0.25" stroke="none" />
        </g>
      </g>
    </g>
    <path d="M7.999 0L229.001 0Q229.197 0 229.393 0.00963514Q229.59 0.0192703 229.785 0.0385174Q229.98 0.0577644 230.175 0.0865771Q230.369 0.11539 230.562 0.153699Q230.754 0.192007 230.945 0.23972Q231.135 0.287433 231.323 0.344434Q231.511 0.401436 231.696 0.467589Q231.881 0.533742 232.062 0.608888Q232.243 0.684033 232.421 0.76799Q232.598 0.851946 232.772 0.944512Q232.945 1.03708 233.113 1.13803Q233.282 1.23898 233.445 1.34807Q233.608 1.45717 233.766 1.57414Q233.924 1.69112 234.075 1.81569Q234.227 1.94026 234.373 2.07213Q234.518 2.204 234.657 2.34285Q234.796 2.4817 234.928 2.6272Q235.06 2.7727 235.184 2.92449Q235.309 3.07628 235.426 3.234Q235.543 3.39172 235.652 3.55499Q235.761 3.71826 235.862 3.88669Q235.963 4.05512 236.055 4.2283Q236.148 4.40148 236.232 4.57899Q236.316 4.7565 236.391 4.93791Q236.466 5.11933 236.532 5.30422Q236.599 5.4891 236.656 5.67701Q236.713 5.86492 236.76 6.0554Q236.808 6.24588 236.846 6.43847Q236.885 6.63106 236.913 6.8253Q236.942 7.01954 236.961 7.21496Q236.981 7.41038 236.99 7.60651Q237 7.80264 237 7.999L237 26.001Q237 26.1974 236.99 26.3935Q236.981 26.5896 236.961 26.785Q236.942 26.9805 236.913 27.1747Q236.885 27.3689 236.846 27.5615Q236.808 27.7541 236.76 27.9446Q236.713 28.1351 236.656 28.323Q236.599 28.5109 236.532 28.6958Q236.466 28.8807 236.391 29.0621Q236.316 29.2435 236.232 29.421Q236.148 29.5985 236.055 29.7717Q235.963 29.9449 235.862 30.1133Q235.761 30.2817 235.652 30.445Q235.543 30.6083 235.426 30.766Q235.309 30.9237 235.184 31.0755Q235.06 31.2273 234.928 31.3728Q234.796 31.5183 234.657 31.6571Q234.518 31.796 234.373 31.9279Q234.227 32.0597 234.075 32.1843Q233.924 32.3089 233.766 32.4259Q233.608 32.5428 233.445 32.6519Q233.282 32.761 233.113 32.862Q232.945 32.9629 232.772 33.0555Q232.599 33.148 232.421 33.232Q232.243 33.316 232.062 33.3911Q231.881 33.4663 231.696 33.5324Q231.511 33.5986 231.323 33.6556Q231.135 33.7126 230.945 33.7603Q230.754 33.808 230.562 33.8463Q230.369 33.8846 230.175 33.9134Q229.98 33.9422 229.785 33.9615Q229.59 33.9807 229.393 33.9904Q229.197 34 229.001 34L7.999 34Q7.80264 34 7.60651 33.9904Q7.41038 33.9807 7.21496 33.9615Q7.01954 33.9422 6.8253 33.9134Q6.63106 33.8846 6.43847 33.8463Q6.24588 33.808 6.0554 33.7603Q5.86492 33.7126 5.67701 33.6556Q5.4891 33.5986 5.30422 33.5324Q5.11933 33.4663 4.93791 33.3911Q4.7565 33.316 4.57899 33.232Q4.40148 33.148 4.2283 33.0555Q4.05512 32.9629 3.88669 32.862Q3.71826 32.761 3.55499 32.6519Q3.39172 32.5428 3.234 32.4259Q3.07628 32.3089 2.92449 32.1843Q2.7727 32.0597 2.6272 31.9279Q2.4817 31.796 2.34285 31.6571Q2.204 31.5183 2.07213 31.3728Q1.94026 31.2273 1.81569 31.0755Q1.69112 30.9237 1.57414 30.766Q1.45717 30.6083 1.34807 30.445Q1.23898 30.2817 1.13803 30.1133Q1.03708 29.9449 0.944512 29.7717Q0.851946 29.5985 0.76799 29.421Q0.684033 29.2435 0.608888 29.0621Q0.533742 28.8807 0.467589 28.6958Q0.401436 28.5109 0.344434 28.323Q0.287433 28.1351 0.23972 27.9446Q0.192007 27.7541 0.153699 27.5615Q0.11539 27.3689 0.0865771 27.1747Q0.0577644 26.9805 0.0385174 26.785Q0.0192703 26.5896 0.00963514 26.3935Q0 26.1974 0 26.001L0 7.999Q0 7.80264 0.00963514 7.60651Q0.0192703 7.41038 0.0385174 7.21496Q0.0577644 7.01954 0.0865771 6.8253Q0.11539 6.63106 0.153699 6.43847Q0.192007 6.24588 0.23972 6.0554Q0.287433 5.86492 0.344434 5.67701Q0.401436 5.4891 0.467589 5.30422Q0.533742 5.11933 0.608888 4.93791Q0.684033 4.7565 0.76799 4.57899Q0.851946 4.40148 0.944512 4.2283Q1.03708 4.05512 1.13803 3.88669Q1.23898 3.71826 1.34807 3.55499Q1.45717 3.39172 1.57414 3.234Q1.69112 3.07628 1.81569 2.92449Q1.94026 2.7727 2.07213 2.6272Q2.204 2.4817 2.34285 2.34285Q2.4817 2.204 2.6272 2.07213Q2.7727 1.94026 2.92449 1.81569Q3.07628 1.69112 3.234 1.57414Q3.39172 1.45717 3.55499 1.34807Q3.71826 1.23898 3.88669 1.13803Q4.05512 1.03708 4.2283 0.944512Q4.40148 0.851946 4.57899 0.76799Q4.7565 0.684033 4.93791 0.608888Q5.11933 0.533742 5.30422 0.467589Q5.4891 0.401436 5.67701 0.344434Q5.86492 0.287433 6.0554 0.23972Q6.24588 0.192007 6.43847 0.153699Q6.63106 0.11539 6.8253 0.0865771Q7.01954 0.0577644 7.21496 0.0385174Q7.41038 0.0192703 7.60651 0.00963514Q7.80264 0 7.999 0L7.999 0Z" transform="translate(27 85)" id="Rectangle-Copy" fill="#FFFFFF" stroke="none" />
    <g id="Group-3-Copy" transform="translate(305 102)">
      <path d="M67 134C104.003 134 134 104.003 134 67C134 29.9969 104.003 0 67 0C29.9969 0 0 29.9969 0 67C0 104.003 29.9969 134 67 134Z" id="Oval" fill="#495DCF" fill-opacity="0.2" stroke="#5267DF" stroke-width="20" />
      <path d="M0 0L49 49" transform="translate(114 115)" id="Path-4" fill="none" stroke="#5267DF" stroke-width="20" stroke-linecap="round" stroke-linejoin="round" />
    </g>
  </g>
</svg>