<?xml version="1.0" encoding="utf-8"?>
<svg width="441px" height="381px" viewBox="0 0 441 381" version="1.1" xmlns:xlink="http://www.w3.org/1999/xlink" xmlns="http://www.w3.org/2000/svg">
  <desc>Created with Lunacy</desc>
  <defs>
    <path d="M7.999 0L342.001 0Q342.197 0 342.393 0.00963514Q342.59 0.0192703 342.785 0.0385174Q342.98 0.0577644 343.175 0.0865771Q343.369 0.11539 343.562 0.153699Q343.754 0.192007 343.945 0.23972Q344.135 0.287433 344.323 0.344434Q344.511 0.401436 344.696 0.467589Q344.881 0.533742 345.062 0.608888Q345.243 0.684033 345.421 0.76799Q345.599 0.851946 345.772 0.944512Q345.945 1.03708 346.113 1.13803Q346.282 1.23898 346.445 1.34807Q346.608 1.45717 346.766 1.57414Q346.924 1.69112 347.076 1.81569Q347.227 1.94026 347.373 2.07213Q347.518 2.204 347.657 2.34285Q347.796 2.4817 347.928 2.6272Q348.06 2.7727 348.184 2.92449Q348.309 3.07628 348.426 3.234Q348.543 3.39172 348.652 3.55499Q348.761 3.71826 348.862 3.88669Q348.963 4.05512 349.055 4.2283Q349.148 4.40148 349.232 4.57899Q349.316 4.7565 349.391 4.93791Q349.466 5.11933 349.532 5.30422Q349.599 5.4891 349.656 5.67701Q349.712 5.86492 349.76 6.0554Q349.808 6.24588 349.846 6.43847Q349.885 6.63106 349.913 6.8253Q349.942 7.01954 349.961 7.21496Q349.981 7.41038 349.99 7.60651Q350 7.80264 350 7.999L350 338.001Q350 338.197 349.99 338.393Q349.981 338.59 349.961 338.785Q349.942 338.98 349.913 339.175Q349.885 339.369 349.846 339.561Q349.808 339.754 349.76 339.945Q349.713 340.135 349.656 340.323Q349.599 340.511 349.532 340.696Q349.466 340.881 349.391 341.062Q349.316 341.243 349.232 341.421Q349.148 341.598 349.055 341.772Q348.963 341.945 348.862 342.113Q348.761 342.282 348.652 342.445Q348.543 342.608 348.426 342.766Q348.309 342.924 348.184 343.075Q348.06 343.227 347.928 343.373Q347.796 343.518 347.657 343.657Q347.518 343.796 347.373 343.928Q347.227 344.06 347.076 344.184Q346.924 344.309 346.766 344.426Q346.608 344.543 346.445 344.652Q346.282 344.761 346.113 344.862Q345.945 344.963 345.772 345.055Q345.598 345.148 345.421 345.232Q345.243 345.316 345.062 345.391Q344.881 345.466 344.696 345.532Q344.511 345.599 344.323 345.656Q344.135 345.713 343.945 345.76Q343.754 345.808 343.562 345.846Q343.369 345.885 343.175 345.913Q342.98 345.942 342.785 345.961Q342.59 345.981 342.393 345.99Q342.197 346 342.001 346L7.999 346Q7.80264 346 7.60651 345.99Q7.41038 345.981 7.21496 345.961Q7.01954 345.942 6.8253 345.913Q6.63106 345.885 6.43847 345.846Q6.24588 345.808 6.0554 345.76Q5.86492 345.713 5.67701 345.656Q5.4891 345.599 5.30422 345.532Q5.11933 345.466 4.93791 345.391Q4.7565 345.316 4.57899 345.232Q4.40148 345.148 4.2283 345.055Q4.05512 344.963 3.88669 344.862Q3.71826 344.761 3.55499 344.652Q3.39172 344.543 3.234 344.426Q3.07628 344.309 2.92449 344.184Q2.7727 344.06 2.6272 343.928Q2.4817 343.796 2.34285 343.657Q2.204 343.518 2.07213 343.373Q1.94026 343.227 1.81569 343.075Q1.69112 342.924 1.57414 342.766Q1.45717 342.608 1.34807 342.445Q1.23898 342.282 1.13803 342.113Q1.03708 341.945 0.944512 341.772Q0.851946 341.598 0.76799 341.421Q0.684033 341.243 0.608888 341.062Q0.533742 340.881 0.467589 340.696Q0.401436 340.511 0.344434 340.323Q0.287433 340.135 0.23972 339.945Q0.192007 339.754 0.153699 339.561Q0.11539 339.369 0.0865771 339.175Q0.0577644 338.98 0.0385174 338.785Q0.0192703 338.59 0.00963514 338.393Q0 338.197 0 338.001L0 7.999Q0 7.80264 0.00963514 7.60651Q0.0192703 7.41038 0.0385174 7.21496Q0.0577644 7.01954 0.0865771 6.8253Q0.11539 6.63106 0.153699 6.43847Q0.192007 6.24588 0.23972 6.0554Q0.287433 5.86492 0.344434 5.67701Q0.401436 5.4891 0.467589 5.30422Q0.533742 5.11933 0.608888 4.93791Q0.684033 4.7565 0.76799 4.57899Q0.851946 4.40148 0.944512 4.2283Q1.03708 4.05512 1.13803 3.88669Q1.23898 3.71826 1.34807 3.55499Q1.45717 3.39172 1.57414 3.234Q1.69112 3.07628 1.81569 2.92449Q1.94026 2.7727 2.07213 2.6272Q2.204 2.4817 2.34285 2.34285Q2.4817 2.204 2.6272 2.07213Q2.7727 1.94026 2.92449 1.81569Q3.07628 1.69112 3.234 1.57414Q3.39172 1.45717 3.55499 1.34807Q3.71826 1.23898 3.88669 1.13803Q4.05512 1.03708 4.2283 0.944512Q4.40148 0.851946 4.57899 0.76799Q4.7565 0.684033 4.93791 0.608888Q5.11933 0.533742 5.30422 0.467589Q5.4891 0.401436 5.67701 0.344434Q5.86492 0.287433 6.0554 0.23972Q6.24588 0.192007 6.43847 0.153699Q6.63106 0.11539 6.8253 0.0865771Q7.01954 0.0577644 7.21496 0.0385174Q7.41038 0.0192703 7.60651 0.00963514Q7.80264 0 7.999 0L7.999 0Z" id="path_1" />
    <path d="M0 0L349.781 0L349.781 295.952L0 295.952L0 0Z" transform="translate(0 0.04804188)" id="path_2" />
    <path d="M0 0L157.825 0L157.825 219.844L0 219.844L0 0Z" transform="translate(0 0.04796997)" id="path_3" />
    <clipPath id="mask_1">
      <use xlink:href="#path_1" />
    </clipPath>
    <clipPath id="mask_2">
      <use xlink:href="#path_2" />
    </clipPath>
    <clipPath id="mask_3">
      <use xlink:href="#path_3" />
    </clipPath>
  </defs>
  <g id="Group" transform="translate(0.5 0.5)">
    <g id="Share">
      <path d="M7.999 0L342.001 0Q342.197 0 342.393 0.00963514Q342.59 0.0192703 342.785 0.0385174Q342.98 0.0577644 343.175 0.0865771Q343.369 0.11539 343.562 0.153699Q343.754 0.192007 343.945 0.23972Q344.135 0.287433 344.323 0.344434Q344.511 0.401436 344.696 0.467589Q344.881 0.533742 345.062 0.608888Q345.243 0.684033 345.421 0.76799Q345.599 0.851946 345.772 0.944512Q345.945 1.03708 346.113 1.13803Q346.282 1.23898 346.445 1.34807Q346.608 1.45717 346.766 1.57414Q346.924 1.69112 347.076 1.81569Q347.227 1.94026 347.373 2.07213Q347.518 2.204 347.657 2.34285Q347.796 2.4817 347.928 2.6272Q348.06 2.7727 348.184 2.92449Q348.309 3.07628 348.426 3.234Q348.543 3.39172 348.652 3.55499Q348.761 3.71826 348.862 3.88669Q348.963 4.05512 349.055 4.2283Q349.148 4.40148 349.232 4.57899Q349.316 4.7565 349.391 4.93791Q349.466 5.11933 349.532 5.30422Q349.599 5.4891 349.656 5.67701Q349.712 5.86492 349.76 6.0554Q349.808 6.24588 349.846 6.43847Q349.885 6.63106 349.913 6.8253Q349.942 7.01954 349.961 7.21496Q349.981 7.41038 349.99 7.60651Q350 7.80264 350 7.999L350 338.001Q350 338.197 349.99 338.393Q349.981 338.59 349.961 338.785Q349.942 338.98 349.913 339.175Q349.885 339.369 349.846 339.561Q349.808 339.754 349.76 339.945Q349.713 340.135 349.656 340.323Q349.599 340.511 349.532 340.696Q349.466 340.881 349.391 341.062Q349.316 341.243 349.232 341.421Q349.148 341.598 349.055 341.772Q348.963 341.945 348.862 342.113Q348.761 342.282 348.652 342.445Q348.543 342.608 348.426 342.766Q348.309 342.924 348.184 343.075Q348.06 343.227 347.928 343.373Q347.796 343.518 347.657 343.657Q347.518 343.796 347.373 343.928Q347.227 344.06 347.076 344.184Q346.924 344.309 346.766 344.426Q346.608 344.543 346.445 344.652Q346.282 344.761 346.113 344.862Q345.945 344.963 345.772 345.055Q345.598 345.148 345.421 345.232Q345.243 345.316 345.062 345.391Q344.881 345.466 344.696 345.532Q344.511 345.599 344.323 345.656Q344.135 345.713 343.945 345.76Q343.754 345.808 343.562 345.846Q343.369 345.885 343.175 345.913Q342.98 345.942 342.785 345.961Q342.59 345.981 342.393 345.99Q342.197 346 342.001 346L7.999 346Q7.80264 346 7.60651 345.99Q7.41038 345.981 7.21496 345.961Q7.01954 345.942 6.8253 345.913Q6.63106 345.885 6.43847 345.846Q6.24588 345.808 6.0554 345.76Q5.86492 345.713 5.67701 345.656Q5.4891 345.599 5.30422 345.532Q5.11933 345.466 4.93791 345.391Q4.7565 345.316 4.57899 345.232Q4.40148 345.148 4.2283 345.055Q4.05512 344.963 3.88669 344.862Q3.71826 344.761 3.55499 344.652Q3.39172 344.543 3.234 344.426Q3.07628 344.309 2.92449 344.184Q2.7727 344.06 2.6272 343.928Q2.4817 343.796 2.34285 343.657Q2.204 343.518 2.07213 343.373Q1.94026 343.227 1.81569 343.075Q1.69112 342.924 1.57414 342.766Q1.45717 342.608 1.34807 342.445Q1.23898 342.282 1.13803 342.113Q1.03708 341.945 0.944512 341.772Q0.851946 341.598 0.76799 341.421Q0.684033 341.243 0.608888 341.062Q0.533742 340.881 0.467589 340.696Q0.401436 340.511 0.344434 340.323Q0.287433 340.135 0.23972 339.945Q0.192007 339.754 0.153699 339.561Q0.11539 339.369 0.0865771 339.175Q0.0577644 338.98 0.0385174 338.785Q0.0192703 338.59 0.00963514 338.393Q0 338.197 0 338.001L0 7.999Q0 7.80264 0.00963514 7.60651Q0.0192703 7.41038 0.0385174 7.21496Q0.0577644 7.01954 0.0865771 6.8253Q0.11539 6.63106 0.153699 6.43847Q0.192007 6.24588 0.23972 6.0554Q0.287433 5.86492 0.344434 5.67701Q0.401436 5.4891 0.467589 5.30422Q0.533742 5.11933 0.608888 4.93791Q0.684033 4.7565 0.76799 4.57899Q0.851946 4.40148 0.944512 4.2283Q1.03708 4.05512 1.13803 3.88669Q1.23898 3.71826 1.34807 3.55499Q1.45717 3.39172 1.57414 3.234Q1.69112 3.07628 1.81569 2.92449Q1.94026 2.7727 2.07213 2.6272Q2.204 2.4817 2.34285 2.34285Q2.4817 2.204 2.6272 2.07213Q2.7727 1.94026 2.92449 1.81569Q3.07628 1.69112 3.234 1.57414Q3.39172 1.45717 3.55499 1.34807Q3.71826 1.23898 3.88669 1.13803Q4.05512 1.03708 4.2283 0.944512Q4.40148 0.851946 4.57899 0.76799Q4.7565 0.684033 4.93791 0.608888Q5.11933 0.533742 5.30422 0.467589Q5.4891 0.401436 5.67701 0.344434Q5.86492 0.287433 6.0554 0.23972Q6.24588 0.192007 6.43847 0.153699Q6.63106 0.11539 6.8253 0.0865771Q7.01954 0.0577644 7.21496 0.0385174Q7.41038 0.0192703 7.60651 0.00963514Q7.80264 0 7.999 0L7.999 0Z" id="Mask" fill="#E8EAF6" stroke="none" />
      <g clip-path="url(#mask_1)">
        <g id="Group-28" transform="translate(-3.530435 0.1970684)">
          <path d="M0 0L547 0L547 59L0 59L0 0Z" id="Rectangle" fill="#242A45" stroke="none" />
          <g id="Group-7" transform="translate(26 14)">
            <path d="M16 32C24.8366 32 32 24.8366 32 16C32 7.16344 24.8366 0 16 0C7.16344 0 0 7.16344 0 16C0 24.8366 7.16344 32 16 32Z" id="Oval" fill="#FFFFFF" fill-opacity="0.244768411" stroke="none" />
            <g id="Group-6" transform="translate(47 6)">
              <path d="M2.999 0L117.001 0Q117.148 0 117.295 0.014441Q117.442 0.028882 117.586 0.0576249Q117.731 0.0863679 117.872 0.129136Q118.013 0.171904 118.149 0.228285Q118.285 0.284667 118.415 0.354118Q118.545 0.42357 118.667 0.505423Q118.79 0.587276 118.904 0.680742Q119.017 0.774208 119.122 0.878387Q119.226 0.982566 119.319 1.09645Q119.413 1.21034 119.495 1.33284Q119.576 1.45535 119.646 1.58528Q119.715 1.71522 119.772 1.85133Q119.828 1.98745 119.871 2.12844Q119.914 2.26942 119.942 2.41392Q119.971 2.55842 119.986 2.70505Q120 2.85167 120 2.999L120 3.001Q120 3.14833 119.986 3.29495Q119.971 3.44158 119.942 3.58608Q119.914 3.73058 119.871 3.87156Q119.828 4.01255 119.772 4.14867Q119.715 4.28478 119.646 4.41472Q119.576 4.54465 119.495 4.66715Q119.413 4.78966 119.319 4.90355Q119.226 5.01743 119.122 5.12161Q119.017 5.22579 118.904 5.31926Q118.79 5.41272 118.667 5.49458Q118.545 5.57643 118.415 5.64588Q118.285 5.71533 118.149 5.77171Q118.013 5.8281 117.872 5.87086Q117.731 5.91363 117.586 5.94237Q117.442 5.97112 117.295 5.98556Q117.148 6 117.001 6L2.999 6Q2.85167 6 2.70505 5.98556Q2.55842 5.97112 2.41392 5.94237Q2.26942 5.91363 2.12844 5.87086Q1.98745 5.8281 1.85133 5.77171Q1.71522 5.71533 1.58528 5.64588Q1.45535 5.57643 1.33284 5.49458Q1.21034 5.41272 1.09645 5.31926Q0.982566 5.22579 0.878387 5.12161Q0.774208 5.01743 0.680742 4.90355Q0.587276 4.78966 0.505423 4.66715Q0.42357 4.54465 0.354118 4.41472Q0.284667 4.28478 0.228285 4.14867Q0.171904 4.01255 0.129136 3.87156Q0.0863679 3.73058 0.0576249 3.58608Q0.028882 3.44158 0.014441 3.29495Q0 3.14833 0 3.001L0 2.999Q0 2.85167 0.014441 2.70505Q0.028882 2.55842 0.0576249 2.41392Q0.0863679 2.26942 0.129136 2.12844Q0.171904 1.98745 0.228285 1.85133Q0.284667 1.71522 0.354118 1.58528Q0.42357 1.45535 0.505423 1.33284Q0.587276 1.21034 0.680742 1.09645Q0.774208 0.982566 0.878387 0.878387Q0.982566 0.774208 1.09645 0.680742Q1.21034 0.587276 1.33284 0.505423Q1.45535 0.42357 1.58528 0.354118Q1.71522 0.284667 1.85133 0.228285Q1.98745 0.171904 2.12844 0.129136Q2.26942 0.0863679 2.41392 0.0576249Q2.55842 0.028882 2.70505 0.014441Q2.85167 0 2.999 0Z" id="Rectangle" fill="#FFFFFF" fill-opacity="0.75" stroke="none" />
              <path d="M2.999 0L61.001 0Q61.1483 0 61.295 0.014441Q61.4416 0.028882 61.5861 0.0576249Q61.7306 0.0863679 61.8716 0.129136Q62.0125 0.171904 62.1487 0.228285Q62.2848 0.284667 62.4147 0.354118Q62.5446 0.42357 62.6671 0.505423Q62.7897 0.587276 62.9035 0.680742Q63.0174 0.774208 63.1216 0.878387Q63.2258 0.982566 63.3193 1.09645Q63.4127 1.21034 63.4946 1.33284Q63.5764 1.45535 63.6459 1.58528Q63.7153 1.71522 63.7717 1.85133Q63.8281 1.98745 63.8709 2.12844Q63.9136 2.26942 63.9424 2.41392Q63.9711 2.55843 63.9856 2.70505Q64 2.85167 64 2.999L64 3.001Q64 3.14833 63.9856 3.29495Q63.9711 3.44158 63.9424 3.58608Q63.9136 3.73058 63.8709 3.87156Q63.8281 4.01255 63.7717 4.14867Q63.7153 4.28478 63.6459 4.41472Q63.5764 4.54465 63.4946 4.66715Q63.4127 4.78966 63.3193 4.90355Q63.2258 5.01743 63.1216 5.12161Q63.0174 5.22579 62.9035 5.31926Q62.7897 5.41272 62.6672 5.49458Q62.5447 5.57643 62.4147 5.64588Q62.2848 5.71533 62.1487 5.77171Q62.0125 5.8281 61.8716 5.87086Q61.7306 5.91363 61.5861 5.94237Q61.4416 5.97112 61.2949 5.98556Q61.1483 6 61.001 6L2.999 6Q2.85167 6 2.70505 5.98556Q2.55842 5.97112 2.41392 5.94237Q2.26942 5.91363 2.12844 5.87086Q1.98745 5.8281 1.85133 5.77171Q1.71522 5.71533 1.58528 5.64588Q1.45535 5.57643 1.33284 5.49458Q1.21034 5.41272 1.09645 5.31926Q0.982566 5.22579 0.878387 5.12161Q0.774208 5.01743 0.680742 4.90354Q0.587276 4.78966 0.505423 4.66715Q0.42357 4.54465 0.354118 4.41472Q0.284667 4.28478 0.228285 4.14867Q0.171904 4.01255 0.129136 3.87156Q0.0863679 3.73058 0.0576249 3.58608Q0.028882 3.44157 0.014441 3.29495Q0 3.14833 0 3.001L0 2.999Q0 2.85167 0.014441 2.70505Q0.028882 2.55842 0.0576249 2.41392Q0.0863679 2.26942 0.129136 2.12844Q0.171904 1.98745 0.228285 1.85133Q0.284667 1.71522 0.354118 1.58528Q0.42357 1.45535 0.505423 1.33284Q0.587276 1.21034 0.680742 1.09645Q0.774208 0.982566 0.878387 0.878387Q0.982566 0.774208 1.09645 0.680742Q1.21034 0.587276 1.33284 0.505423Q1.45535 0.42357 1.58528 0.354118Q1.71522 0.284667 1.85133 0.228285Q1.98745 0.171904 2.12844 0.129136Q2.26942 0.0863679 2.41392 0.0576249Q2.55842 0.028882 2.70505 0.014441Q2.85167 0 2.999 0Z" transform="translate(0 14)" id="Rectangle-Copy-6" fill="#FFFFFF" fill-opacity="0.25" stroke="none" />
            </g>
          </g>
        </g>
      </g>
    </g>
    <path d="M7.999 0L229.001 0Q229.197 0 229.393 0.00963514Q229.59 0.0192703 229.785 0.0385174Q229.98 0.0577644 230.175 0.0865771Q230.369 0.11539 230.562 0.153699Q230.754 0.192007 230.945 0.23972Q231.135 0.287433 231.323 0.344434Q231.511 0.401436 231.696 0.467589Q231.881 0.533742 232.062 0.608888Q232.243 0.684033 232.421 0.76799Q232.598 0.851946 232.772 0.944512Q232.945 1.03708 233.113 1.13803Q233.282 1.23898 233.445 1.34807Q233.608 1.45717 233.766 1.57414Q233.924 1.69112 234.075 1.81569Q234.227 1.94026 234.373 2.07213Q234.518 2.204 234.657 2.34285Q234.796 2.4817 234.928 2.6272Q235.06 2.7727 235.184 2.92449Q235.309 3.07628 235.426 3.234Q235.543 3.39172 235.652 3.55499Q235.761 3.71826 235.862 3.88669Q235.963 4.05512 236.055 4.2283Q236.148 4.40148 236.232 4.57899Q236.316 4.7565 236.391 4.93791Q236.466 5.11933 236.532 5.30422Q236.599 5.4891 236.656 5.67701Q236.713 5.86492 236.76 6.0554Q236.808 6.24588 236.846 6.43847Q236.885 6.63106 236.913 6.8253Q236.942 7.01954 236.961 7.21496Q236.981 7.41038 236.99 7.60651Q237 7.80264 237 7.999L237 26.001Q237 26.1974 236.99 26.3935Q236.981 26.5896 236.961 26.785Q236.942 26.9805 236.913 27.1747Q236.885 27.3689 236.846 27.5615Q236.808 27.7541 236.76 27.9446Q236.713 28.1351 236.656 28.323Q236.599 28.5109 236.532 28.6958Q236.466 28.8807 236.391 29.0621Q236.316 29.2435 236.232 29.421Q236.148 29.5985 236.055 29.7717Q235.963 29.9449 235.862 30.1133Q235.761 30.2817 235.652 30.445Q235.543 30.6083 235.426 30.766Q235.309 30.9237 235.184 31.0755Q235.06 31.2273 234.928 31.3728Q234.796 31.5183 234.657 31.6571Q234.518 31.796 234.373 31.9279Q234.227 32.0597 234.075 32.1843Q233.924 32.3089 233.766 32.4259Q233.608 32.5428 233.445 32.6519Q233.282 32.761 233.113 32.862Q232.945 32.9629 232.772 33.0555Q232.599 33.148 232.421 33.232Q232.243 33.316 232.062 33.3911Q231.881 33.4663 231.696 33.5324Q231.511 33.5986 231.323 33.6556Q231.135 33.7126 230.945 33.7603Q230.754 33.808 230.562 33.8463Q230.369 33.8846 230.175 33.9134Q229.98 33.9422 229.785 33.9615Q229.59 33.9807 229.393 33.9904Q229.197 34 229.001 34L7.999 34Q7.80264 34 7.60651 33.9904Q7.41038 33.9807 7.21496 33.9615Q7.01954 33.9422 6.8253 33.9134Q6.63106 33.8846 6.43847 33.8463Q6.24588 33.808 6.0554 33.7603Q5.86492 33.7126 5.67701 33.6556Q5.4891 33.5986 5.30422 33.5324Q5.11933 33.4663 4.93791 33.3911Q4.7565 33.316 4.57899 33.232Q4.40148 33.148 4.2283 33.0555Q4.05512 32.9629 3.88669 32.862Q3.71826 32.761 3.55499 32.6519Q3.39172 32.5428 3.234 32.4259Q3.07628 32.3089 2.92449 32.1843Q2.7727 32.0597 2.6272 31.9279Q2.4817 31.796 2.34285 31.6571Q2.204 31.5183 2.07213 31.3728Q1.94026 31.2273 1.81569 31.0755Q1.69112 30.9237 1.57414 30.766Q1.45717 30.6083 1.34807 30.445Q1.23898 30.2817 1.13803 30.1133Q1.03708 29.9449 0.944512 29.7717Q0.851946 29.5985 0.76799 29.421Q0.684033 29.2435 0.608888 29.0621Q0.533742 28.8807 0.467589 28.6958Q0.401436 28.5109 0.344434 28.323Q0.287433 28.1351 0.23972 27.9446Q0.192007 27.7541 0.153699 27.5615Q0.11539 27.3689 0.0865771 27.1747Q0.0577644 26.9805 0.0385174 26.785Q0.0192703 26.5896 0.00963514 26.3935Q0 26.1974 0 26.001L0 7.999Q0 7.80264 0.00963514 7.60651Q0.0192703 7.41038 0.0385174 7.21496Q0.0577644 7.01954 0.0865771 6.8253Q0.11539 6.63106 0.153699 6.43847Q0.192007 6.24588 0.23972 6.0554Q0.287433 5.86492 0.344434 5.67701Q0.401436 5.4891 0.467589 5.30422Q0.533742 5.11933 0.608888 4.93791Q0.684033 4.7565 0.76799 4.57899Q0.851946 4.40148 0.944512 4.2283Q1.03708 4.05512 1.13803 3.88669Q1.23898 3.71826 1.34807 3.55499Q1.45717 3.39172 1.57414 3.234Q1.69112 3.07628 1.81569 2.92449Q1.94026 2.7727 2.07213 2.6272Q2.204 2.4817 2.34285 2.34285Q2.4817 2.204 2.6272 2.07213Q2.7727 1.94026 2.92449 1.81569Q3.07628 1.69112 3.234 1.57414Q3.39172 1.45717 3.55499 1.34807Q3.71826 1.23898 3.88669 1.13803Q4.05512 1.03708 4.2283 0.944512Q4.40148 0.851946 4.57899 0.76799Q4.7565 0.684033 4.93791 0.608888Q5.11933 0.533742 5.30422 0.467589Q5.4891 0.401436 5.67701 0.344434Q5.86492 0.287433 6.0554 0.23972Q6.24588 0.192007 6.43847 0.153699Q6.63106 0.11539 6.8253 0.0865771Q7.01954 0.0577644 7.21496 0.0385174Q7.41038 0.0192703 7.60651 0.00963514Q7.80264 0 7.999 0L7.999 0Z" transform="translate(27 85)" id="Rectangle-Copy" fill="#FFFFFF" stroke="none" />
    <path d="M7.999 0L229.001 0Q229.197 0 229.393 0.00963514Q229.59 0.0192703 229.785 0.0385174Q229.98 0.0577644 230.175 0.0865771Q230.369 0.11539 230.562 0.153699Q230.754 0.192007 230.945 0.23972Q231.135 0.287433 231.323 0.344434Q231.511 0.401436 231.696 0.467589Q231.881 0.533742 232.062 0.608888Q232.243 0.684033 232.421 0.76799Q232.598 0.851946 232.772 0.944512Q232.945 1.03708 233.113 1.13803Q233.282 1.23898 233.445 1.34807Q233.608 1.45717 233.766 1.57414Q233.924 1.69112 234.075 1.81569Q234.227 1.94026 234.373 2.07213Q234.518 2.204 234.657 2.34285Q234.796 2.4817 234.928 2.6272Q235.06 2.7727 235.184 2.92449Q235.309 3.07628 235.426 3.234Q235.543 3.39172 235.652 3.55499Q235.761 3.71826 235.862 3.88669Q235.963 4.05512 236.055 4.2283Q236.148 4.40148 236.232 4.57899Q236.316 4.7565 236.391 4.93791Q236.466 5.11933 236.532 5.30422Q236.599 5.4891 236.656 5.67701Q236.713 5.86492 236.76 6.0554Q236.808 6.24588 236.846 6.43847Q236.885 6.63106 236.913 6.8253Q236.942 7.01954 236.961 7.21496Q236.981 7.41038 236.99 7.60651Q237 7.80264 237 7.999L237 26.001Q237 26.1974 236.99 26.3935Q236.981 26.5896 236.961 26.785Q236.942 26.9805 236.913 27.1747Q236.885 27.3689 236.846 27.5615Q236.808 27.7541 236.76 27.9446Q236.713 28.1351 236.656 28.323Q236.599 28.5109 236.532 28.6958Q236.466 28.8807 236.391 29.0621Q236.316 29.2435 236.232 29.421Q236.148 29.5985 236.055 29.7717Q235.963 29.9449 235.862 30.1133Q235.761 30.2817 235.652 30.445Q235.543 30.6083 235.426 30.766Q235.309 30.9237 235.184 31.0755Q235.06 31.2273 234.928 31.3728Q234.796 31.5183 234.657 31.6571Q234.518 31.796 234.373 31.9279Q234.227 32.0597 234.075 32.1843Q233.924 32.3089 233.766 32.4259Q233.608 32.5428 233.445 32.6519Q233.282 32.761 233.113 32.862Q232.945 32.9629 232.772 33.0555Q232.599 33.148 232.421 33.232Q232.243 33.316 232.062 33.3911Q231.881 33.4663 231.696 33.5324Q231.511 33.5986 231.323 33.6556Q231.135 33.7126 230.945 33.7603Q230.754 33.808 230.562 33.8463Q230.369 33.8846 230.175 33.9134Q229.98 33.9422 229.785 33.9615Q229.59 33.9807 229.393 33.9904Q229.197 34 229.001 34L7.999 34Q7.80264 34 7.60651 33.9904Q7.41038 33.9807 7.21496 33.9615Q7.01954 33.9422 6.8253 33.9134Q6.63106 33.8846 6.43847 33.8463Q6.24588 33.808 6.0554 33.7603Q5.86492 33.7126 5.67701 33.6556Q5.4891 33.5986 5.30422 33.5324Q5.11933 33.4663 4.93791 33.3911Q4.7565 33.316 4.57899 33.232Q4.40148 33.148 4.2283 33.0555Q4.05512 32.9629 3.88669 32.862Q3.71826 32.761 3.55499 32.6519Q3.39172 32.5428 3.234 32.4259Q3.07628 32.3089 2.92449 32.1843Q2.7727 32.0597 2.6272 31.9279Q2.4817 31.796 2.34285 31.6571Q2.204 31.5183 2.07213 31.3728Q1.94026 31.2273 1.81569 31.0755Q1.69112 30.9237 1.57414 30.766Q1.45717 30.6083 1.34807 30.445Q1.23898 30.2817 1.13803 30.1133Q1.03708 29.9449 0.944512 29.7717Q0.851946 29.5985 0.76799 29.421Q0.684033 29.2435 0.608888 29.0621Q0.533742 28.8807 0.467589 28.6958Q0.401436 28.5109 0.344434 28.323Q0.287433 28.1351 0.23972 27.9446Q0.192007 27.7541 0.153699 27.5615Q0.11539 27.3689 0.0865771 27.1747Q0.0577644 26.9805 0.0385174 26.785Q0.0192703 26.5896 0.00963514 26.3935Q0 26.1974 0 26.001L0 7.999Q0 7.80264 0.00963514 7.60651Q0.0192703 7.41038 0.0385174 7.21496Q0.0577644 7.01954 0.0865771 6.8253Q0.11539 6.63106 0.153699 6.43847Q0.192007 6.24588 0.23972 6.0554Q0.287433 5.86492 0.344434 5.67701Q0.401436 5.4891 0.467589 5.30422Q0.533742 5.11933 0.608888 4.93791Q0.684033 4.7565 0.76799 4.57899Q0.851946 4.40148 0.944512 4.2283Q1.03708 4.05512 1.13803 3.88669Q1.23898 3.71826 1.34807 3.55499Q1.45717 3.39172 1.57414 3.234Q1.69112 3.07628 1.81569 2.92449Q1.94026 2.7727 2.07213 2.6272Q2.204 2.4817 2.34285 2.34285Q2.4817 2.204 2.6272 2.07213Q2.7727 1.94026 2.92449 1.81569Q3.07628 1.69112 3.234 1.57414Q3.39172 1.45717 3.55499 1.34807Q3.71826 1.23898 3.88669 1.13803Q4.05512 1.03708 4.2283 0.944512Q4.40148 0.851946 4.57899 0.76799Q4.7565 0.684033 4.93791 0.608888Q5.11933 0.533742 5.30422 0.467589Q5.4891 0.401436 5.67701 0.344434Q5.86492 0.287433 6.0554 0.23972Q6.24588 0.192007 6.43847 0.153699Q6.63106 0.11539 6.8253 0.0865771Q7.01954 0.0577644 7.21496 0.0385174Q7.41038 0.0192703 7.60651 0.00963514Q7.80264 0 7.999 0L7.999 0Z" transform="translate(27 133)" id="Rectangle-Copy-2" fill="#FFFFFF" stroke="none" />
    <path d="M7.999 0L229.001 0Q229.197 0 229.393 0.00963514Q229.59 0.0192703 229.785 0.0385174Q229.98 0.0577644 230.175 0.0865771Q230.369 0.11539 230.562 0.153699Q230.754 0.192007 230.945 0.23972Q231.135 0.287433 231.323 0.344434Q231.511 0.401436 231.696 0.467589Q231.881 0.533742 232.062 0.608888Q232.243 0.684033 232.421 0.76799Q232.598 0.851946 232.772 0.944512Q232.945 1.03708 233.113 1.13803Q233.282 1.23898 233.445 1.34807Q233.608 1.45717 233.766 1.57414Q233.924 1.69112 234.075 1.81569Q234.227 1.94026 234.373 2.07213Q234.518 2.204 234.657 2.34285Q234.796 2.4817 234.928 2.6272Q235.06 2.7727 235.184 2.92449Q235.309 3.07628 235.426 3.234Q235.543 3.39172 235.652 3.55499Q235.761 3.71826 235.862 3.88669Q235.963 4.05512 236.055 4.2283Q236.148 4.40148 236.232 4.57899Q236.316 4.7565 236.391 4.93791Q236.466 5.11933 236.532 5.30422Q236.599 5.4891 236.656 5.67701Q236.713 5.86492 236.76 6.0554Q236.808 6.24588 236.846 6.43847Q236.885 6.63106 236.913 6.8253Q236.942 7.01954 236.961 7.21496Q236.981 7.41038 236.99 7.60651Q237 7.80264 237 7.999L237 26.001Q237 26.1974 236.99 26.3935Q236.981 26.5896 236.961 26.785Q236.942 26.9805 236.913 27.1747Q236.885 27.3689 236.846 27.5615Q236.808 27.7541 236.76 27.9446Q236.713 28.1351 236.656 28.323Q236.599 28.5109 236.532 28.6958Q236.466 28.8807 236.391 29.0621Q236.316 29.2435 236.232 29.421Q236.148 29.5985 236.055 29.7717Q235.963 29.9449 235.862 30.1133Q235.761 30.2817 235.652 30.445Q235.543 30.6083 235.426 30.766Q235.309 30.9237 235.184 31.0755Q235.06 31.2273 234.928 31.3728Q234.796 31.5183 234.657 31.6571Q234.518 31.796 234.373 31.9279Q234.227 32.0597 234.075 32.1843Q233.924 32.3089 233.766 32.4259Q233.608 32.5428 233.445 32.6519Q233.282 32.761 233.113 32.862Q232.945 32.9629 232.772 33.0555Q232.599 33.148 232.421 33.232Q232.243 33.316 232.062 33.3911Q231.881 33.4663 231.696 33.5324Q231.511 33.5986 231.323 33.6556Q231.135 33.7126 230.945 33.7603Q230.754 33.808 230.562 33.8463Q230.369 33.8846 230.175 33.9134Q229.98 33.9422 229.785 33.9615Q229.59 33.9807 229.393 33.9904Q229.197 34 229.001 34L7.999 34Q7.80264 34 7.60651 33.9904Q7.41038 33.9807 7.21496 33.9615Q7.01954 33.9422 6.8253 33.9134Q6.63106 33.8846 6.43847 33.8463Q6.24588 33.808 6.0554 33.7603Q5.86492 33.7126 5.67701 33.6556Q5.4891 33.5986 5.30422 33.5324Q5.11933 33.4663 4.93791 33.3911Q4.7565 33.316 4.57899 33.232Q4.40148 33.148 4.2283 33.0555Q4.05512 32.9629 3.88669 32.862Q3.71826 32.761 3.55499 32.6519Q3.39172 32.5428 3.234 32.4259Q3.07628 32.3089 2.92449 32.1843Q2.7727 32.0597 2.6272 31.9279Q2.4817 31.796 2.34285 31.6571Q2.204 31.5183 2.07213 31.3728Q1.94026 31.2273 1.81569 31.0755Q1.69112 30.9237 1.57414 30.766Q1.45717 30.6083 1.34807 30.445Q1.23898 30.2817 1.13803 30.1133Q1.03708 29.9449 0.944512 29.7717Q0.851946 29.5985 0.76799 29.421Q0.684033 29.2435 0.608888 29.0621Q0.533742 28.8807 0.467589 28.6958Q0.401436 28.5109 0.344434 28.323Q0.287433 28.1351 0.23972 27.9446Q0.192007 27.7541 0.153699 27.5615Q0.11539 27.3689 0.0865771 27.1747Q0.0577644 26.9805 0.0385174 26.785Q0.0192703 26.5896 0.00963514 26.3935Q0 26.1974 0 26.001L0 7.999Q0 7.80264 0.00963514 7.60651Q0.0192703 7.41038 0.0385174 7.21496Q0.0577644 7.01954 0.0865771 6.8253Q0.11539 6.63106 0.153699 6.43847Q0.192007 6.24588 0.23972 6.0554Q0.287433 5.86492 0.344434 5.67701Q0.401436 5.4891 0.467589 5.30422Q0.533742 5.11933 0.608888 4.93791Q0.684033 4.7565 0.76799 4.57899Q0.851946 4.40148 0.944512 4.2283Q1.03708 4.05512 1.13803 3.88669Q1.23898 3.71826 1.34807 3.55499Q1.45717 3.39172 1.57414 3.234Q1.69112 3.07628 1.81569 2.92449Q1.94026 2.7727 2.07213 2.6272Q2.204 2.4817 2.34285 2.34285Q2.4817 2.204 2.6272 2.07213Q2.7727 1.94026 2.92449 1.81569Q3.07628 1.69112 3.234 1.57414Q3.39172 1.45717 3.55499 1.34807Q3.71826 1.23898 3.88669 1.13803Q4.05512 1.03708 4.2283 0.944512Q4.40148 0.851946 4.57899 0.76799Q4.7565 0.684033 4.93791 0.608888Q5.11933 0.533742 5.30422 0.467589Q5.4891 0.401436 5.67701 0.344434Q5.86492 0.287433 6.0554 0.23972Q6.24588 0.192007 6.43847 0.153699Q6.63106 0.11539 6.8253 0.0865771Q7.01954 0.0577644 7.21496 0.0385174Q7.41038 0.0192703 7.60651 0.00963514Q7.80264 0 7.999 0L7.999 0Z" transform="translate(27 181)" id="Rectangle-Copy-3" fill="#FFFFFF" stroke="none" />
    <path d="M7.999 0L229.001 0Q229.197 0 229.393 0.00963514Q229.59 0.0192703 229.785 0.0385174Q229.98 0.0577644 230.175 0.0865771Q230.369 0.11539 230.562 0.153699Q230.754 0.192007 230.945 0.23972Q231.135 0.287433 231.323 0.344434Q231.511 0.401436 231.696 0.467589Q231.881 0.533742 232.062 0.608888Q232.243 0.684033 232.421 0.76799Q232.598 0.851946 232.772 0.944512Q232.945 1.03708 233.113 1.13803Q233.282 1.23898 233.445 1.34807Q233.608 1.45717 233.766 1.57414Q233.924 1.69112 234.075 1.81569Q234.227 1.94026 234.373 2.07213Q234.518 2.204 234.657 2.34285Q234.796 2.4817 234.928 2.6272Q235.06 2.7727 235.184 2.92449Q235.309 3.07628 235.426 3.234Q235.543 3.39172 235.652 3.55499Q235.761 3.71826 235.862 3.88669Q235.963 4.05512 236.055 4.2283Q236.148 4.40148 236.232 4.57899Q236.316 4.7565 236.391 4.93791Q236.466 5.11933 236.532 5.30422Q236.599 5.4891 236.656 5.67701Q236.713 5.86492 236.76 6.0554Q236.808 6.24588 236.846 6.43847Q236.885 6.63106 236.913 6.8253Q236.942 7.01954 236.961 7.21496Q236.981 7.41038 236.99 7.60651Q237 7.80264 237 7.999L237 26.001Q237 26.1974 236.99 26.3935Q236.981 26.5896 236.961 26.785Q236.942 26.9805 236.913 27.1747Q236.885 27.3689 236.846 27.5615Q236.808 27.7541 236.76 27.9446Q236.713 28.1351 236.656 28.323Q236.599 28.5109 236.532 28.6958Q236.466 28.8807 236.391 29.0621Q236.316 29.2435 236.232 29.421Q236.148 29.5985 236.055 29.7717Q235.963 29.9449 235.862 30.1133Q235.761 30.2817 235.652 30.445Q235.543 30.6083 235.426 30.766Q235.309 30.9237 235.184 31.0755Q235.06 31.2273 234.928 31.3728Q234.796 31.5183 234.657 31.6571Q234.518 31.796 234.373 31.9279Q234.227 32.0597 234.075 32.1843Q233.924 32.3089 233.766 32.4259Q233.608 32.5428 233.445 32.6519Q233.282 32.761 233.113 32.862Q232.945 32.9629 232.772 33.0555Q232.599 33.148 232.421 33.232Q232.243 33.316 232.062 33.3911Q231.881 33.4663 231.696 33.5324Q231.511 33.5986 231.323 33.6556Q231.135 33.7126 230.945 33.7603Q230.754 33.808 230.562 33.8463Q230.369 33.8846 230.175 33.9134Q229.98 33.9422 229.785 33.9615Q229.59 33.9807 229.393 33.9904Q229.197 34 229.001 34L7.999 34Q7.80264 34 7.60651 33.9904Q7.41038 33.9807 7.21496 33.9615Q7.01954 33.9422 6.8253 33.9134Q6.63106 33.8846 6.43847 33.8463Q6.24588 33.808 6.0554 33.7603Q5.86492 33.7126 5.67701 33.6556Q5.4891 33.5986 5.30422 33.5324Q5.11933 33.4663 4.93791 33.3911Q4.7565 33.316 4.57899 33.232Q4.40148 33.148 4.2283 33.0555Q4.05512 32.9629 3.88669 32.862Q3.71826 32.761 3.55499 32.6519Q3.39172 32.5428 3.234 32.4259Q3.07628 32.3089 2.92449 32.1843Q2.7727 32.0597 2.6272 31.9279Q2.4817 31.796 2.34285 31.6571Q2.204 31.5183 2.07213 31.3728Q1.94026 31.2273 1.81569 31.0755Q1.69112 30.9237 1.57414 30.766Q1.45717 30.6083 1.34807 30.445Q1.23898 30.2817 1.13803 30.1133Q1.03708 29.9449 0.944512 29.7717Q0.851946 29.5985 0.76799 29.421Q0.684033 29.2435 0.608888 29.0621Q0.533742 28.8807 0.467589 28.6958Q0.401436 28.5109 0.344434 28.323Q0.287433 28.1351 0.23972 27.9446Q0.192007 27.7541 0.153699 27.5615Q0.11539 27.3689 0.0865771 27.1747Q0.0577644 26.9805 0.0385174 26.785Q0.0192703 26.5896 0.00963514 26.3935Q0 26.1974 0 26.001L0 7.999Q0 7.80264 0.00963514 7.60651Q0.0192703 7.41038 0.0385174 7.21496Q0.0577644 7.01954 0.0865771 6.8253Q0.11539 6.63106 0.153699 6.43847Q0.192007 6.24588 0.23972 6.0554Q0.287433 5.86492 0.344434 5.67701Q0.401436 5.4891 0.467589 5.30422Q0.533742 5.11933 0.608888 4.93791Q0.684033 4.7565 0.76799 4.57899Q0.851946 4.40148 0.944512 4.2283Q1.03708 4.05512 1.13803 3.88669Q1.23898 3.71826 1.34807 3.55499Q1.45717 3.39172 1.57414 3.234Q1.69112 3.07628 1.81569 2.92449Q1.94026 2.7727 2.07213 2.6272Q2.204 2.4817 2.34285 2.34285Q2.4817 2.204 2.6272 2.07213Q2.7727 1.94026 2.92449 1.81569Q3.07628 1.69112 3.234 1.57414Q3.39172 1.45717 3.55499 1.34807Q3.71826 1.23898 3.88669 1.13803Q4.05512 1.03708 4.2283 0.944512Q4.40148 0.851946 4.57899 0.76799Q4.7565 0.684033 4.93791 0.608888Q5.11933 0.533742 5.30422 0.467589Q5.4891 0.401436 5.67701 0.344434Q5.86492 0.287433 6.0554 0.23972Q6.24588 0.192007 6.43847 0.153699Q6.63106 0.11539 6.8253 0.0865771Q7.01954 0.0577644 7.21496 0.0385174Q7.41038 0.0192703 7.60651 0.00963514Q7.80264 0 7.999 0L7.999 0Z" transform="translate(27 229)" id="Rectangle-Copy-4" fill="#FFFFFF" stroke="none" />
    <path d="M7.999 0L229.001 0Q229.197 0 229.393 0.00963514Q229.59 0.0192703 229.785 0.0385174Q229.98 0.0577644 230.175 0.0865771Q230.369 0.11539 230.562 0.153699Q230.754 0.192007 230.945 0.23972Q231.135 0.287433 231.323 0.344434Q231.511 0.401436 231.696 0.467589Q231.881 0.533742 232.062 0.608888Q232.243 0.684033 232.421 0.76799Q232.598 0.851946 232.772 0.944512Q232.945 1.03708 233.113 1.13803Q233.282 1.23898 233.445 1.34807Q233.608 1.45717 233.766 1.57414Q233.924 1.69112 234.075 1.81569Q234.227 1.94026 234.373 2.07213Q234.518 2.204 234.657 2.34285Q234.796 2.4817 234.928 2.6272Q235.06 2.7727 235.184 2.92449Q235.309 3.07628 235.426 3.234Q235.543 3.39172 235.652 3.55499Q235.761 3.71826 235.862 3.88669Q235.963 4.05512 236.055 4.2283Q236.148 4.40148 236.232 4.57899Q236.316 4.7565 236.391 4.93791Q236.466 5.11933 236.532 5.30422Q236.599 5.4891 236.656 5.67701Q236.713 5.86492 236.76 6.0554Q236.808 6.24588 236.846 6.43847Q236.885 6.63106 236.913 6.8253Q236.942 7.01954 236.961 7.21496Q236.981 7.41038 236.99 7.60651Q237 7.80264 237 7.999L237 26.001Q237 26.1974 236.99 26.3935Q236.981 26.5896 236.961 26.785Q236.942 26.9805 236.913 27.1747Q236.885 27.3689 236.846 27.5615Q236.808 27.7541 236.76 27.9446Q236.713 28.1351 236.656 28.323Q236.599 28.5109 236.532 28.6958Q236.466 28.8807 236.391 29.0621Q236.316 29.2435 236.232 29.421Q236.148 29.5985 236.055 29.7717Q235.963 29.9449 235.862 30.1133Q235.761 30.2817 235.652 30.445Q235.543 30.6083 235.426 30.766Q235.309 30.9237 235.184 31.0755Q235.06 31.2273 234.928 31.3728Q234.796 31.5183 234.657 31.6571Q234.518 31.796 234.373 31.9279Q234.227 32.0597 234.075 32.1843Q233.924 32.3089 233.766 32.4259Q233.608 32.5428 233.445 32.6519Q233.282 32.761 233.113 32.862Q232.945 32.9629 232.772 33.0555Q232.599 33.148 232.421 33.232Q232.243 33.316 232.062 33.3911Q231.881 33.4663 231.696 33.5324Q231.511 33.5986 231.323 33.6556Q231.135 33.7126 230.945 33.7603Q230.754 33.808 230.562 33.8463Q230.369 33.8846 230.175 33.9134Q229.98 33.9422 229.785 33.9615Q229.59 33.9807 229.393 33.9904Q229.197 34 229.001 34L7.999 34Q7.80264 34 7.60651 33.9904Q7.41038 33.9807 7.21496 33.9615Q7.01954 33.9422 6.8253 33.9134Q6.63106 33.8846 6.43847 33.8463Q6.24588 33.808 6.0554 33.7603Q5.86492 33.7126 5.67701 33.6556Q5.4891 33.5986 5.30422 33.5324Q5.11933 33.4663 4.93791 33.3911Q4.7565 33.316 4.57899 33.232Q4.40148 33.148 4.2283 33.0555Q4.05512 32.9629 3.88669 32.862Q3.71826 32.761 3.55499 32.6519Q3.39172 32.5428 3.234 32.4259Q3.07628 32.3089 2.92449 32.1843Q2.7727 32.0597 2.6272 31.9279Q2.4817 31.796 2.34285 31.6571Q2.204 31.5183 2.07213 31.3728Q1.94026 31.2273 1.81569 31.0755Q1.69112 30.9237 1.57414 30.766Q1.45717 30.6083 1.34807 30.445Q1.23898 30.2817 1.13803 30.1133Q1.03708 29.9449 0.944512 29.7717Q0.851946 29.5985 0.76799 29.421Q0.684033 29.2435 0.608888 29.0621Q0.533742 28.8807 0.467589 28.6958Q0.401436 28.5109 0.344434 28.323Q0.287433 28.1351 0.23972 27.9446Q0.192007 27.7541 0.153699 27.5615Q0.11539 27.3689 0.0865771 27.1747Q0.0577644 26.9805 0.0385174 26.785Q0.0192703 26.5896 0.00963514 26.3935Q0 26.1974 0 26.001L0 7.999Q0 7.80264 0.00963514 7.60651Q0.0192703 7.41038 0.0385174 7.21496Q0.0577644 7.01954 0.0865771 6.8253Q0.11539 6.63106 0.153699 6.43847Q0.192007 6.24588 0.23972 6.0554Q0.287433 5.86492 0.344434 5.67701Q0.401436 5.4891 0.467589 5.30422Q0.533742 5.11933 0.608888 4.93791Q0.684033 4.7565 0.76799 4.57899Q0.851946 4.40148 0.944512 4.2283Q1.03708 4.05512 1.13803 3.88669Q1.23898 3.71826 1.34807 3.55499Q1.45717 3.39172 1.57414 3.234Q1.69112 3.07628 1.81569 2.92449Q1.94026 2.7727 2.07213 2.6272Q2.204 2.4817 2.34285 2.34285Q2.4817 2.204 2.6272 2.07213Q2.7727 1.94026 2.92449 1.81569Q3.07628 1.69112 3.234 1.57414Q3.39172 1.45717 3.55499 1.34807Q3.71826 1.23898 3.88669 1.13803Q4.05512 1.03708 4.2283 0.944512Q4.40148 0.851946 4.57899 0.76799Q4.7565 0.684033 4.93791 0.608888Q5.11933 0.533742 5.30422 0.467589Q5.4891 0.401436 5.67701 0.344434Q5.86492 0.287433 6.0554 0.23972Q6.24588 0.192007 6.43847 0.153699Q6.63106 0.11539 6.8253 0.0865771Q7.01954 0.0577644 7.21496 0.0385174Q7.41038 0.0192703 7.60651 0.00963514Q7.80264 0 7.999 0L7.999 0Z" transform="translate(27 277)" id="Rectangle-Copy-5" fill="#FFFFFF" stroke="none" />
    <g id="Group-119" transform="matrix(-1 0 0 1 440 83)">
      <g id="Group-3">
        <path d="M0 0L349.781 0L349.781 295.952L0 295.952L0 0Z" transform="translate(0 0.04804188)" id="Clip-2" fill="none" stroke="none" />
        <g clip-path="url(#mask_2)">
          <path d="M348.707 250.292C348.037 252.31 346.992 254.29 345.533 256.227C320.331 289.702 226.157 300.86 133.309 294.041C84.833 290.48 50.6386 269.515 29.028 250.292C23.865 245.699 19.4182 241.204 15.6679 237.07C10.9991 231.924 7.35473 226.209 4.75813 220.174C-2.88846 202.396 -1.41605 181.858 9.88143 165.013C19.458 150.737 32.6028 140.189 39.3939 128.47C52.3263 106.154 -16.0429 49.7339 28.4478 14.0899C44.1522 1.50635 77.6073 -1.39817 114.11 0.554502C158.538 2.9318 207.475 12.5095 234.394 20.5988C290.106 37.336 324.974 61.5801 332.933 88.8555C340.891 116.131 319.622 128.473 301.053 154.509C283.558 179.035 359.606 217.506 348.707 250.292" transform="translate(-4.39535E-05 0.04781961)" id="Fill-1" fill="#3A499E" stroke="none" />
        </g>
      </g>
      <path d="M19.5491 2.87174L2.56361 0L0 15.7994L21 22L19.5491 2.87174Z" transform="translate(235 88)" id="Fill-4" fill="#306299" stroke="none" />
      <path d="M27 6.11775C27 6.11775 13.8239 5.77129 0 0L6.49557 12.2538L25.2493 18L27 6.11775Z" transform="translate(210 83)" id="Fill-6" fill="#FA9E89" stroke="none" />
      <g id="Group-10" transform="translate(2 2)">
        <path d="M0 0L157.825 0L157.825 219.844L0 219.844L0 0Z" transform="translate(0 0.04796997)" id="Clip-9" fill="none" stroke="none" />
        <g clip-path="url(#mask_3)">
          <path d="M157.067 52.1384C148.955 92.297 11.0597 153.829 4.4293 219.845C-2.68877 202.093 -1.31824 181.586 9.19835 164.766C18.1129 150.511 30.3488 139.979 36.6705 128.278C48.7089 105.995 -14.9339 49.6595 26.4811 14.0688C41.1 1.50381 72.2423 -1.39605 106.221 0.553697C116.565 2.91815 164.385 15.8855 157.067 52.1384" transform="translate(-4.89308E-05 0.04787708)" id="Fill-8" fill="#FFFFFF" fill-opacity="0.1521345" stroke="none" />
        </g>
      </g>
      <path d="M330.821 0C331.805 7.86558 328.479 13.3361 327.181 15.2269C304.751 47.8993 182.686 58.7901 100.049 52.1346C56.9041 48.6586 21.5445 26.4202 0 1.91587L330.821 0Z" transform="translate(21 243)" id="Fill-11" fill="#000000" fill-opacity="0.149088547" stroke="none" />
      <path d="M41.6268 3.81206C41.6268 3.81206 31.5495 4.42199 31.7046 7.47163C31.8596 10.5213 38.216 17.2305 38.216 17.2305L28.7071 13.825L0 12.7323L3.10069 15.4007C3.10069 15.4007 26.2266 16.4681 27.2603 17.2814C28.2938 18.0945 41.5235 28.0567 43.7972 28.4633C46.071 28.8701 190.485 28.688 190.485 28.688C190.485 28.688 205.343 29.2766 207.824 24.7021C210.304 20.1277 219.296 20.4326 221.777 24.3972C224.257 28.3617 223.913 43 223.913 43C223.913 43 230.706 41.2266 231.079 41.0687C254.644 31.1064 281 0 281 0L41.6268 3.81206Z" transform="translate(32 243)" id="Fill-13" fill="#000000" fill-opacity="0.128045946" stroke="none" />
      <path d="M0 0.694621L14.4508 49.8584C14.4508 49.8584 16.5058 52.3025 18 50.0383L8.28619 0L0 0.694621Z" transform="translate(43 207)" id="Fill-15" fill="#162F44" stroke="none" />
      <path d="M7.13411 0L0 33.1379L3.39657 37L13 0.954157L7.13411 0Z" transform="translate(16 206)" id="Fill-17" fill="#162F44" stroke="none" />
      <path d="M17.4927 55.082L23.5177 89.2818L24.5166 94.9508L22.3247 95.2726L22.1688 95.2972L17.3806 96C17.3806 96 1.40988 56.6557 0.0505331 47.2132C-1.30851 37.7704 25.1962 0 25.1962 0L53.9642 2.44824C54.7252 10.6666 43.2195 26.1595 32.937 38.2182C24.8357 47.7168 17.4927 55.082 17.4927 55.082" transform="translate(218 162)" id="Fill-19" fill="#F4F2F9" stroke="none" />
      <path d="M6.88065 34.5349L13.7568 74.3024L11.611 74.6234L11.5378 75C11.5378 75 11.5111 74.878 11.4584 74.6479C10.5833 70.8176 0.318361 36.9106 0.00568524 29.9997C-0.326776 22.674 14.0326 0 14.0326 0L22 17.7138C14.0692 27.1883 6.88065 34.5349 6.88065 34.5349" transform="translate(229 181)" id="Fill-21" fill="#E0DFEA" stroke="none" />
      <path d="M30 75L1.33316 72.6135L0 24.8863C0 24.8863 7.00014 0 14.6666 0C19.22 0 23.6532 1.80371 26.3664 6.19455C28.2199 9.19796 29.2697 13.4149 29 19.0912C28.3902 31.8683 29.7299 67.9978 29.9667 74.1133C29.9865 74.6897 30 75 30 75" transform="translate(244 91)" id="Fill-23" fill="#6397D9" stroke="none" />
      <path d="M6.11481 71.2757L6.65254 14.4579L0 0.937426L7.76279 0L10.4917 3.21065C12.2813 6.21337 13.2949 10.4293 13.0342 16.1043C12.4454 28.8784 13.7712 65.8855 14 72L6.11481 71.2757Z" transform="translate(260 91)" id="Fill-25" fill="#8BBFF7" stroke="none" />
      <path d="M22 0L0.982651 40L0.43657 22.0085L0 7.41092L17.5236 0L22 0Z" transform="translate(244 107)" id="Fill-27" fill="#306299" stroke="none" />
      <path d="M137.329 238L8.67129 238C3.88224 238 0 234.092 0 229.27L0 8.72983C0 3.90845 3.88224 0 8.67129 0L137.329 0C142.118 0 146 3.90845 146 8.72983L146 229.27C146 234.092 142.118 238 137.329 238" transform="translate(75 32)" id="Fill-29" fill="#FFFFFF" stroke="none" />
      <path d="M130 3.2904L130 91.7096C130 93.5278 128.544 95 126.747 95L3.25311 95C1.4555 95 0 93.5278 0 91.7096L0 3.2904C0 1.47219 1.4555 0 3.25311 0L126.747 0C128.544 0 130 1.47219 130 3.2904" transform="translate(83 60)" id="Fill-31" fill="#E4DCF1" stroke="none" />
      <path d="M4.85292 0L3.30084 1.18348L0 15.5543L0.0713664 17.9213L5.29767 17.9997C5.65251 18.0051 6.01077 17.9355 6.32877 17.7491C7.82347 16.8717 8.46092 14.4246 7.63621 12.2575C7.19202 11.0906 6.05473 9.02758 5.92341 8.11529C5.60855 5.93126 4.85292 0 4.85292 0" transform="translate(144 84)" id="Fill-33" fill="#8E2B43" stroke="none" />
      <path d="M58 51L3.77621 50.7925L1.98132 50.7861C1.98132 50.7861 -4.50626 20.1373 5.99744 8.32479C8.55539 5.45147 11.8795 3.3316 15.5033 1.9556C26.7762 -2.34161 40.9562 0.499781 43.9961 9.92108C48.0122 22.3721 58 51 58 51" transform="translate(118 107)" id="Fill-35" fill="#4EC9B4" stroke="none" />
      <path d="M0.840132 26.4888C0.840132 26.4888 3.05502 32.5147 7.94306 33.7833C12.8311 35.0519 18.4319 30.5588 17.9736 25.3259C17.9736 25.3259 13.2894 24.6389 12.5256 22.3659C11.5978 19.6051 12.2201 19.5116 12.2201 19.5116C12.2201 19.5116 14.0531 16.0229 14.6641 13.4857C15.2751 10.9485 14.3586 1.11692 10.0816 0.165472C7.37666 -0.43616 3.05502 0.482621 0 4.92271C0 4.92271 1.52751 13.4857 3.66603 17.6087C5.80455 21.7316 6.87381 23.6345 0.840132 26.4888" transform="translate(133 83)" id="Fill-37" fill="#FA9E89" stroke="none" />
      <path d="M132.833 0.012664L0 186.239L0 228.483C0 233.187 3.69925 237 8.26298 237L128.427 237C133.714 237 138 232.582 138 227.131L138 3.82661C138 0.898155 135.67 -0.128651 132.833 0.012664" transform="translate(77 33)" id="Fill-39" fill="#F4F2F9" fill-opacity="0.184407547" stroke="none" />
      <path d="M0 30.4423L6.98164 0L18 1.81579L7.31553 46L0 30.4423Z" transform="translate(170 109)" id="Fill-41" fill="#4EC9B4" stroke="none" />
      <path d="M1.2002 18.137L1.8003 15.0307C1.8003 15.0307 0 13.8473 0.30005 12.0723C0.600099 10.2973 0 6.15549 0 6.15549C0 6.15549 0.956558 5.5082 1.57526 6.67322C2.01573 7.50186 2.70045 9.40974 2.70045 9.40974C2.70045 9.40974 4.99612 3.24442 5.52601 1.61937C5.75105 0.928881 5.97759 -0.147387 6.50117 0.0168048C6.77602 0.10319 6.6761 0.731851 6.62929 1.34661C6.48857 3.19088 5.70094 6.13094 5.70094 6.13094L6.10091 6.36495L7.76378 1.08923C7.83729 0.832733 7.95701 0.44459 8.22646 0.423585C8.4638 0.404947 8.70144 0.534526 8.70144 1.12621C8.70144 2.30957 7.42622 7.20336 7.42622 7.20336L7.74488 7.42199L9.6805 3.14384C9.81282 2.82108 10.2935 2.84948 10.3754 3.18821C10.4399 3.45595 10.4213 3.83877 10.2017 4.38045C9.60158 5.85965 9.00148 8.22638 9.00148 8.22638L9.15151 8.39885L10.2017 6.22945C10.3904 5.88243 10.8507 5.65878 10.9851 6.02947C11.1726 6.54719 9.52657 10.9999 9.52657 11.2957C9.52657 11.5916 8.40139 15.6224 7.20119 15.9182C6.00099 16.2141 5.92598 19 5.92598 19L1.2002 18.137Z" transform="translate(178 90)" id="Fill-43" fill="#FA9E89" stroke="none" />
      <path d="M24.6486 8L2.35139 8C1.05281 8 0 6.92812 0 5.6057L0 2.39399C0 1.07188 1.05281 0 2.35139 0L24.6486 0C25.9472 0 27 1.07188 27 2.39399L27 5.6057C27 6.92812 25.9472 8 24.6486 8" transform="translate(85 173)" id="Fill-45" fill="#FFDEDD" stroke="none" />
      <path d="M24.6486 8L2.35139 8C1.05251 8 0 6.92812 0 5.6057L0 2.39399C0 1.07188 1.05251 0 2.35139 0L24.6486 0C25.9472 0 27 1.07188 27 2.39399L27 5.6057C27 6.92812 25.9472 8 24.6486 8" transform="translate(117 173)" id="Fill-47" fill="#FFDEDD" stroke="none" />
      <path d="M24.6483 8L2.35136 8C1.0528 8 0 6.92812 0 5.6057L0 2.39399C0 1.07188 1.0528 0 2.35136 0L24.6483 0C25.9469 0 27 1.07188 27 2.39399L27 5.6057C27 6.92812 25.9469 8 24.6483 8" transform="translate(151 173)" id="Fill-49" fill="#FFDEDD" stroke="none" />
      <path d="M24.6486 8L2.35109 8C1.05251 8 0 6.92812 0 5.6057L0 2.39399C0 1.07188 1.05251 0 2.35109 0L24.6486 0C25.9472 0 27 1.07188 27 2.39399L27 5.6057C27 6.92812 25.9472 8 24.6486 8" transform="translate(183 173)" id="Fill-51" fill="#FFDEDD" stroke="none" />
      <path d="M120.453 8L2.54688 8C1.14017 8 0 6.92086 0 5.58914L0 2.41086C0 1.07914 1.14017 0 2.54688 0L120.453 0C121.86 0 123 1.07914 123 2.41086L123 5.58914C123 6.92086 121.86 8 120.453 8" transform="translate(85 192)" id="Fill-53" fill="#F4F2F9" stroke="none" />
      <path d="M2.54688 8C1.14017 8 0 6.92086 0 5.58943L0 2.41086C0 1.07914 1.14017 0 2.54688 0L120.453 0C121.86 0 123 1.07914 123 2.41086L123 5.58943C123 6.92086 121.86 8 120.453 8L2.54688 8Z" transform="translate(85 208)" id="Fill-55" fill="#F4F2F9" stroke="none" />
      <path d="M120.453 8L2.54688 8C1.14017 8 0 6.92086 0 5.58914L0 2.41057C0 1.07914 1.14017 0 2.54688 0L120.453 0C121.86 0 123 1.07914 123 2.41057L123 5.58914C123 6.92086 121.86 8 120.453 8" transform="translate(85 224)" id="Fill-57" fill="#F4F2F9" stroke="none" />
      <path d="M120.453 8L2.54688 8C1.14017 8 0 6.92086 0 5.58943L0 2.41086C0 1.07914 1.14017 0 2.54688 0L120.453 0C121.86 0 123 1.07914 123 2.41086L123 5.58943C123 6.92086 121.86 8 120.453 8" transform="translate(85 237)" id="Fill-59" fill="#F4F2F9" stroke="none" />
      <path d="M3.77846 5.32109C3.77846 5.32109 10.0786 -3.52651 21.9673 1.59578C33.8561 6.71808 20.951 15.1 20.951 15.1C20.951 15.1 20.6971 11.8404 18.8171 10.909L18.9695 13.8064L12.314 14.9706L11.247 12.1766L10.5611 15.3586L7.20791 16.6004C7.20791 16.6004 9.95146 26.2241 11.5519 27.6211C11.5519 27.6211 12.2378 29.8718 12.0091 30.3374C11.7805 30.8031 1.64459 33.3642 0.349018 31.0359C-0.94655 28.7076 1.7208 25.448 2.5591 23.2749C3.39741 21.1018 1.03491 9.5639 3.77846 5.32109" transform="translate(127 75)" id="Fill-61" fill="#FC516B" stroke="none" />
      <path d="M19.6483 6L2.35172 6C1.05297 6 0 4.65677 0 3C0 1.34323 1.05297 0 2.35172 0L19.6483 0C20.947 0 22 1.34323 22 3C22 4.65677 20.947 6 19.6483 6" transform="translate(82 50)" id="Fill-63" fill="#E4DCF1" stroke="none" />
      <path d="M0 0C0 0 2.66423 19.2857 5.70907 27L21.7706 27C21.7706 27 24.4184 18.862 11.7226 16.2C2.8926 14.3486 0 0 0 0" transform="translate(128 128)" id="Fill-65" fill="#44AD99" stroke="none" />
      <path d="M0.611111 0C0.611111 0 3.87047 9.9999 3.25936 12.9999C2.64825 15.9999 0 18.2001 0 20.1999C0 22.2 1.62953 29.7999 1.62953 29.7999L11 30C11 30 9.44442 29.7345 5.90731 26.9499C0.509361 22.7001 5.14342 13.3251 3.99758 8.0001C3.39656 5.2059 0.611111 0 0.611111 0" transform="translate(159 123)" id="Fill-67" fill="#44AD99" stroke="none" />
      <path d="M0 29.7715C0 29.7715 0.212555 38.1548 1.91491 36.8651C3.61695 35.5754 2.55322 23.1077 4.04238 18.8087C5.53187 14.5096 10 0.752244 10 0.752244L6.17017 0L0 29.7715Z" transform="translate(170 109)" id="Fill-69" fill="#44AD99" stroke="none" />
      <path d="M1.37662 9.47463C1.37662 9.47463 2.95284 10.1672 4.87646 12.5213C5.51336 13.3009 8.90746 14.5421 9.7102 15.5089C21.3554 29.5286 36.9061 40.3505 46.8735 36.0422C59.6037 30.5398 62 25.4241 62 25.4241L53.5865 14.0624C53.5865 14.0624 43.9234 28.8206 36.1518 24.8005C28.38 20.7807 13.0602 10.244 13.0602 10.244L12.654 3.78035C12.654 3.78035 11.7587 3.53954 11.3295 4.77512C10.9 6.01069 10.8805 7.07904 10.8805 7.07904L4.83146 0.0545808C4.83146 0.0545808 3.66873 -0.30548 4.02305 0.82398C4.37738 1.95311 6.51435 5.19168 6.51435 5.19168C6.51435 5.19168 6.73336 5.80799 6.2711 5.52743C5.73112 5.20022 1.50533 0.434681 1.50533 0.434681C1.50533 0.434681 0.531718 0.370619 0.929469 1.30132C1.23596 2.0175 3.79428 5.39175 4.65902 6.65459C4.91736 7.03141 4.37738 6.89047 4.37738 6.89047L0.881324 3.92063C0.40805 3.60098 -0.0819011 3.70742 0.0115578 4.28759C0.0858215 4.74818 1.03803 5.80701 1.60445 6.22653C3.01766 7.27287 4.00354 9.17929 4.00354 9.17929L0.960308 8.07972C0.960308 8.07972 0.364625 8.607 1.37662 9.47463" transform="translate(194 91)" id="Fill-71" fill="#FA9E89" stroke="none" />
      <path d="M19 3.49042L15.1493 31.8096L2.50534 34C2.50534 34 3.14586 33.332 3.87732 32.4395C4.62527 31.5327 5.46771 30.3908 5.84036 29.4739C6.68957 27.3699 6.69605 25.4082 6.69605 25.4082C6.69605 25.4082 1.08774 26.0412 0.218811 22.8127C-0.653062 19.5808 1.36208 4.52854 1.36208 4.52854C1.36208 4.52854 3.86408 -4.92866 19 3.49042" transform="translate(248 60)" id="Fill-73" fill="#FA9E89" stroke="none" />
      <path d="M12.3868 7.81212C12.3868 7.81212 6.15135 12.5218 0.168281 8.50978C0.168281 8.50978 3.96036 8.16079 5.14015 6.242C5.14015 6.242 2.78058 6.85257 0 2.92791C0 2.92791 4.88742 3.62556 6.57236 2.14285C8.25759 0.660132 16.8527 -1.69473 21.9928 1.88126C27.1333 5.45726 27.0491 8.0737 27.0491 8.0737C27.0491 8.0737 30.0824 9.20743 29.9983 10.9517C29.9138 12.6963 22.4986 27 22.4986 27L20.8978 20.6331C20.8978 20.6331 22.1617 21.011 22.9199 18.0456C23.6783 15.0801 20.392 16.3594 20.0548 16.97C19.718 17.5806 17.527 12.7834 17.527 12.7834L17.8639 9.99249C17.8639 9.99249 18.9595 6.4165 12.3868 7.81212" transform="translate(244 56)" id="Fill-75" fill="#261F27" stroke="none" />
      <path d="M24.2137 35.3837C20.623 49.8708 27.2642 107.793 27.2642 107.793L20.7663 109C-5.39479 48.9845 0.589657 0 0.589657 0L30 2.41441C30 2.41441 29.9248 1.18995 29.894 1.47967C29.5556 4.4875 27.4864 22.1689 24.2137 35.3837" transform="translate(244 161)" id="Fill-77" fill="#FFFFFF" stroke="none" />
      <path d="M11.7303 1.07611L4.17723 6.93476C4.17723 6.93476 1.20171 6.57627 0.629322 7.95107C0.0569299 9.32587 0 10.8804 0 10.8804L7.89623 11L21 5.79885L18.94 0L11.7303 1.07611Z" transform="translate(224 253)" id="Fill-79" fill="#6397D9" stroke="none" />
      <path d="M9.55063 1.34049C9.55063 1.34049 6.87779 5.66154 4.18494 9.19155C3.27954 10.3785 1.06757 10.8934 0.207198 13.787C-0.532794 16.2764 0.947189 18 0.947189 18C0.947189 18 5.91203 17.1065 9.36555 14.0427C12.8194 10.9786 18 5.10622 18 5.10622L16.5817 0L9.55063 1.34049Z" transform="translate(256 270)" id="Fill-81" fill="#6397D9" stroke="none" />
      <path d="M58 7C58 10.866 45.0163 14 29 14C12.9837 14 0 10.866 0 7C0 3.13396 12.9837 0 29 0C45.0163 0 58 3.13396 58 7" transform="translate(8 192)" id="Fill-83" fill="#224A7D" stroke="none" />
      <path d="M58 7C58 10.866 45.0163 14 29 14C12.9837 14 0 10.866 0 7C0 3.13396 12.9837 0 29 0C45.0163 0 58 3.13396 58 7" transform="translate(8 191)" id="Fill-85" fill="#6397D9" stroke="none" />
      <path d="M24 3C24 4.65683 18.6274 6 12 6C5.37262 6 0 4.65683 0 3C0 1.34317 5.37262 0 12 0C18.6274 0 24 1.34317 24 3" transform="translate(21 191)" id="Fill-87" fill="#162F44" stroke="none" />
      <path d="M0 0L0 3.98605C0 3.98605 0.070092 6.45009 5 8L3.8213 3.68178C3.8213 3.68178 0.358498 2.18668 0 0" transform="translate(8 197)" id="Fill-89" fill="#162F44" stroke="none" />
      <path d="M4.99378 0L4.99378 4.08493C4.99378 4.08493 5.38322 6.12774 0 8L1.65175 3.23425C1.65175 3.23425 4.51257 1.95702 4.99378 0" transform="translate(61 197)" id="Fill-91" fill="#8CC5F2" stroke="none" />
      <path d="M18 0.0383893L16.0318 7.72805C15.5439 9.64191 13.6093 11 11.3787 11L7.14617 11C5.5615 11 4.1215 10.3149 3.24673 9.22819C2.94056 8.84725 2.70505 8.41611 2.55364 7.94953L0.847851 2.63705L0 0L18 0.0383893Z" transform="translate(29 184)" id="Fill-93" fill="#FC516B" stroke="none" />
      <path d="M18 1C18 1.552 13.9707 2 9.00017 2C4.02931 2 0 1.552 0 1C0 0.448 4.02931 0 9.00017 0C13.9707 0 18 0.448 18 1" transform="translate(29 182)" id="Fill-95" fill="#9B293F" stroke="none" />
      <path d="M3.59364 7.65712C3.94755 7.79396 4.28233 7.9096 4.59479 8L2.48408 7.67582C2.19393 7.27372 1.97075 6.81862 1.82727 6.32581L0.210753 0.718176C0.129768 0.447925 0 0.0187025 0 0C0 0 4.21538 1.24216 8 0.818235C6.76864 0.981882 3.68993 1.23031 1.83173 1.13805C1.37228 1.11529 1.0053 1.50742 1.06811 1.95285C1.3015 3.60959 1.97298 7.02653 3.59364 7.65712" transform="translate(31 186)" id="Fill-97" fill="#F995A9" stroke="none" />
      <path d="M8 10.9012L7.32142 13.988L6.82733 14C6.82733 14 6.79919 10.9012 3.15297 8.99936C-0.49637 7.10049 0.0258578 0 0.0258578 0L0.0289849 0.00899936C0.116544 0.191986 1.51749 3.10808 2.57758 3.29976C3.67207 3.50075 4.35066 5.24962 4.35066 5.24962C4.35066 5.24962 4.87289 5.99957 5.49831 5.84958C6.12373 5.69959 6.74915 7.34947 6.74915 7.34947L6.95554 9.10135L8 10.9012Z" transform="translate(31 170)" id="Fill-99" fill="#51A595" stroke="none" />
      <path d="M0.00730784 29.9869C0.00730784 29.9869 -0.692641 6.5511 11.6079 0C11.6079 0 15.1083 1.35202 11.0079 6.96725C6.90779 12.5825 10.208 16.6379 8.4079 18.0935C6.60777 19.5494 4.00749 20.4853 4.40772 22.357C4.80765 24.2288 4.30751 26.1005 3.50765 26.3086C2.7075 26.5164 0.907371 27.6213 0.626251 30L0.00730784 29.9869Z" transform="translate(34 157)" id="Fill-101" fill="#4EC9B4" stroke="none" />
      <path d="M8 12.8001L7.95921 13.988L7.42208 14C7.42208 14 7.39148 10.9012 3.42764 8.99936C-0.539611 7.10049 0.0281104 0 0.0281104 0L0.0315099 0.00899936L0.368063 1.07692C0.368063 7.52646 4.09054 8.86437 5.57954 9.72531C7.06853 10.5862 8 12.8001 8 12.8001" transform="translate(26 170)" id="Fill-103" fill="#41877A" stroke="none" />
      <path d="M1.81472 1.10452C1.81472 1.10452 12.367 1.27724 13.3093 0L14 1.89844C14 1.89844 5.63919 6.45539 0 4.52211L1.81472 1.10452Z" transform="translate(252 93)" id="Fill-105" fill="#306299" stroke="none" />
      <path d="M0 14.9158L12.5881 29C12.5881 29 29.4103 13.9176 28.9923 9.19038C28.5747 4.46291 22.4114 -5.3249 12.9579 3.66689C3.76042 12.4147 0 14.9158 0 14.9158" transform="translate(239 93)" id="Fill-107" fill="#8CC5F2" stroke="none" />
      <path d="M11.4346 106.654L8.86886 107C8.86886 107 -3.1566 64.5297 0.798324 33.1533C1.98784 23.7191 6.14304 0 6.14304 0L14 0.737052C13.6824 3.76025 11.6429 20.5925 8.57408 33.8744C5.20669 48.4358 11.4346 106.654 11.4346 106.654" transform="translate(260 163)" id="Fill-109" fill="#F4F2F9" stroke="none" />
      <path d="M2.74658 7.55763C1.25901 7.8821 0.448057 7.98505 0 8C0.698045 7.03423 1.48427 5.81805 1.83206 4.84165C2.62461 2.60092 2.63065 0.51163 2.63065 0.51163C2.63065 0.51163 5.6025 -0.26982 5.9077 0.0988201C6.21236 0.467128 5.9077 6.86851 2.74658 7.55763" transform="translate(255 85)" id="Fill-111" fill="#E6846F" stroke="none" />
      <path d="M29 19C29 29.4925 20.9522 38 11.0267 38C6.87082 38 3.04561 36.5089 0 34.0044L0 3.99561C3.04561 1.49114 6.87082 0 11.0267 0C20.9522 0 29 8.50751 29 19" transform="translate(83 77)" id="Fill-113" fill="#CEC3E2" stroke="none" />
      <path d="M27 18.5C27 28.7162 19.5073 37 10.2661 37C6.39693 37 2.83531 35.548 0 33.1094L0 3.8906C2.83531 1.45195 6.39693 0 10.2661 0C19.5073 0 27 8.28379 27 18.5" transform="translate(85 78)" id="Fill-115" fill="#C3B8D8" stroke="none" />
      <path d="M18 4.09571C18 4.09571 16.0154 2.99209 15.7019 2.79061C15.3884 2.59214 11.3127 3.69275 5.87636 9.30705C0.443134 14.9214 5.14587 19.6305 2.8478 22.6376C0.546594 25.6448 2.7412 31.9597 3.8918 36.2719C5.04241 40.5812 3.8918 45.994 3.8918 45.994L3.83224 46L2.01071 45.994C2.01071 45.994 -4.57311 17.1256 6.08641 5.99922C8.68232 3.2928 12.0557 1.29607 15.7333 0L18 4.09571Z" transform="translate(120 109)" id="Fill-117" fill="#44AD99" stroke="none" />
    </g>
  </g>
</svg>